<svg xmlns="http://www.w3.org/2000/svg" width="360.762" height="959.996"><path d="M0 290.085a17.3 17.3 0 0 0 10.264 3.834c10.13.26 18.183-8.66 23.552-17.317 18.616-30.22 27.448-65.286 35.24-99.92s15.066-69.875 30.738-101.653 41.475-60.61 75.33-71.174 75.763.78 92.994 31.864 6.32 69.962-8.226 102.432c-21.548 48.32-49.984 93.265-84.422 133.43-7 6.525-11.72 15.106-13.507 24.5-1.126 17.317 18 28.92 35.154 30.045 19.31 1.3 38.27-5.542 57.494-8.14s41.562 0 53.164 15.932c16.018 21.647 2.078 51.952-13.854 74.032a474.41 474.41 0 0 1-115.767 112.044c-15.932 10.9-33.076 21.214-44.16 37.146s-14.2 39.3-1.3 53.77 36.28 14.114 53.857 5.974 31.6-22.253 47.536-33.336c29.786-20.694 72.906-29.353 101.22-6.667 18.076 16.155 27.397 39.94 25.1 64.074a177.76 177.76 0 0 1-21.3 67.8 475.1 475.1 0 0 1-161.569 187.03C121.165 933.07 64.168 956.746.226 960" fill="#5857e9"/></svg>