<svg xmlns="http://www.w3.org/2000/svg" width="430.345" height="888.877"><path d="M208.935 888.876C63.123 835.54 42.65 720.144 10.525 576.4c-5.368-23.984-14.46-48.4-8.66-72.127s29.18-44.938 53.337-40.523c20 3.723 33.076 22.253 47.45 36.713a144.77 144.77 0 0 0 70.222 38.791c17.317 3.9 37.58 3.8 50.653-8.66 17.837-16.625 13.075-45.63 6.754-69.27l-34.635-131.958a223.65 223.65 0 0 1-10.823-72.126c1.645-24.33 12.728-49.44 33.942-61.65s52.73-6.407 63.468 15.5c3.555 9.574 6.448 19.382 8.66 29.353 3.2 9.61 10.65 19.31 20.78 19.57s18.183-8.66 23.552-17.317c18.616-30.22 27.448-65.286 35.24-99.92s15.066-69.875 30.738-101.653c7.3-15.093 16.886-28.96 28.44-41.1 1.574-1.63 0 61.97 0 61.97l.003 792.828-140.72 22.118" fill="#492acf"/></svg>