<svg xmlns="http://www.w3.org/2000/svg" width="538.209" height="848.548"><g transform="matrix(.987688 -.156434 .156434 .987688 366.068 -34.29)"><path d="M65.146 45.313c-.297-.213-.683-.256-1.02-.113L6.792 68.338 0 71.156l20.523 8.31h.023v.01l5.5 19.165a1.13 1.13 0 0 0 1.89.487L39.36 87.435 54.79 93.5c.636.26 1.356.213 1.952-.128s1.004-.936 1.104-1.615L65.633 46.5c.1-.456-.094-.925-.487-1.177zM31.9 84.4l.023-.08.034.01z" fill="#d9e2ff"/><path d="M39.36 87.435L27.926 99.128c.133-.145.23-.32.283-.51l3.7-14.22.057-.068 4.913 2.06 2.2.928z" fill="#7d7ad0"/><path d="M65.23 45.374L31.9 84.4l-3.7 14.218c-.053.2-.15.364-.283.51a1.13 1.13 0 0 1-1.89-.487l-5.5-19.19z" fill="#94a5e8"/></g><path d="M394 73.548l-5 9m-34 53l-4 7m24-38l-5 9m-35 51l-5 8m-16 21l-6 8m-17 21l-6 7m-18 19l-6 7m-20 18l-7 6m-21 16l-8 5m-24 13l-8 3m-26 7h-10m-35-5l10 3m-41-21l8 6m-34-31l6 7m-27-35l5 7m-20-40l3 9m-2-45l-2 9m23-38l-7 7m37-25l-8 4m43-15l-9 2m44-8l-9 1m45-3h-9m45 0h-9m45 4l-9-1m44 7l-9-2m45 11l-10-3m35 11l9 3m24 10l9 4m24 13l7 5m23 14l7 6m46 43l5 7m-30-33l7 6m39 49l4 8m11 24l4 9m7 26l2 9m3 26v10m0 26l-1 9m-4 27l-1 9m-7 26l-3 9m-9 25l-3 8m-11 26l-4 7m-11 23l-6 8m-12 19l-6 8m-11 22l-6 8m-18 27l-7 8m-17 19l-6 7m-19 19l-7 7m-21 17l-6 6m-23 16l-6 4m-24 15l-7 4m-25 12l-7 4m-26 10l-8 3m-26 8l-9 3m-26 6l-9 2m-26 4l-9 2m-27 3l-9 1m-27 1h-9m-27 0H2" fill="none" stroke="#c1bbff" stroke-linecap="round" stroke-width="4"/></svg>