<svg xmlns="http://www.w3.org/2000/svg" width="463.281" height="573.302"><g transform="matrix(-.174 .985 -.985 -.174 489.975 43.949)"><path d="M65.146 45.313c-.297-.213-.683-.256-1.02-.113L6.792 68.338 0 71.156l20.523 8.31h.023v.01l5.5 19.165a1.13 1.13 0 0 0 1.89.487L39.36 87.435 54.79 93.5c.636.26 1.356.213 1.952-.128s1.004-.936 1.104-1.615L65.633 46.5c.1-.456-.094-.925-.487-1.177zM31.9 84.4l.023-.08.034.01z" fill="#d9e2ff"/><path d="M39.36 87.435L27.926 99.128c.133-.145.23-.32.283-.51l3.7-14.22.057-.068 4.913 2.06 2.2.928z" fill="#7d7ad0"/><path d="M65.23 45.374L31.9 84.4l-3.7 14.218c-.053.2-.15.364-.283.51a1.13 1.13 0 0 1-1.89-.487l-5.5-19.19z" fill="#94a5e8"/></g><path d="M368.28 36.302l-10-7m-20-12l-12-5m-22-7l-12-2m-24-1l-12 2m-23 6l-11 5m-21 11l-9 7m-20 15l-8 8m-17 17l-9 9m-15 18l-7 10m-15 19l-7 10m-13 19l-7 11m-12 20l-7 11m-12 20l-5 10m-12 22l-5 11m-9 22l-3 11m-6 36v-13m1 49l-2-13m13 47l-5-11m24 41l-7-9m33 34l-9-8m38 29l-9-6m41 23l-10-5m44 20l-12-5m45 16l-11-3m45 14l-10-3m46 11l-12-2m47 10l-12-2m47 8l-12-2m48 8l-12-2m47 7l-11-2m47 6l-11-1m37 3h-2" fill="none" stroke="#c1bbff" stroke-linecap="round" stroke-width="4"/></svg>