<svg xmlns="http://www.w3.org/2000/svg" xmlns:xlink="http://www.w3.org/1999/xlink" width="1210.619" height="677.61"><style><![CDATA[.B{fill:#fc5d87}.C{fill:#1487e3}.D{fill:#e0e0e0}.E{fill:#78c2ff}.F{fill:#8aa3f8}.G{fill:#164cce}.H{fill:#d9e2ff}]]></style><defs><linearGradient id="A" x1="-.03" y1=".5" x2="1.081" y2=".5"><stop offset="0" stop-color="#8aa3f8"/><stop offset="1" stop-color="#164cce"/></linearGradient><linearGradient id="B" y1=".5" x2="1" y2=".5"><stop offset="0" stop-color="#164cce"/><stop offset=".486" stop-color="#164cce"/><stop offset="1" stop-color="#012ca8"/></linearGradient><linearGradient id="C" y1=".5" x2="1" y2=".5"><stop offset="0" stop-color="#012ca8"/><stop offset="1" stop-color="#426de2"/></linearGradient><linearGradient id="D" y1=".5" x2="1" y2=".5"><stop offset="0" stop-color="#050c8e"/><stop offset="1" stop-color="#425bce"/></linearGradient><linearGradient id="E" y1=".5" x2="1" y2=".5"><stop offset="0" stop-color="#060084"/><stop offset="1" stop-color="#012ca8"/></linearGradient><linearGradient id="F" x1=".028" y1="1.449" x2=".657" y2=".244"><stop offset="0" stop-color="#012ca8"/><stop offset="1" stop-color="#445ccf"/></linearGradient><linearGradient id="G" y1=".5" x2="1" y2=".5"><stop offset="0" stop-color="#012ca8"/><stop offset="1" stop-color="#345cd0"/></linearGradient><linearGradient id="H" x1=".5" y1="-.097" x2=".5" y2="1.41" xlink:href="#A"/><linearGradient id="I" x1="-.463" y1=".5" x2=".537" y2=".5"><stop offset="0" stop-color="#40d5e6"/><stop offset="1" stop-color="#57f"/></linearGradient><path id="J" d="M972.122 576.104h51.04a1.54 1.54 0 0 1 1.541 1.541v11.35a1.54 1.54 0 0 1-1.54 1.54h-51.04a1.54 1.54 0 0 1-1.541-1.541v-11.35a1.54 1.54 0 0 1 1.539-1.539z"/></defs><g transform="translate(-116.897 -332.139)"><path d="M0,0H630.652a0,0,0,0,1,0,0V457.66a9.474,9.474,0,0,1-9.474,9.474H9.474A9.474,9.474,0,0,1,0,457.66V0A0,0,0,0,1,0,0Z" transform="matrix(-1 0 0 -1 980.524 799.273)" fill="url(#A)"/><path transform="matrix(-1 0 0 -1 957.115 714.362)" fill="url(#B)" d="M0 0h584.95v359.342H0z"/><path d="M1146.086 867.39c-7.948-36.32 9.225-45.384 25.832-54.146 13.57-7.166 26.39-13.93 25.706-35.335-.9-28.376 18.428-38.7 35.48-47.807 12.69-6.777 24.67-13.176 26.46-26.09 4.3-31.065 32.96-69.682 33.246-70.067l1.782 1.332c-.29.378-28.6 38.544-32.826 69.043-1.943 14.03-14.412 20.7-27.612 27.742-17.292 9.233-35.17 18.78-34.307 45.776.728 22.79-13.314 30.2-26.893 37.37-16.6 8.762-32.283 17.038-24.7 51.706z" fill="#040385"/><path d="M1154.807 858.136c-.38 0-.76-.014-1.145-.042-7.183-.532-14.223-5.99-22.157-17.17l-.5-.7.555-.658c.128-.156 12.845-15.653 8.176-44.752a136.15 136.15 0 0 0-3.717-16.156c-1.707-6.09-2.833-10.112-.947-13.323 2.4-4.074 8.883-6.2 27.143-10.56 19.444-4.63 25.944-26.536 31.68-45.867 5.4-18.2 10.52-35.373 25.648-34.843 13.9.532 35.016-21.254 53.644-40.46 17.287-17.82 33.6-34.608 44.034-34.276a8.32 8.32 0 0 1 6.28 3.12c9.3 11.075.625 27.877-7.763 44.125-7.157 13.86-13.92 26.952-9.57 35.587 5.47 10.85 6.236 20.67 2.215 28.388-4.757 9.14-15.846 15.03-32.964 17.51-15.65 2.27-17.34 19.337-19.132 37.408-2.1 21.09-4.46 44.988-30.72 47.26-19.5 1.688-32.646 15.378-44.246 27.455-9.22 9.605-17.235 17.954-26.514 17.954zm-21.01-17.826c7.227 10.01 13.782 15.1 20.028 15.57 8.73.646 16.683-7.64 25.9-17.236 11.87-12.36 25.32-26.37 45.657-28.13 24.42-2.113 26.595-24.053 28.7-45.265 1.88-18.962 3.654-36.872 21.026-39.39 16.37-2.372 26.9-7.866 31.312-16.336 3.675-7.06 2.908-16.175-2.227-26.362-4.862-9.645 2.153-23.232 9.575-37.61 8.057-15.6 16.387-31.732 8.04-41.676a6.11 6.11 0 0 0-4.659-2.327c-9.43-.312-25.424 16.15-42.357 33.6-19.624 20.233-39.908 41.142-54.754 41.145-.19 0-.378 0-.567-.01-13.416-.5-18.062 15.144-23.437 33.253-5.9 19.906-12.6 42.47-33.3 47.4-16.516 3.934-23.738 6.126-25.74 9.524-1.41 2.4-.438 5.858 1.17 11.6 1.59 5.385 2.848 10.862 3.77 16.4 4.334 27.04-5.628 42.468-8.14 45.85z" fill="url(#C)"/><path d="M1155.618 850.527c-.26 0-.52-.012-.78-.037-11.78-1.073-20.84-26.877-29.6-51.832-4.156-11.838-8.078-23.02-11.9-30.2-2.964-5.57-6.733-11.373-10.375-16.99-9.7-14.95-19.74-30.412-16.474-43.978 1.716-7.138 6.84-13.076 15.66-18.16 19.3-11.126 16.336-17.406 9.83-31.173-4.776-10.1-11.318-23.938-11.57-45.71l-.518-24.587c-.613-22.947-.92-34.463 3.976-38.63 2.03-1.726 4.867-2.17 8.93-1.4 6.952 1.322 9.955 6.936 13.136 12.873 4.058 7.58 8.66 16.166 22.542 19.072 13.03 2.726 25.562 6.443 29.02 15.1 2.433 6.087.13 14.093-7.038 24.475-1.737 2.516-2.334 4.657-1.82 6.544 1.133 4.18 7.624 7.208 15.144 10.716 10.695 4.993 24.008 11.206 27.78 24.067 3.04 10.368-.478 23.3-10.748 39.53-24.3 38.4-23.32 64.45-22.46 87.426.64 17.03 1.243 33.11-9.025 51.08-4.537 7.943-9.027 11.812-13.7 11.814zm-46.3-300.833a5.96 5.96 0 0 0-4.013 1.231c-4.086 3.48-3.77 15.343-3.193 36.88l.518 24.617c.247 21.287 6.667 34.87 11.355 44.787 6.455 13.66 10.352 21.9-10.727 34.048-8.263 4.764-13.043 10.245-14.6 16.756-3.04 12.637 6.73 27.69 16.177 42.25 3.67 5.655 7.465 11.5 10.473 17.15 3.9 7.33 7.855 18.586 12.038 30.506 8.13 23.162 17.346 49.416 27.7 50.358 3.953.352 8.108-3.228 12.357-10.658 9.95-17.418 9.386-32.467 8.734-49.9-.872-23.3-1.863-49.7 22.8-88.7 9.907-15.664 13.342-28 10.492-37.72-3.487-11.9-15.76-17.623-26.586-22.675-8.02-3.74-14.948-6.973-16.35-12.148-.693-2.558.007-5.3 2.138-8.39 6.714-9.722 8.94-17.045 6.8-22.388-3.078-7.7-15.583-11.273-27.41-13.747-14.9-3.12-19.972-12.593-24.048-20.2-3.05-5.7-5.686-10.615-11.6-11.737-1.006-.2-2.028-.308-3.054-.32z" fill="url(#D)"/><path d="M1155.85 864.297l-2.117-.67c11.875-37.534-9.606-121.747-16-142.24-3.15-10.077-.243-25.25 2.572-39.92 3.636-18.948 7.393-38.542-2.2-45.888-17.992-13.794-17.045-45.708-17-47.06l2.22.084c-.01.317-.95 32.12 16.128 45.214 10.672 8.178 6.782 28.458 3.02 48.07-2.76 14.4-5.616 29.29-2.638 38.838 7.922 25.344 27.852 106.133 16.005 143.572z" fill="#040385"/><path d="M1066.032 620.5c-4.944-12.55-24.253-10.643-22.476 7.1s14.2 36.674-4.732 66.84 24.25 36.082 39.63 55.01 20.7 44.955 33.717 61.517 21.886 56.193 32.53 41.406.63-34.018 1.8-60.636 24.874-43.47 1.182-60.622-47.52-22.413-39.7-61.1c3.453-17.072-26.582-10.473-41.96-49.513z" fill="url(#E)"/><path d="M1161.94 855.792c-.13-.786-13.286-78.756-42.737-100.124-30.03-21.788-35.487-41.916-45.977-89.383l2.17-.478c10.364 46.88 15.737 66.753 45.114 88.065 30.188 21.9 43.09 98.315 43.623 101.56z" fill="#fff"/><path d="M1135.367 852.997s8.752-21.64-7.173-52.4-28.817-26.03 9.573-49.7.243-98.2 32.924-107.666 61.076-130.112 85.922-114.75-8.28 74.52 9.466 92.268 20.117 40.333-16.564 58.616 26.033 88.1-23.66 109.394-35.44 104.81-90.487 64.237z" fill="url(#F)"/><g fill="#fff"><path d="M1150.548 875.95c-.058-.278-5.4-27.987 11.483-63.79 17.2-36.476 25.43-76.35 22.022-106.666-1.85-16.418 8.668-22.838 18.84-29.048 10.014-6.117 20.37-12.44 19.8-28.614-.513-14.613 5.67-48.868 5.933-50.32l2.2.4c-.065.352-6.408 35.468-5.9 49.843.613 17.474-10.3 24.14-20.865 30.585-10.02 6.12-19.477 11.9-17.79 26.9 3.454 30.71-4.853 71.03-22.22 107.86-16.55 35.1-11.37 62.135-11.315 62.4z"/><path d="M1190.703 723.05c11.16-10.364 25.916-11.858 22.842 3.517s-13.62 19.77-8.346 29.433 14.058 19.328-.877 31.19-23.286 13.176-27.68 35.585-3.5 37.702-22.84 38.66-11.858-27.24-5.71-39.98a42.26 42.26 0 0 0 3.076-33.626c-6.15-19.088-18-29.4 7.03-35.883s24.982-21.905 32.506-28.895z"/></g><path d="M1155.198 875.755c-.063-2.74-1.392-67.28 10.68-78.142 12.327-11.1 14.7-30.7 15.01-41.4.41-13.943 18.42-22.22 19.188-22.563l.914 2.024c-.175.08-17.51 8.053-17.882 20.6-.4 13.5-3.452 31.924-15.746 42.99-11.32 10.19-9.963 75.78-9.946 76.442z" fill="url(#G)"/><path d="M1200.538 849.414l-20.025 75.966h-44.754l-20.023-75.967z" class="B"/><path d="M1200.536 849.414s-44.078 8.276-44.078 75.966h-20.695l-20.023-75.97z" fill="#fd1453"/><path d="M352.724 650.89h58.937v6.673h-58.937z" class="C"/><path d="M194.122 626.192s-2.668 37.42 4.643 41.9c4.58 2.808 22.842 12.27 22.3 14.046s-10.312 15.786-10.312 15.786-35.08-23.1-36.212-30.377c-1.1-7.113 1.728-54.792 6.55-56.988 3.612-1.646 5.515-.285 10.07 3.095 6.388 4.737 2.96 12.538 2.96 12.538z" class="F"/><path d="M190.043 898.515l-1.227 8.708c-.136 1.136-12.136-.67-12.136-.67l-.972-9.013s12.836-.094 14.335.974z" class="B"/><path d="M188.948 906.258s3.8 4.564 7.477 6.553 9.454 2.775 11.63 4.837c1.567 1.485 5.718 7.88-9.554 7.752s-22.633.9-24.267-1.548 2.365-18.1 2.365-18.1 3.612 1.296 12.35.506z" fill="#425ccc"/><path d="M250.093 898.515l-1.23 8.708c-.137 1.136-12.134-.67-12.134-.67l-.97-9.013s12.836-.094 14.335.974z" class="B"/><path d="M248.993 906.258s3.8 4.564 7.477 6.553 17.208 3.622 19.384 5.68c1.57 1.486 4.18 7.47-17.306 6.908-15.268-.4-22.633.9-24.272-1.548s2.367-18.1 2.367-18.1 3.404 1.385 12.35.506z" fill="#425ccc"/><path d="M194.347 703.956s-11.273 17.915-10.434 34.1-1.005 33.49-2.7 50.4l-7.31 68.182c-.28 10.082.366 48.043.366 48.043l19.557-.147s6.94-76.673 10.308-84.637 17.17-65.566 17.73-71.937-27.517-44.004-27.517-44.004z" fill="#012ca8"/><path d="M253.696 706.383l5.574 53.93c1.12 9.912.357 52.85.914 59.045s-3.745 71.7-4.81 84.175l-21.492-.135-1.483-78.74c0-25.745-6.607-55.72-14.177-72.71s-24.9-17.4-29.55-48.908c0 0 58.723-6.653 65.022 3.342z" class="G"/><g class="B"><path d="M206.258 552.935s13.433-8.974 22.866.64 14.07 32.213 7.3 36.723-18.267 5.695-23.722-.427-11.278-15.455-12.7-22.27 2.86-11.798 6.266-14.666z"/><path d="M231.85 591.818s-.177 9.442.865 11.455-19.606 2.064-19.606 2.064c-1.1-6.848-2.723-13.6-4.855-20.2-3.176-9.247 23.596 6.68 23.596 6.68z"/></g><path d="M208.776 584.988s1.924 1.96 7.376-.26 10.583-11.383 12.752-12.763 1.866-2.78 1.866-2.78l1.99 1.814 2.55-.436s-3.878-6.2-1.07-9.757-8.724-20.967-25.39-10.34c0 0-13.04 7.13-10.662 14.94s6.536 16.37 10.59 19.582z" fill="#754836"/><path d="M233.942 603.03s-.063-3.843-1.807-4.214-19.24-2.05-21.38-1.208v4.478s4.122 2.537 23.187.944z" fill="#2e5deb"/><path d="M229.716 566.39c-.63-1.257-4.91-4.26-5.247.114s4.207 9.083 5.912 8.2.935-5.12-.665-8.304z" class="B"/><path d="M202.375 555.246s-19.21 5.152 5.623 29z" fill="#754836"/><path d="M374.014 657.4l-19.575-.18c1.69-.984 4.42-2.752 3.818-3.56-.863-1.147-6.406 1.374-8.66 1.6-2.066.2-5.53-.056-8.157.9l-6.19 2.64 5.67 5.245s10.24 1.47 13.237 1.68c4.874.343 19.785-5.462 20.032-6.343.45-1.58-.174-1.98-.174-1.98z" class="B"/><path d="M259.498 608.36c-12.453-2.188-25.557-5.33-25.557-5.33l-23.188-.947s-21.28 4.685-29.66 8.472c-.8.36-.8 18.985-2.98 23.87l6.947 14.66s4.016 29.04 4.846 41.95c.382 5.93-8.276 55.6-8.276 55.6s9.28 2.73 25.107 4.475 55.365-.63 55.615-2.5-7.658-69.6-8.008-73.108c-.536-5.382 1.553-30.256 1.553-30.256 2.983 4 20.224 19.027 28.638 23.8 6 3.4 20.674 1.32 25 .882 9.363-.96 35.226-2.808 35.73-3.73.4-.55-1.486-9.98-2.568-10.343-.947-.315-34.335-1.964-42.7-1.532-3.4.18-14.482-12.2-14.482-12.2s-19.138-30.68-26.006-33.764zm-142.6-93.732h61.292v53.778l-9.358-9.356h-51.934z" class="F"/><path d="M980.5 731.826H350.092l-68.986 257.85h768.377z" fill="url(#H)"/><path d="M373.942 777.064h38.733c.706-.067 1.404.2 1.897.7s.73 1.214.64 1.918l-3.752 16.85a2.51 2.51 0 0 1-2.537 1.789H369.53a2.32 2.32 0 0 1-2.521-2.684l4.412-16.847a2.53 2.53 0 0 1 2.521-1.724zm56.493 0h29.278l-3.894 21.255h-29.84zm43.922 0h29.276l-3.06 21.255-29.843.03zm43.92 0h29.28l-2.227 21.255H515.5zm43.92 0h29.28l-1.394 21.255H560.25zm43.92 0H635.4l-.556 21.255-29.84.03zm351.472 0h-43.922l4.732 21.255h44.756zm-58.565 0h-29.278l3.9 21.255h29.836zm-43.92 0h-29.283l3.06 21.255 29.843.03zm-43.922 0H781.9l2.227 21.255h29.843zm-43.92 0h-29.28l1.394 21.255h29.836zm-43.923 0h-29.282l.56 21.255 29.84.03zm-73.3 0h29.283l.483 21.255H650.04zm-288.982 37.09h61.187l-3.487 21.927h-62.345zm606.082 0h-75.632l4.3 21.927h77.067zm-90.76 0h-30.25l3.446 21.927h30.827zm-45.376 0H800.75l2.585 21.927h30.827zm-45.377 0h-30.253l1.722 21.927h30.823zm-45.38 0H710l.86 21.927h30.827zM351.92 853.24h62.55l-4.562 21.78h-63.7zm78.2 0h31.277l-3.708 21.78h-31.85zm46.913 0h234.554l.872 21.78H473.6zm250.21 0h31.273l1.713 21.78h-31.847zm46.914 0h31.275L808 875.02h-31.847zm46.915 0h31.277l3.425 21.78h-31.85zm46.915 0h31.275l4.28 21.78h-31.847zm46.914 0h62.55l5.7 21.78h-63.687zm-219.96-39.085h-30.007v21.927h30.583zm-45.377 0h-30.252l-.863 21.927h30.827zm-45.38 0h-30.25l-1.724 21.927h30.827zm-45.378 0h-30.253l-2.587 21.927h30.83zm-45.378 0h-30.253l-3.448 21.927h30.827zm-45.38 0h-30.253l-4.306 21.927h30.827zm-92.667-50.448l4.97-18.978h14.218l-4.64 18.978zm33.404-18.977h28.43l-3.976 18.978H404.3zm42.653 0h28.43l-3.23 18.978h-28.933zm42.65 0h28.43l-2.485 18.978h-28.93zm42.648 0h28.433l-1.74 18.978h-28.93zm42.652 0h28.433l-.993 18.978h-28.932zm42.65 0h28.433l-.248 18.978h-28.93zm42.65 0h28.436l.5 18.978H664.68zm42.65 0h28.436l1.243 18.978h-28.932zm42.65 0h28.436l1.988 18.978h-28.93zm42.652 0h28.436l2.733 18.978h-28.93zm42.65 0h28.435l3.48 18.978h-28.935zm42.65 0h28.433l4.227 18.978h-28.93zm42.653 0h28.433l4.97 18.978h-28.933z" class="H"/><path d="M1029.4 1009.75H301.18c-5.324 0-10.43-2.115-14.193-5.88s-5.88-8.87-5.88-14.194h768.377a20.08 20.08 0 0 1-20.074 20.074z" fill="url(#I)"/><path d="M754.62 906.353a9.4 9.4 0 0 0-9.279-7.868H585.25a9.4 9.4 0 0 0-9.275 7.868l-10 60.524a9.4 9.4 0 0 0 9.275 10.933h180.1a9.4 9.4 0 0 0 9.279-10.933z" fill="#425dcd"/><path d="M411.66 385.5h65.166v6.673H411.66zm83.403 50.24h47.05v6.672h-47.05z" class="D"/><path d="M549.44 435.75h31.22v6.672h-31.22zM412.4 562.096h31.22v6.673H412.4z" class="C"/><path d="M586.833 435.75h75.382v6.672h-75.382zM412.4 536.8h48.438v6.673H412.4zm67.523 50.418h29.57v6.67h-29.57z" class="D"/><path d="M412.4 587.218h58.586v6.67H412.4z" class="C"/><path d="M412.4 612.338h32.314v6.673H412.4z" class="D"/><path d="M489.5 385.51h46.26v6.673H489.5z" class="E"/><path d="M489.5 460.87h46.26v6.673H489.5z" class="C"/><path d="M466.372 485.992h19.765v6.673h-19.765z" class="D"/><path d="M446.607 511.484h44.398v6.672h-44.398z" class="E"/><path d="M497.714 511.484h61.3v6.672h-61.3zM412.4 486.178h46.26v6.673H412.4zm0 25.306h27.45v6.672H412.4z" class="C"/><path d="M495.457 486.178h25.896v6.673h-25.896zm-82.28 151.282h25.894v6.67h-25.894z" class="B"/><path d="M412.216 435.75h46.258v6.672h-46.258zm40.91 126.346h46.26v6.673h-46.26zm.57 50.242h46.258v6.673h-46.258zm82.178 0h46.258v6.673h-46.258zM412.216 460.87h65.944v6.673h-65.944zM721.23 385.5h46.258v6.673H721.23zM556.434 637.46h46.26v6.67h-46.26zm225.45-251.95h30.968v6.673h-30.968zm104.77 25.12h30.966v6.672h-30.966z" class="E"/><path d="M548.217 385.5h58.94v6.673h-58.94zm229.64 25.12h58.937v6.672h-58.937zm-72.284 25.12h58.94v6.672h-58.94zm-76.732 25.12h58.937v6.673H628.84z" class="C"/><path d="M771.926 435.75h41.897v6.672h-41.897z" class="E"/><path d="M650.746 385.5h58.937v6.673h-58.937zm-67.252 75.36h34.557v6.673h-34.557zm-27.06 101.597h34.557v6.673h-34.557z" class="B"/><path d="M618.05 385.5h21.576v6.673H618.05zm-69.833 75.36h21.572v6.673h-21.572zm302.79-50.24h21.576v6.672h-21.576z" class="D"/><path d="M411.66 410.63h33.75v6.672h-33.75zm90.053 126.344h26.645v6.673h-26.645zM453.696 410.63h10.895v6.672h-10.895z" class="C"/><path d="M677.416 410.63h90.073v6.672h-90.073zM591 612.338h90.076v6.673H591z" class="D"/><path d="M472.6 410.63h11.118v6.672H472.6z" class="B"/><path d="M639.627 410.63h29.467v6.672h-29.467z" class="C"/><path d="M669.095 435.75h29.47v6.672h-29.47zm-151.53 201.7h29.47v6.67h-29.47z" class="B"/><path d="M569.124 410.63h62.7v6.672h-62.7zM510.76 562.467h36.632v6.673H510.76zm-2.356 49.87h18.32v6.673h-18.32z" class="C"/><path d="M538.652 410.63h21.576v6.672h-21.576z" class="E"/><path d="M466.04 435.75h21.572v6.672H466.04zm4.3 101.224h21.572v6.673H470.34z" class="B"/><path d="M492.838 410.63h37.59v6.672h-37.59z" class="C"/><path d="M765.28 469.22h283.273c2.216.001 4.012 1.798 4.012 4.014v199.653c0 2.217-1.798 4.015-4.015 4.015H765.28c-2.217 0-4.015-1.798-4.015-4.015V473.235c0-2.217 1.798-4.015 4.015-4.015z" fill="#fff" opacity=".76"/><g class="F"><use xlink:href="#J"/><use xlink:href="#J" y="27.019"/><path d="M972.123 630.142h51.04a1.54 1.54 0 0 1 1.541 1.541v11.35a1.54 1.54 0 0 1-1.541 1.541h-51.038a1.54 1.54 0 0 1-1.541-1.541v-11.35a1.54 1.54 0 0 1 1.54-1.54z"/></g><path d="M944.418 543.914c-14.954-41.812-60.97-63.584-102.783-48.63s-63.584 60.97-48.63 102.783q.91 2.557 1.978 5.014c17.302 39.758 63.012 58.637 103.327 42.675s60.712-61.015 46.108-101.842zm-55.407 83.84c-29.875 10.72-62.94-3.59-75.575-32.707-.532-1.224-1.028-2.48-1.485-3.757-11.2-31.35 5.115-65.85 36.464-77.06s65.85 5.115 77.06 36.464-5.115 65.85-36.464 77.06z" class="G"/><path d="M811.166 553.028l-19.21-6a80.51 80.51 0 0 1 74.351-56.424l.6 20.116c-25.692.798-48.06 17.777-55.74 42.308z" fill="#fd1453"/><path d="M813.436 595.047l-18.454 8.034q-1.067-2.46-1.978-5.014a80.05 80.05 0 0 1-1.049-51.042l19.21 6c-3.922 12.498-3.647 25.937.784 38.264a62.18 62.18 0 0 0 1.486 3.758z" fill="#fff"/><path d="M807.443 623.095c-5.12-6.02-9.32-12.764-12.465-20.014l18.454-8.034a59.92 59.92 0 0 0 9.342 15.009z" class="H"/><path d="M895.552 618.676s-3.895-6.817 2.283-25.084c5.97-17.665 26.65-16.066 33.222-4.746s4.354 18.35-5.322 31.126-26.167 4.55-30.183-1.296zm48.03 314.28l1.152 8.63c.13 1.13 11.383-.665 11.383-.665l.9-8.932s-12.038-.1-13.444.966z" class="B"/><path d="M944.61 940.63s-3.566 4.52-7.015 6.488-8.866 2.752-10.907 4.792c-1.472 1.47-5.36 7.8 8.962 7.682s21.23.9 22.765-1.535-2.218-17.936-2.218-17.936-3.506 1-11.587.51z" fill="#414773"/><path d="M865.65 932.955l1.152 8.63c.128 1.13 11.383-.665 11.383-.665l.912-8.932s-12.04-.09-13.447.966z" class="B"/><path d="M866.683 940.63s-3.566 4.52-7.017 6.488-16.14 3.59-18.178 5.63c-1.474 1.474-3.922 7.4 16.233 6.845 14.32-.394 21.23.9 22.766-1.535s-2.22-17.936-2.22-17.936a59.56 59.56 0 0 1-11.584.508z" fill="#414773"/><path d="M939.794 746.162s5.77 17.93 5.01 33.386 2.985 32.367 4.515 48.51c1.707 18 8.69 60.605 8.94 70.232s-1.082 40.37-1.082 40.37l-13.978.336S931.46 864.51 928.42 856.91s-18.12-61.785-18.624-67.865 29.997-42.882 29.997-42.882z" class="G"/><path d="M881.84 744.293l-9.5 56.877c-1.016 9.462-1.69 45.773-2.194 51.685s-3.38 77.36-6.082 86.14h15.587s16-51.94 16-76.515 10.594-53.425 17.437-69.637 22.5-16.6 26.7-46.683c.004.001-52.255-11.408-57.948-1.868z" fill="#012ca8"/><path d="M901.204 623.5s1.758 5.12 0 8.77 22.46 1.46 22.46 1.46-1.1-7.547 2.07-13.754-24.53 3.523-24.53 3.523z" class="B"/><path d="M940.9 750.07s-8.7 8.948-59.854-1.395l.78-4.382 58.14 2.192z" fill="#2b3b57"/><path d="M897.54 633.456s-8.946.912-11.5 1.4-19.76-3.08-23.288-3.444-18.58-10.674-19.067-11.894-9.156-23.164-9.643-27.9-8.444-2.3-7.76.973c1.276 6.12 2.915 20.97 3.815 25.275.97 4.65 3.568 15.175 5.03 16.47s15.01 11.6 28.276 15.982a112.68 112.68 0 0 1 23.252 10.84h65.38s25.43-36.35 25.977-41.828-17.763-41.88-21.413-46.447-8.932 1.5-8.932 1.5l12.4 36.667c1.46 4.567-12.726 24.618-16.623 24.678s-13.892-1.22-18.335-1.4a31.17 31.17 0 0 1-9.13-2.132z" class="B"/><path d="M869.363 657.735s8 5.322 8.736 14.447a188.98 188.98 0 0 0 5.11 28.479c1.462 4.932-1.278 40.71-1.644 43.267s50.592 8.63 58.418 2.558l3.1-42.9c.9-9.49 5.294-32.492 6.754-35.6s19.167-27.943 19.9-31.217c0 0-9.163-14.606-15.732-14.788 0 0-10.438 12.232-13.84 12.78s-24.263-3.276-24.267-3.307c0 0-2.278 3.1-14.38-.553l-16.76 1.924c-2.84.366-22.574-2.474-22.574-2.474s-7.92 13.372-6.532 20.12z" class="H"/><path d="M834.496 594.46s-1.786-8.46.368-10.9c1.224-1.38 4.167-5.044 4.436-5.58s3.43-2.355 3.43-3.23-3.092-1.95-5.784.54-4.37 3.027-5.445 2.756-2.624-9.212-2.756-11.43-1-8.07-2.38-7.665-1.318 2.957-1.318 2.957-1.616-4.44-2.7-3.563-.942 3.027-.942 3.027-2.017-2.5-2.556-.674a6.28 6.28 0 0 0 0 3.428s-2.085-1.143-2.218 1.68.606 11.1 2.085 14.055 7.017 10.7 7.677 13.72 8.094.87 8.094.87zm114.95-14.858s-6.084-10.226-8.155-11.138-4.986-1.43-7.544-3.258-5.933-3.344-5.75-3.953 3.195-.366 6.42 1.033 4.638.723 4.944-.007-1.716-5.886-2.7-7.1-7.913-8.2-6.754-9.23 5.658 2.8 6.4 3.6c0 0-3.6-7.544-2.192-7.9s4.016 2.3 4.016 2.3-.3-6.448 6.635 4.018c0 0-1.462-3.468.67-2.3s4.2 7.668 4.87 10.954 3.706 13.754 6.294 16.274-7.15 6.728-7.15 6.728z" class="B"/><path d="M925.736 619.977s-3.2.284-10.02-2.07-7.325-14.27-8.8-12.86c-3.008 2.882-5.85.893-6.985-.812 0 0 3.328-4.38 1.786-6.492a16.33 16.33 0 0 0-4.053-3.647s4.795-23.1 26.61-12.58c25.56 12.336 1.462 38.46 1.462 38.46z" fill="#353a3d"/><path d="M901.205 632.27l.767-3.34s13.925-.285 21.52.816l.8 3.993s-9.727 4.412-23.087-1.47z" fill="#d4d8e8"/><path d="M904.64 602.125c1.264-2.1 5.94-3.517 6.5 2.435.424 4.617-8.358 9.657-8.44 5.357-.2-2.738.493-5.466 1.95-7.792z" class="B"/><path d="M834.167 592.54s-5.023.12-7.46 2.323c-.082.854.058 1.716.406 2.5a31 31 0 0 1 7.693-2.411s-.054-1.83-.64-2.412z" fill="#8ca4f1"/><path d="M828.245 593.79a2.16 2.16 0 0 0 2.804 2.843 2.16 2.16 0 0 0 .027-3.993c-1.1-.462-2.365.052-2.83 1.15z" fill="#353a3d"/></g></svg>