<svg xmlns="http://www.w3.org/2000/svg" xmlns:xlink="http://www.w3.org/1999/xlink" width="891.755" height="572.976"><style><![CDATA[.B{fill:none}.C{stroke-miterlimit:10}.D{fill:#fff}.E{fill:#fd5e89}.F{opacity:.75}.G{stroke-width:.75}.H{stroke-linejoin:round}.I{fill:#bacbf5}.J{stroke:#d4daff}.K{fill:#2329b9}.L{stroke:#8693f2}.M{stroke:#2944b7}.N{fill:#022ba7}.O{stroke-width:.5}.P{fill:#f5f6ff}.Q{fill:#ffc6b0}.R{fill:#182270}.S{fill:#6080e0}.T{stroke:#277ef1}.U{stroke-width:1.5}.V{fill:#e0ebfc}.W{stroke:#e88872}.X{fill:#002ca8}]]></style><defs><linearGradient id="A" y1=".5" x2="1" y2=".5"><stop offset="0" stop-color="#012ca8"/><stop offset="1" stop-color="#426de2"/></linearGradient><linearGradient id="B" y1=".5" x2="1" y2=".5"><stop offset="0" stop-color="#050c8e"/><stop offset="1" stop-color="#425bce"/></linearGradient><linearGradient id="C" y1=".5" x2="1" y2=".5"><stop offset="0" stop-color="#060084"/><stop offset="1" stop-color="#012ca8"/></linearGradient><linearGradient id="D" x1=".028" y1="1.449" x2=".657" y2=".244"><stop offset="0" stop-color="#012ca8"/><stop offset="1" stop-color="#445ccf"/></linearGradient><linearGradient id="E" y1=".5" x2="1" y2=".5"><stop offset="0" stop-color="#012ca8"/><stop offset="1" stop-color="#345cd0"/></linearGradient><path id="F" d="M174.66 103.562a5.27 5.27 0 0 1-5.267 5.269 5.27 5.27 0 0 1-5.269-5.266 5.27 5.27 0 0 1 5.266-5.27 5.27 5.27 0 0 1 5.27 5.267z"/><path id="G" d="M677.332 139.103h3.145v3.145h-3.145z"/></defs><path d="M660.645 269.364q1.588 11.967 3.17 23.932c-13.732-.275-26.837.766-40.567 1.153 4.518-2.65 14.11-7.933 17.51-14.775" class="Q"/><path d="M663.506 303.845h-7.833a20.39 20.39 0 0 0-.062-3.283c-1.688.003-3.374.12-5.047.347a5.57 5.57 0 0 0-1.46 1.493 3.9 3.9 0 0 1-3.078 1.443H614.89c-3.844 0-4.45-4.036-.347-5.97l12.17-5.61c12.386 1.048 32.64-.946 36.605-4.65 3.004 2.812.236 16.147.188 16.23z" fill="#0b0b3a"/><path d="M653.152 142.06l9.254 140.586-21.645-2.973s-22.97-92.358-28.87-137.613m-13.62 127.304q1.584 11.967 3.168 23.932c-13.732-.275-26.837.766-40.567 1.153 4.518-2.65 14.1-7.933 17.5-14.775" class="Q"/><path d="M601.133 303.845h-7.836c.07-1.094.048-2.192-.062-3.283a37.93 37.93 0 0 0-5.047.347 5.57 5.57 0 0 0-1.46 1.493 3.9 3.9 0 0 1-3.078 1.443h-31.137c-3.844 0-4.45-4.036-.35-5.97l12.17-5.61c12.39 1.048 32.643-.946 36.605-4.65 3.008 2.812.242 16.147.195 16.23z" fill="#0b0b3a"/><path d="M610.196 142.06L600.03 282.646l-21.645-2.973s-9.45-88.567-9.45-137.613" class="Q"/><path d="M638.836 69.242c19.788 45.66 22.02 96.146 22.02 96.146s-28.168 7.4-51.166 7.4c-15.72-.19-31.412-1.4-46.974-3.65 0 0 6.133-78.912 15.61-103.075" class="R"/><path d="M633.09 85.093c13.472 27.773 20.187 82.084 20.187 82.084" class="B G H M"/><path d="M511.418 438.66H358.902s6.323 97.15-23.874 97.15h200.264c-30.2 0-23.874-97.15-23.874-97.15z" class="S"/><path d="M357.172 497.056l153.757-31.153c-.28-15.407.49-27.244.49-27.244H358.902s2.037 31.323-1.73 58.397z" class="K"/><rect width="612.074" height="401.643" rx="5.566" x="129.123" y="66.307" class="S"/><g class="C L"><rect width="577.699" height="373.173" rx="2.589" x="146.31" y="80.542" class="D"/><path d="M146.3 127.608h577.7" class="B"/></g><path d="M654.635 112.95h-398c-2.62 0-5.13-1.04-6.982-2.893s-2.892-4.364-2.89-6.982h0c0-2.62 1.04-5.13 2.89-6.982s4.363-2.892 6.982-2.893h398c5.454 0 9.875 4.42 9.875 9.875h0c0 5.454-4.42 9.875-9.875 9.875z" class="I"/><g class="C D L"><use xlink:href="#F"/><use xlink:href="#F" x="24.587"/><use xlink:href="#F" x="49.172"/></g><path d="M596.398 262.826H273.922a22.12 22.12 0 0 1-22.119-22.119h0a22.12 22.12 0 0 1 22.119-22.119h322.476a22.12 22.12 0 0 1 22.119 22.119h0a22.12 22.12 0 0 1-22.119 22.119z" class="B C T U"/><path d="M596.398 218.587h-37.12v44.24h37.12c12.216 0 22.12-9.903 22.12-22.12h0a22.12 22.12 0 0 0-22.119-22.12z" fill="#277ef1"/><path d="M602.86 251.377l-7.322-7.324c3.54-4.712 2.972-11.33-1.316-15.372s-10.93-4.216-15.423-.404-5.407 10.39-2.12 15.282 9.724 6.53 14.95 3.8l7.62 7.62c.997.997 2.615.997 3.612 0s.997-2.615 0-3.612zm-8.278-14.2c0 3.34-2.01 6.35-5.096 7.628s-6.636.572-8.998-1.79-3.068-5.913-1.79-8.998 4.29-5.097 7.628-5.096a8.27 8.27 0 0 1 8.255 8.254z" class="D"/><path d="M366.75 250.227h-92.29c-5.258-.001-9.52-4.263-9.52-9.52h0c.001-5.258 4.263-9.52 9.52-9.52h92.29c5.258.001 9.52 4.263 9.52 9.52h0c-.001 5.258-4.263 9.52-9.52 9.52z" class="F V"/><path d="M307.79 533.036H562.53v14.176H307.79z" class="S"/><path d="M391.875 311.648h-62.45a10.64 10.64 0 0 1-10.639-10.639h0a10.64 10.64 0 0 1 10.639-10.644h62.45a10.64 10.64 0 0 1 10.639 10.639h0a10.64 10.64 0 0 1-10.639 10.644z" class="F V"/><path d="M330.233 303.667h60.837" class="B C T U"/><path d="M540.894 311.648H430.03c-5.876-.001-10.638-4.763-10.64-10.64h0a10.64 10.64 0 0 1 10.639-10.644h110.864a10.64 10.64 0 0 1 10.639 10.639h0a10.64 10.64 0 0 1-10.639 10.644z" class="F V"/><g class="C"><path d="M442.583 303.667h85.758" class="B T U"/><path d="M610.853 145.434h23.372m11.32 0h23.372" class="D L"/></g><g class="P"><use xlink:href="#G" class="F"/><use xlink:href="#G" x="4.388" class="F"/><use xlink:href="#G" x="8.775" class="F"/><use xlink:href="#G" y="4.759" class="F"/><use xlink:href="#G" x="4.388" y="4.759" class="F"/><use xlink:href="#G" x="8.775" y="4.759" class="F"/><use xlink:href="#G" y="9.517" class="F"/><use xlink:href="#G" x="4.388" y="9.517" class="F"/><use xlink:href="#G" x="8.775" y="9.517" class="F"/><path d="M710.214 145.435a7.97 7.97 0 0 1-13.607 5.638 7.97 7.97 0 0 1 5.636-13.608c4.402.001 7.97 3.568 7.97 7.97z"/></g><g fill="#8693f2"><circle cx="708.054" cy="93.201" r="2.079"/><circle cx="708.054" cy="103.075" r="2.079"/><circle cx="708.054" cy="112.95" r="2.079"/></g><path d="M528.34 533.794H398m-14.633 0h-42.555" class="B C L"/><rect width="317.641" height="224.392" rx="3.681" style="mix-blend-mode:multiply" x="185.479" y="193.013" class="P"/><rect width="317.641" height="224.392" rx="3.681" x="166.934" y="181.475" class="C D L"/><path d="M475.876 181.475H175.632a8.7 8.7 0 0 0-8.7 8.7v14.378h317.64v-14.38a8.7 8.7 0 0 0-8.696-8.697z" class="K"/><path d="M453.04 340.834H201.1a4.29 4.29 0 0 1-4.286-4.286h0a4.28 4.28 0 0 1 1.255-3.032c.805-.804 1.894-1.256 3.03-1.257h251.94a4.29 4.29 0 0 1 4.289 4.289h0c0 1.137-.452 2.228-1.257 3.03a4.3 4.3 0 0 1-3.032 1.255zm0 14.936H201.1a4.29 4.29 0 0 1-4.286-4.286h0c0-1.137.45-2.227 1.255-3.03a4.29 4.29 0 0 1 3.03-1.255h251.94c1.137-.001 2.228.45 3.033 1.254s1.256 1.894 1.256 3.032h0a4.29 4.29 0 0 1-4.289 4.286zm0 14.907H201.1c-1.137 0-2.228-.452-3.03-1.257a4.3 4.3 0 0 1-1.255-3.032h0a4.29 4.29 0 0 1 4.286-4.286h251.94a4.29 4.29 0 0 1 4.289 4.286h0a4.29 4.29 0 0 1-4.289 4.289zm0 14.903H201.1a4.29 4.29 0 0 1-4.286-4.286h0c0-1.137.45-2.227 1.255-3.03a4.29 4.29 0 0 1 3.03-1.255h251.94c1.137-.001 2.228.45 3.033 1.254s1.256 1.894 1.256 3.032h0c0 1.137-.452 2.228-1.257 3.03a4.3 4.3 0 0 1-3.032 1.255zm0-59.684H201.1a4.29 4.29 0 0 1-4.286-4.286h0a4.29 4.29 0 0 1 4.286-4.286h251.94a4.29 4.29 0 0 1 4.289 4.286h0c0 1.137-.452 2.228-1.257 3.03a4.3 4.3 0 0 1-3.032 1.255z" class="P"/><path d="M256.805 234.92c-6.352-9.583-17.086-15.34-28.583-15.334v34.294z" class="F K"/><path d="M254.336 239.987l-28.572 18.954v-34.293c-15.73-.008-29.45 10.68-33.29 25.934s3.184 31.164 17.043 38.604 31 4.504 41.593-7.123 11.922-28.97 3.225-42.075z" class="I"/><path d="M425.747 224.648v34.294l-27.267 20.744c9.744 12.807 27.086 17.112 41.688 10.35s22.535-22.774 19.07-38.49-17.397-26.903-33.5-26.897z" fill="#e6e8fc"/><path d="M351.695 277.955c7.977-10.345 9.375-24.327 3.603-36.047s-17.707-19.136-30.77-19.12v34.293z" class="K"/><path d="M347.87 279.815l-27.173-20.873v-34.294a34.3 34.3 0 0 0-33.521 26.846c-3.494 15.703 4.396 31.725 18.975 38.527s31.926 2.557 41.715-10.208z" class="I"/><path d="M388.2 257.147a34.09 34.09 0 0 0 7.032 20.741l27.264-20.74v-34.3c-18.942.002-34.296 15.358-34.296 34.3z" fill="#b6c2ff"/><rect width="349.155" height="256.638" rx="4.046" style="mix-blend-mode:multiply" x="358.975" y="126.007" class="P"/><rect width="349.155" height="256.639" rx="4.046" x="338.59" y="113.323" class="C D L"/><path d="M678.185 113.323H348.15c-5.28 0-9.56 4.28-9.56 9.56V138.7h349.156v-15.806a9.56 9.56 0 0 0-9.561-9.561z" class="K"/><path d="M606.97 185.73h23.367v16.455H606.97z" class="I"/><g class="B C J"><path d="M641.075 185.73h16.154m-16.154 16.454h32.67"/><path d="M641.075 196.9h32.67m-32.67-5.167h32.67"/></g><path d="M606.97 220.15h23.367v16.455H606.97z" class="I"/><g class="B C J"><path d="M641.075 220.15h16.154m-16.154 16.454h32.67"/><path d="M641.075 231.3h32.67m-32.67-5.147h32.67"/></g><path d="M606.97 254.57h23.367v16.455H606.97z" class="I"/><g class="B C J"><path d="M641.075 254.57h16.154m-16.154 16.455h32.67"/><path d="M641.075 265.73h32.67m-32.67-5.156h32.67"/></g><path d="M606.97 289h23.367v16.455H606.97z" class="I"/><g class="B C J"><path d="M641.075 289h16.154m-16.154 16.445h32.67"/><path d="M641.075 300.15h32.67m-32.67-5.156h32.67"/></g><path d="M606.97 323.4h23.367v16.455H606.97z" class="I"/><g class="B C"><g class="J"><path d="M641.075 323.4h16.154m-16.154 16.465h32.67"/><path d="M641.075 334.57h32.67m-32.67-5.156h32.67"/></g><path d="M412.086 158.455H614.25m-174.5 10.267h146.837" stroke="#f5f6ff" stroke-width="2"/></g><path d="M442.375 250.255v87h17.465v-99.698zm-23.355 16.98l-8.733-5.586v75.6h17.465v-76.362zm-32.1-20.527l-8.733 5.57v84.975h17.465v-84.958zm151.7-16.75V337.25h17.465v-117.7zm-55.444-9.38l-8.733 6.348V337.25h17.465V226.917zm32.088 23.3l-8.733-6.34v99.716h17.465v-98.58z" class="K"/><g class="B C"><path d="M358.483 245.36v91.892h232.695" stroke="#2329b9"/><path d="M354.62 247.637l3.863-2.87 3.863 2.87m226.1 86.743l3.863 2.87-3.863 2.87" class="J"/><path d="M362.916 255.53l24.015-15.314 32.088 20.526 64.176-46.657 32.088 23.3 62.374-37.173" stroke="#2329b9"/><path d="M569.876 198.833l7.412 1.25-1.96 7.473M378.2 349.87h16.944m15.403 0h16.944m15.405 0h16.944m15.405 0h16.944m15.405 0h16.944m15.404 0h16.944" class="J"/></g><path d="M263.97 498.727s-89.23-8.687-94.605 15.15c-8.138 36.078 112.9 36.078 112.9 36.078l10.422-24.228-49.6-19.42" fill="#154cce"/><path d="M261.383 555.583l-24.646-.89s-3.934-1.248-6.425-8.624-1.483-8.043-1.483-8.043l28.727-3.215" class="E"/><g fill="#154cce"><path d="M292.686 495.64s68.238 4.13 65.364 35.15-104.6 28.542-104.6 28.542l-7.346-30.79s52.573-11.54 74.845-11.54"/><path d="M288.1 492.332l52.326 27.56s-39.09 22.2-76.468 13-43.088-25.99-43.088-25.99z"/></g><path d="M238.422 536.613c-.153.74.03 1.51.5 2.1.78.78 2.444-.394 4.246 1.408 1.667 1.667 2.516 8.74 1.832 10.13s-2.24 1.2-2.144 2.064c.2 1.855 2.38 2.683 2.38 2.683s-5.464.78-12.65 1.3c-12.8.92-16.652.776-21.345 0-3.827-.632-8.34-7.74-3.465-12.614 7.322-7.32 23.33-6.83 23.33-6.83l7.31-.242" class="N"/><path d="M247.23 533.247s46.9-17.776 73.72-19.52M257.117 529.7s-35.44-21.138-58.2-22.8" stroke="#052e90" class="B C G"/><g class="E"><path d="M271.57 381.636s-6.2 16.08-1.106 21.46c2.646 2.8 10.624 3.447 14.08.806 2.566-1.96 6.57-14.34 5.187-16.555-5.284-8.462-18.162-5.71-18.162-5.71z"/><path d="M291.756 397.497l1.13 17.5s-11.22 8.8-20.42-1.076l1.95-11.4z"/></g><path d="M295.88 394.177c.81-3.662 3.148-9.606.934-11.92-.836-.87-1.952-1.443-2.773-2.33-.748-.937-1.363-1.974-1.827-3.08a12.5 12.5 0 0 0-3.869-4.79 6.57 6.57 0 0 0-5.909-.954 12.83 12.83 0 0 1-2.134.839c-.9.077-1.805-.017-2.67-.277-2.363-.474-4.805-.36-7.114.33-2.748.826-5.4 2.69-6.2 5.444s1.033 6.248 3.9 6.378c1.36.063 2.87-.554 4 .207a6.02 6.02 0 0 1 .959.961c1.446 1.5 3.64 1.98 5.582 1.248 2.426-.96 3.632-1.4 4.05 1.545.34 2.178 1.83 4.002 3.9 4.765 1.208.43 2.59.487 3.595 1.283 1.05.875 1.382 2.345.81 3.587-.264.417-.495.855-.69 1.308-.4 1.313.707 2.56 1.72 3.485 1.994-2.26 3.29-5.048 3.734-8.03z"/><path d="M288.44 394.36c1.6-2.476 3.1-2.25 4.03-1.058 1.233 1.588-.587 5.3-1.533 6-1.915 1.4-3.57 1.43-3.882-.2" class="E"/><path d="M273.867 405.742c6.048 1.44 11.293-2.476 11.293-2.476" class="B G H W"/><path d="M253.375 418.084s-14.628 3.69-20.187 27.75l-6.852 28.118s-23.557 2.624-31.256 5l2.886 13.38s45.472 3.984 55.487-6.03 5.916-36.53 5.916-36.53" class="X"/><path d="M278.632 417.56l16.63-2.237 3.787.83-29.866 82.428c-.642 0-10.826-1.675-10.826-1.675l7.58-81.21 3.56-1.423z" class="D"/><g class="R"><path d="M277.227 421.773l-1.573 3.864s-12.648 24.863-12.648 30.79-2.034 41-1.545 41 9.11 1.033 9.11 1.033l8.944-37.27.412-35.55"/><path d="M274.354 418.15c-.587.584.6 6.8 1.3 7.486s3.622.65 4.27 0 3.81-6.453 2.776-7.486-7.388-.96-8.347 0z"/></g><path d="M267.56 474.796c15.095-40.277 31.88-58.644 31.88-58.644s18.168 1.712 23.305 10.724c6.425 11.273-1.178 27.087-2.76 49.508s-3.4 16.7-3.4 16.7-22.47 8.562-42.38 8.562c0 0-23.063-.69-28.994-3.065v-32.257c0-14.15-3.572-36.854 3.682-45.686 3.183-3.88 17.44-4.943 17.44-4.943z" class="X"/><path d="M191.553 500.083h68.642l-5.37-41.066c-.173-1.323-1.3-2.312-2.634-2.312h-63.44a2.52 2.52 0 0 0-2.5 2.846z" fill="#8693f2"/><path d="M215.677 478.09c.217 2.628 2.394 4.662 5.03 4.7a4.33 4.33 0 0 0 4.373-4.7c-.217-2.628-2.394-4.66-5.03-4.7-1.223-.018-2.397.483-3.23 1.38s-1.25 2.102-1.143 3.32z" fill="#b6c2ff"/><path d="M292.638 411.155l-13.545 5.523-6.152-5.523-3.444 3.117 2.553 8.233 6.882-4.52 4.42 7.028 11.91-9.688z" class="D"/><g class="B C G"><path d="M303.352 417.402a132.1 132.1 0 0 0-6.995 30.372h-7.5l4.02 6.458s-15.676 8.048-25.492 32.072m-6.01-69.454c-1 10.944-5.462 22.022-5.462 22.022l4.715 3.4-5.866 3.32s10.76 26.505 9 40.714" stroke="#000b2a"/><path d="M295.5 415.694l-11.99 10.022-4.576-7.732-6.912 5.038-2.97-8.572" stroke="#ffa6a4"/></g><path d="M256.066 493.707c-2.958-.195-16.335-.866-16.343-.067-.005.77 4.41 1.7 4.18 2.082-.33.542-3.764.534-5.69.352-1.717-.162-4.5-.14-4.668.6-.317 1.4 9.114 2.172 9.114 2.172-.095.424-9.988-2.723-10.374-1.578-.56 1.655 10.12 4.14 10.4 4.6 0 0-8.662-4.723-9.074-3.5s7.214 5.634 9.8 6.078c-2.05-.764-7.75-5.225-8.05-4.33s4.845 4.126 5.72 4.413c4.6 1.443 9.396 2.244 14.224 2.38" class="E"/><path d="M258.987 492.332l-5.535.635 2.178 18 7.632-.362z" class="D"/><path d="M300.3 449.813c0 22.7-1.24 32.43-1.24 32.43a213.25 213.25 0 0 1-43.477 9.393c1.388 8.954 2.783 20.355 2.783 20.355s46.615-3.345 59.97-12.724c14.423-10.13 16.02-69.453-.784-77.5" class="X"/><path d="M259.68 490.684c36.008-5.774 40.983-8.44 40.983-8.44s2.684-22.13 1.638-34.853" stroke="#000b2a" class="B C G"/><g class="E"><path d="M57.254 222.532l-3.655 18.38s10.292 10.42 21.073.72l-.122-12.324z"/><path d="M74.426 205.3s10.84 16.573 5.4 22.384c-2.828 3.02-12.95 5.754-16.682 2.936-2.77-2.092-7.147-15.372-5.674-17.76 5.625-9.124 16.956-7.56 16.956-7.56z"/></g><path d="M55.422 206.517c.944-6.236 7.292-7.526 19.1-5.766 1.58.235 4.5-.594 5.112.884.8 1.942.64 5.71-1.375 7.237a6.85 6.85 0 0 1-3.867 1.428c-2.2.312-4.568 2.167-3.625 4.518.247.617.87 1.682.377 2.127-.427.238-.88.426-1.348.562-.894.382-.956 1.685-.494 2.544s.142 1.732.607 2.586c1.1 2.024-.716 5.417-2.793 6.4-1.84.88-7.72 2.1-11.722-.444-3.47-2.207-5.2-7.53-4.413-16.76.3-3.538 3.14-5.68 4.44-5.326z"/><path d="M72.022 217.54c-1.737-2.654-3.355-2.4-4.34-1.113-1.313 1.712.664 5.69 1.685 6.433 2.064 1.5 3.844 1.518 4.17-.24" class="E"/><path d="M74.372 230.672c-2.634-.884-3.557-4.156-3.557-4.156" class="B H O W"/><path d="M45.015 532.843l-5.85 24.644 20.522 7.884-43.066-5.518 3.684-29.563" class="E"/><path d="M40.375 552.592c1.3.447.357 1.346 2.54 3.97s15.087 7.7 21.173 9.528c5.89 1.772 4.613 6.847 2.61 6.847H35.053c-2.324 0-4.014-1.88-5.81-1.88-.487 0-1.5-.34-1.777.01a3.67 3.67 0 0 0-.4 1.87h-10.73c-1.206 0-1.912-.774-1.83-1.67l1.156-15.227s13.1 1.78 16.8.7c1.5-.434-.072-1.573.554-2.2s6.065-2.39 7.37-1.947z" class="N"/><path d="M26.497 363.834c1.6 56.984-11.043 180.092-11.043 180.092l34.94-.147s19.428-84.443 24.22-126.932c2.856-25.314 4.02-53.862 4.478-75.4" fill="#012ca8"/><path d="M70.202 418.02c-5.462 41.995-26.4 125.075-26.4 125.075" class="B H M O"/><path d="M103.013 531.955l1.272 25.53 20.52 7.882-43.065-5.518-2.123-29.563" class="E"/><path d="M105.492 552.592c1.3.447.357 1.346 2.54 3.97s15.087 7.7 21.173 9.528c5.89 1.772 4.613 6.847 2.61 6.847H100.17c-2.324 0-4.014-1.88-5.81-1.88-.49 0-1.5-.34-1.777.01a3.64 3.64 0 0 0-.4 1.87h-10.73c-1.206 0-1.9-.774-1.83-1.67l1.156-15.227s13.1 1.78 16.8.7c1.5-.434-.072-1.573.554-2.2s6.07-2.39 7.37-1.947z" class="N"/><path d="M105.87 366.545s4.416 63.82 4.416 94.446 1.967 86.043 1.967 86.043h-35.3S68.202 452.903 48.46 387.5c-7.064-23.4-8.023-33.937-4.938-46.892l43.966-11.378z" fill="#012ca8"/><path d="M91.954 364.738c12.653 85.7 15.1 182.444 15.1 182.444M42.568 369.224c2.748 15.88 9.22 25.62 12.788 32.1 5.275 21.353 6.34 37.2 10.73 65.067m3.42-89.404c-6.738 1.214-13.626 1.352-20.407.4m-14.546-1.052a24.96 24.96 0 0 1-7.758-.162" class="B H M O"/><path d="M96.198 243.018s-2.054-7.274-6.468-10.644c-2.322-1.772-2.806-1.068-3.95-1.745-1.887-1.12-2.963-.746-3.76.295-.5.662-1.922.232-2.66.776-1.178.87-.36 2.122-1.15 2.5-3.495 1.652.38 4.975.38 4.975s-.78-1.792-2.222-1.026c-.94.5 2.653 5.61 5.195 9.014l2.33 3.04" class="E"/><g class="D"><path d="M97.33 240.072c-.3-.3-3.205-4.25-3.205-4.25L82.55 246.597l3.655 2.314"/><path d="M85 252.315l-3.625-3.4 14.442-11.9 3.33 4.962m-43.8-1.68c-6.276-1.043-14.054-.617-19.46 2.052C13.155 253.603.656 291.918.062 301.012c-1.54 23.625 25.834 62.926 25.834 62.926l15.766-7.456s-16.9-40.117-12.336-53.1 25.97-36.148 25.97-36.148"/><path d="M53.817 240.412S34.8 244.598 27.58 271.997c-3.255 12.354.255 32.184-.514 49.236a438.8 438.8 0 0 1-4.838 47.828c35.14 7.112 85.734-.562 85.734-.562s-3.645-27.906-5.013-45.71c-1.565-20.322-1.216-23.934-1.216-40.63 0-36.535-25.87-39.124-25.87-39.124z"/><path d="M51.343 240.604s1.875-4.688 2.26-4.778c4.683-1.1 18.253-.624 21.84 2.963 1.45 1.453.77 3.4 1.088 5.884"/></g><path d="M24.2 358.947c4.11-28.248 2.594-83.2 2.594-83.2" stroke="#a5a1a1" class="B C O"/><path d="M77.054 270.5s11.765 48.195 38.785 47.995c25.554-.195 18.662-43-19.785-81.458l-23.458 19.658" class="D"/><path d="M102.072 313.295c-7.933-6.6-15.866-17.888-15.866-17.888m0-48.375c21.757 16.27 32.946 40.9 32.946 40.9" stroke="#a5a1a1" class="B C O"/><circle cx="63.412" cy="63.412" transform="matrix(.23994 -.970788 .970788 .23994 44.643 128.289)" fill="#fe5e8b" r="63.412"/><circle cx="121.417" cy="81.946" r="45.876" class="D"/><circle cx="121.417" cy="81.945" fill="#fe5e8b" r="31.511"/><circle cx="121.417" cy="81.945" r="16.507" class="D"/><path d="M123.972 84.5h-10.365l10.365-10.365zM56.76 17.3H44.9v-3h8.87V5.43h3zm-5.43-5.43H39.47v-3h8.87V0h3z"/><path d="M48.287 10.93L50.4 8.816l71.72 71.717-2.114 2.114z"/><g stroke="#0029b7" class="B C"><path d="M728.307 572.938l-19.76-264.246m99.97 264.246l-19.76-264.246h-80.2"/><path d="M768.995 572.938l19.76-264.246m-99.973 264.246l19.76-264.246h80.2"/><path d="M805.354 535.503h-113.77m111.2-32.357h-108.78M799.613 469.9H696.5m99.94-31.7h-97.58m95.598-33.102H701.23m91.245-32.804h-88.77m86.93-30.98h-84.53"/></g><g class="E"><path d="M783 189.9l4.12 18.283s-10.025 10.676-21.048 1.253l-.2-12.32z"/><path d="M759.59 173.895s-4.905 19.184 2.12 22.926c3.652 1.947 14.114 1.263 16.737-2.61 1.945-2.873 1.8-16.857-.367-18.642-8.27-6.818-18.49-1.675-18.49-1.675z"/></g><path d="M780.83 168.348c-2.908-5.6-9.368-4.473-19.136-.557-3.767 1.5-7.866.115-8.235 1.67-1.036 4.388 1.258 8.25 3.657 9.044 1.908.508 3.92.476 5.81-.092 4.234-1.45 7.78.567 7.646 3.1-.035.664-.28 1.872.332 2.134.48.09.968.122 1.455.1.97.072 1.45 1.286 1.3 2.244s2.064.76 1.9 1.717c-.39 2.272 3.986 5.15 6.276 5.422 2.025.237 2.923-1.336 3.92-4.11 1.4-3.876 3.814-20.973-4.915-20.67z"/><path d="M771.55 184.275c.79-3.073 2.4-3.355 3.75-2.456 1.8 1.2 1.208 5.6.484 6.633-1.473 2.084-3.15 2.676-4.024 1.118" class="E"/><path d="M765.9 198.218c3.837.1 7.212-3.887 7.212-3.887" class="B G H W"/><path d="M843.568 475.872l19.9 15.668-11.175 18.93 30.3-31.093-21.263-20.867" class="E"/><path d="M859.48 488.456c-.744 1.158.557 1.276.48 4.688s-7.032 15.4-10.66 20.624c-3.5 5.047.642 8.23 2.214 6.984l24.783-19.67c1.822-1.445 1.977-3.967 3.385-5.085.382-.3.96-1.2 1.4-1.1.684.152 1.473 1.216 1.473 1.216l8.4-6.67c.41-.244.692-.658.768-1.13s-.06-.953-.374-1.314l-10.37-11.21s-9.156 9.538-12.716 10.988c-1.438.584-.92-1.278-1.8-1.38s-6.238 1.902-6.982 3.06z" class="N"/><path d="M828.886 325.227c0 18.984-.307 48.26 4.27 78.447 1.8 11.92 42.7 65.167 42.7 65.167l-24.29 22.84s-70.422-62.294-68.678-107.54c1.885-48.847-6.845-114.962-6.845-114.962" fill="#164cce"/><path d="M761.237 491.682l2.27 27.2-20.52 7.88 43.065-5.517-.075-29.563" class="E"/><path d="M762.298 513.99c-1.3.444-.357 1.343-2.54 3.97s-15.087 7.693-21.173 9.526c-5.89 1.772-4.613 6.847-2.61 6.847h31.643c2.324 0 4.014-1.88 5.81-1.88.49 0 1.5-.34 1.78.013.297.576.435 1.22.4 1.867h10.73c1.206 0 1.912-.77 1.83-1.667l-1.153-15.23s-13.1 1.78-16.792.7c-1.5-.437.072-1.575-.552-2.2s-6.072-2.392-7.375-1.945z" class="N"/><path d="M749.517 327.938s-4.416 63.82-4.416 94.448 8.662 86.04 8.662 86.04h35.3s-1.873-94.13 17.875-159.533c7.064-23.4 8.02-33.934 4.938-46.892L767.9 290.627z" fill="#164cce"/><g stroke="#1f38b2" class="B C G"><path d="M760.9 326.126c-13.37 79.278-.187 182.3-.187 182.3M813.6 334.57c-.055 9.848-2.913 14.556-10.507 22.15-5.434 22.9-6.106 43.642-9.733 64.2m2.8-15.516c20.337 41.146 59.625 80.564 59.625 80.564m-69.883-147.595a64.82 64.82 0 0 0 20.407.407"/><path d="M820.833 337.728a24.96 24.96 0 0 0 7.758-.162"/></g><path d="M763.324 207.684s1.188-4.985 1.782-5.58C771.69 198.22 781.92 197 785.298 197l2.11 6.653" class="R"/><path d="M675.7 253.232c-5.78.267-22.65-1.7-23.173-.637s5.4 1.835 4.813 2.63-9.788.225-10.025 1.425c-.322 1.63 9.13 1.7 9.13 1.7s-10.357.432-10.227 1.925c.092 1.058 8.01 1.093 11.033 1.485-3.33-.007-8.73.62-8.612 1.715s5.507 1.223 9.63 1.55c-2.594.037-7.307.36-7.244 1.378s13.145 2.264 25.507 2.958" class="E"/><path d="M673.13 270.682l-6.516-.276 1.642-18.468 6.972-.152m97.275-49.558c.62-.127 7.718-1.126 8.427-1.168 7.366-.422 20.057 4.526 29.573 28.055 12.224 30.217 20.364 98.2 20.364 98.2s-51.55 9.823-87.83 6.593c-2.602-47.38-14.083-122.74 29.467-131.67z" fill="#8aa3f8"/><path d="M753.204 261.32a354.33 354.33 0 0 1 11.313 73.06" class="B G H M"/><path d="M778.25 201.68a52.28 52.28 0 0 0-32.673 15.287c-9.318 9.638-16.328 21.348-23.265 26.9-7.9 6.31-51.076 7.147-51.076 7.147l.292 21.188s42.032 5.644 56.143 1.32 30.255-16.708 30.255-16.708" fill="#8aa3f8"/><path d="M741.82 268.13c7.76-3.515 15.794-10.155 15.794-10.155" class="B G H M"/><path d="M574.074 529.503c-4.08-18.64 4.735-23.293 13.258-27.8 6.965-3.678 13.544-7.15 13.194-18.136-.463-14.564 9.458-19.862 18.2-24.537 6.514-3.478 12.662-6.763 13.58-13.4 2.208-15.944 16.916-35.764 17.063-35.962l.914.683c-.148.194-14.68 19.783-16.848 35.436-1 7.2-7.4 10.62-14.172 14.24-8.875 4.74-18.05 9.64-17.608 23.495.373 11.7-6.833 15.5-13.8 19.18-8.52 4.5-16.57 8.745-12.676 26.538z" fill="#040385"/><path d="M578.552 524.753c-.2 0-.4-.007-.588-.022-3.687-.273-7.3-3.075-11.372-8.813l-.255-.36.285-.338c.066-.08 6.593-8.034 4.2-22.97-.467-2.8-1.104-5.57-1.908-8.292-.876-3.126-1.454-5.2-.486-6.838 1.232-2.09 4.56-3.187 13.93-5.42 9.98-2.377 13.316-13.62 16.26-23.54 2.772-9.343 5.4-18.155 13.164-17.883 7.136.273 17.972-10.91 27.533-20.766 8.873-9.146 17.245-17.762 22.6-17.593a4.27 4.27 0 0 1 3.223 1.6c4.772 5.684.32 14.308-3.985 22.647-3.673 7.113-7.144 13.833-4.912 18.265 2.808 5.568 3.2 10.608 1.137 14.57-2.442 4.69-8.133 7.714-16.92 8.987-8.033 1.166-8.9 9.925-9.82 19.2-1.072 10.824-2.29 23.1-15.767 24.257-10.01.867-16.756 7.893-22.71 14.092-4.736 4.932-8.85 9.217-13.612 9.217zm-10.783-9.15c3.71 5.137 7.074 7.753 10.28 7.99 4.48.332 8.563-3.92 13.292-8.847 6.092-6.344 13-13.535 23.434-14.437 12.534-1.084 13.65-12.345 14.73-23.232.965-9.732 1.876-18.925 10.792-20.217 8.4-1.217 13.808-4.037 16.07-8.384 1.886-3.623 1.492-8.3-1.143-13.53-2.5-4.95 1.1-11.924 4.915-19.3 4.135-8.006 8.41-16.287 4.126-21.4-.58-.735-1.456-1.174-2.392-1.195-4.84-.16-13.05 8.29-21.74 17.247-10.072 10.385-20.483 21.116-28.1 21.118h-.29c-6.886-.256-9.27 7.773-12.03 17.067-3.03 10.217-6.467 21.8-17.1 24.326-8.477 2.02-12.184 3.144-13.2 4.888-.724 1.23-.225 3.007.6 5.952.815 2.764 1.46 5.576 1.935 8.42 2.224 13.87-2.89 21.788-4.178 23.524z" fill="url(#A)"/><path d="M578.97 520.844c-.134 0-.267-.006-.4-.02-6.046-.55-10.7-13.795-15.192-26.6-2.133-6.076-4.146-11.815-6.11-15.5-1.52-2.858-3.456-5.837-5.325-8.72-4.98-7.674-10.13-15.61-8.455-22.572.88-3.664 3.5-6.71 8.037-9.32 9.907-5.71 8.384-8.934 5.045-16-2.45-5.185-5.81-12.286-5.938-23.46l-.266-12.62c-.315-11.778-.473-17.688 2.04-19.827 1.04-.886 2.5-1.113 4.583-.717 3.568.68 5.1 3.56 6.742 6.607 2.083 3.9 4.444 8.3 11.57 9.79 6.687 1.4 13.12 3.307 14.895 7.75 1.25 3.124.067 7.233-3.612 12.562-.8.923-1.142 2.156-.935 3.36.582 2.146 3.913 3.7 7.773 5.5 5.49 2.563 12.322 5.75 14.258 12.352 1.56 5.322-.245 11.96-5.517 20.29-12.47 19.71-11.97 33.08-11.528 44.872.328 8.74.638 16.994-4.632 26.216-2.326 4.075-4.632 6.06-7.035 6.06zm-23.763-154.4a3.06 3.06 0 0 0-2.06.632c-2.1 1.786-1.936 7.875-1.64 18.93l.266 12.635c.127 10.926 3.422 17.9 5.828 22.987 3.313 7.01 5.313 11.24-5.506 17.475-4.24 2.445-6.695 5.258-7.5 8.6-1.56 6.486 3.454 14.212 8.3 21.685 1.884 2.9 3.83 5.9 5.375 8.8 2 3.762 4.03 9.54 6.18 15.657 4.172 11.888 8.9 25.363 14.218 25.847 2.03.18 4.162-1.657 6.342-5.47 5.107-8.94 4.818-16.664 4.483-25.6-.448-11.96-.956-25.514 11.7-45.523 5.085-8.04 6.848-14.373 5.385-19.36-1.8-6.106-8.09-9.045-13.645-11.638-4.116-1.92-7.672-3.58-8.392-6.235-.307-1.528.097-3.113 1.1-4.307 3.446-5 4.588-8.748 3.492-11.49-1.58-3.953-8-5.786-14.068-7.056-7.647-1.6-10.25-6.463-12.343-10.368-1.566-2.924-2.918-5.448-5.95-6.024a8.46 8.46 0 0 0-1.566-.166z" fill="url(#B)"/><path d="M579.087 527.9l-1.087-.343c6.095-19.265-4.93-62.487-8.215-73.006-1.617-5.172-.125-12.96 1.32-20.49 1.866-9.725 3.794-19.782-1.124-23.552-9.234-7.08-8.748-23.46-8.723-24.154l1.14.043c0 .163-.487 16.485 8.278 23.206 5.477 4.2 3.48 14.606 1.55 24.672-1.417 7.39-2.882 15.034-1.354 19.934 4.067 13.013 14.3 54.476 8.215 73.69z" fill="#040385"/><path d="M532.988 402.785c-2.538-6.44-12.448-5.463-11.536 3.643s7.285 18.823-2.427 34.302 12.446 18.52 20.34 28.233 10.626 23.073 17.305 31.574 11.233 28.84 16.7 21.252.323-17.46.93-31.12 12.766-22.31.607-31.114-24.4-11.5-20.374-31.36c1.764-8.76-13.652-5.37-21.544-25.41z" fill="url(#C)"/><path d="M582.214 523.55c-.067-.4-6.82-40.422-21.935-51.39-15.413-11.183-18.214-21.514-23.6-45.876l1.113-.245c5.32 24.06 8.077 34.26 23.155 45.2 15.494 11.24 22.116 50.46 22.4 52.125z" class="D"/><path d="M568.574 522.116s4.492-11.107-3.682-26.9-14.8-13.36 4.913-25.507.124-50.4 16.9-55.26 31.348-66.78 44.1-58.9-4.25 38.248 4.858 47.357 10.325 20.7-8.5 30.085 13.36 45.217-12.144 56.147-18.192 53.8-46.445 32.978z" fill="url(#D)"/><g class="D"><path d="M576.366 533.896c-.03-.142-2.772-14.364 5.894-32.74 8.827-18.72 13.053-39.186 11.3-54.746-.95-8.426 4.45-11.722 9.67-14.91 5.14-3.14 10.455-6.384 10.16-14.686-.263-7.5 2.9-25.082 3.045-25.826l1.124.2c-.034.18-3.29 18.2-3.027 25.582.315 8.97-5.288 12.39-10.71 15.7-5.142 3.14-10 6.106-9.13 13.81 1.773 15.76-2.49 36.456-11.4 55.36-8.495 18.014-5.836 31.89-5.808 32.03z"/><path d="M596.977 455.42c5.727-5.32 13.3-6.086 11.724 1.8s-7 10.146-4.284 15.106 7.215 9.92-.45 16.01-11.952 6.77-14.207 18.27-1.8 19.35-11.725 19.842-6.086-13.98-2.93-20.52a21.69 21.69 0 0 0 1.579-17.259c-3.156-9.8-9.244-15.09 3.608-18.417s12.823-11.246 16.686-14.83z"/></g><path d="M578.752 533.795c-.032-1.406-.715-34.53 5.482-40.107 6.327-5.7 7.543-15.758 7.7-21.25.21-7.156 9.455-11.4 9.848-11.58l.47 1.04c-.1.04-8.988 4.133-9.178 10.574-.2 6.93-1.77 16.385-8.082 22.064-5.8 5.23-5.113 38.894-5.1 39.234z" fill="url(#E)"/><path d="M602.018 520.276l-10.278 39h-22.963l-10.277-39z" fill="#fc5d87"/><path d="M602.02 520.276s-22.624 4.248-22.624 38.99h-10.62l-10.277-38.99z" fill="#fd1453"/></svg>