<svg xmlns="http://www.w3.org/2000/svg" xmlns:xlink="http://www.w3.org/1999/xlink" width="966.515" height="1047.219"><g fill="#5642db"><path d="M698.33 374.33a.11.11 0 0 0-.152.037c-.032.055-.013.126.042.158s.126.013.158-.042c.014-.027.017-.058.008-.087a.11.11 0 0 0-.057-.066zm49.958 110.265a.34.34 0 0 0-.524.29.34.34 0 0 0 .186.296.34.34 0 0 0 .462-.124.34.34 0 0 0-.124-.462zM369.5 222.742c-.055-.03-.124-.013-.16.04-.025.055-.005.12.048.152s.12.016.155-.034c.027-.056.008-.123-.045-.156zm29.897-5.892c-.055-.032-.126-.013-.158.042s-.013.126.042.158.126.013.158-.042.013-.126-.042-.158zm30.326-3.185c-.055-.032-.125-.015-.16.04-.016.027-.02.06-.01.088s.03.055.057.07.057.02.086.012a.11.11 0 0 0 .068-.053.12.12 0 0 0-.04-.154zm30.487-.452a.12.12 0 0 0-.163.036c-.026.037-.03.085-.008.124s.063.063.108.062.085-.028.104-.07c.027-.054.01-.12-.04-.154zm30.57 1.983a.45.45 0 1 0 .161.613.45.45 0 0 0-.161-.614zm30.018 5.087a.34.34 0 1 0 0 .59.34.34 0 0 0 0-.591zm29.502 7.677c-.076-.046-.168-.06-.254-.036s-.16.08-.202.158a.35.35 0 0 0-.035.255c.023.085.08.16.156.205.162.094.37.04.466-.12.045-.078.056-.17.03-.258a.34.34 0 0 0-.16-.203zm28.705 10.275c-.165-.088-.37-.028-.462.135s-.038.363.12.456.37.045.468-.115c.093-.167.037-.378-.127-.475zm27.66 12.82c-.16-.1-.362-.035-.455.123s-.045.37.114.468c.167.093.378.037.475-.127.087-.165.028-.37-.134-.463zm26.4 15.248a.34.34 0 0 0-.464.118c-.047.08-.06.173-.037.262s.08.165.16.2a.34.34 0 0 0 .463-.134c.044-.077.056-.168.033-.253s-.08-.16-.156-.203zM658 283.848c-.08-.045-.174-.057-.262-.033s-.163.083-.2.163a.32.32 0 0 0-.03.258.34.34 0 0 0 .16.203c.077.043.168.058.254.035s.16-.08.202-.158.063-.17.04-.258-.078-.164-.156-.2zm23.25 19.722a.34.34 0 0 0-.464.118c-.1.164-.033.37.128.464.077.044.17.056.255.032a.33.33 0 0 0 .202-.158c.042-.078.06-.168.036-.254a.33.33 0 0 0-.157-.202zm21.4 21.7a.341.341 0 1 0-.341.591.341.341 0 1 0 .341-.591zm19.53 23.254a.68.68 0 0 0-.925.251.68.68 0 0 0 .248.926.68.68 0 0 0 .927-.245.69.69 0 0 0-.25-.932z"/><circle cx=".45" cy=".45" r=".45" transform="matrix(-.866025 -.5 .5 -.866025 739.188 374.933)"/><path d="M754.214 400.36a.68.68 0 1 0 .248.925.68.68 0 0 0-.248-.925zm12.234 28.14c-.12-.073-.27-.067-.383.015s-.164.225-.13.36.147.237.285.256.274-.047.344-.168c.047-.077.06-.17.04-.256a.33.33 0 0 0-.156-.207zm10.075 28.466a.792.792 0 1 0-.787 1.374.79.79 0 0 0 1.081-.293c.217-.38.086-.864-.293-1.082zm7.234 29.622a.79.79 0 1 0 .287 1.084.8.8 0 0 0-.287-1.083zm4.317 30.542a.33.33 0 0 0-.258-.04c-.088.023-.164.078-.2.156a.34.34 0 0 0 .132.467c.077.045.17.056.254.032s.158-.082.2-.16.06-.166.037-.252-.08-.158-.156-.2zm2.04 30.035a.792.792 0 1 0-.787 1.374.79.79 0 1 0 .787-1.375zm-1.128 30.865a.35.35 0 0 0-.471.13.34.34 0 0 0 .131.46c.077.045.168.058.254.036s.16-.078.205-.155c.096-.163.043-.373-.12-.47zm-3.48 29.978c-.326-.182-.738-.066-.92.26s-.067.737.258.92.737.07.92-.255c.1-.157.113-.343.064-.517s-.165-.32-.323-.408zM779 638.122a.34.34 0 0 0-.462.124.34.34 0 0 0 .124.462.34.34 0 0 0 .462-.124.34.34 0 0 0-.124-.462zm-9.094 29.328c-.055-.032-.126-.013-.158.042s-.013.126.042.158c.027.014.058.017.087.008a.11.11 0 0 0 .066-.057.11.11 0 0 0-.037-.152zM665.834 815.287c-.025-.015-.054-.02-.082-.012s-.05.026-.065.05c-.033.053-.018.122.035.156s.13.015.166-.04c.028-.057.005-.127-.053-.155z"/><use xlink:href="#B"/><path d="M142.673 340.196c-.027-.016-.06-.02-.1-.013s-.056.028-.07.056a.11.11 0 0 0 .191.111.12.12 0 0 0-.03-.154zm18.35-24.348c-.055-.027-.12-.01-.154.04-.016.026-.02.058-.014.087s.026.055.053.07a.11.11 0 0 0 .153-.049c.028-.053.012-.118-.037-.152zm20.28-22.766c-.053-.033-.122-.018-.156.035-.017.027-.022.06-.014.1s.03.056.057.07.058.018.088.01.054-.03.07-.056c.026-.054.007-.12-.044-.15zm22.065-21.042a.11.11 0 0 0-.09-.01c-.03.01-.055.03-.07.06-.03.054-.013.123.04.154s.123.013.154-.04c.018-.026.024-.06.017-.1s-.026-.058-.054-.074zm23.71-19.17c-.055-.03-.124-.014-.16.04-.028.055-.007.123.048.153s.12.014.152-.037.01-.122-.04-.154zm25.2-17.178c-.055-.028-.122-.008-.152.047s-.01.122.044.152.122.01.153-.042.01-.126-.046-.157zm26.498-15.062c-.052-.03-.118-.012-.148.04s-.012.118.04.148.118.012.148-.04.012-.118-.04-.148zm27.66-12.858a.12.12 0 0 0-.154.04c-.016.026-.02.058-.014.087s.026.055.053.07.06.02.088.01.055-.03.07-.057c.03-.054.012-.123-.04-.154zm28.886-11.044a.68.68 0 0 0-.928.246.68.68 0 0 0 .245.928.68.68 0 0 0 .928-.245.68.68 0 0 0-.245-.929zm29.088-7.708c-.055-.032-.125-.013-.157.042s-.013.125.042.157a.11.11 0 0 0 .15-.044c.016-.025.022-.056.015-.085s-.025-.055-.05-.07zm30.112-6.06c-.14-.1-.32-.096-.466-.015s-.236.237-.233.404.097.32.246.396c.215.1.48.034.6-.176s.056-.478-.148-.6zm30.416-3.5a.67.67 0 0 0-.92.239.68.68 0 0 0 .245.929.67.67 0 0 0 .923-.255c.1-.154.114-.337.068-.5s-.16-.318-.316-.405zm30.474-.83a.67.67 0 0 0-.92.244c-.186.322-.078.734.243.92s.734.08.922-.243c.1-.155.115-.34.07-.512a.67.67 0 0 0-.313-.41z"/><circle cx=".453" cy=".453" r=".453" transform="matrix(-.866025 -.5 .5 -.866025 485.676 181.488)"/><path d="M516.278 184.028a1.12 1.12 0 0 0-.853-.115 1.11 1.11 0 0 0-.68.526 1.13 1.13 0 1 0 1.534-.411zm29.772 6.572a1.12 1.12 0 0 0-.85-.117 1.11 1.11 0 0 0-.68.524c-.154.26-.2.568-.123.86s.264.54.524.692a1.14 1.14 0 0 0 1.555-.422c.148-.26.186-.568.107-.856s-.27-.533-.53-.68zm29.255 8.802c-.475-.275-1.07-.237-1.505.098s-.627.9-.483 1.43a1.36 1.36 0 0 0 1.137.992c.545.07 1.078-.196 1.35-.673.37-.647.148-1.473-.498-1.845zm28.13 11.624c-.486-.278-1.105-.1-1.384.377s-.1 1.105.375 1.384 1.105.113 1.385-.372a1.01 1.01 0 0 0 .1-.773c-.072-.26-.242-.483-.477-.616zm27.35 13.497c-.542-.313-1.235-.127-1.548.415s-.127 1.235.415 1.548 1.235.127 1.548-.415a1.13 1.13 0 0 0-.415-1.548zm26.03 15.885a1.02 1.02 0 0 0-1.389.374 1.02 1.02 0 0 0 .372 1.39 1.02 1.02 0 0 0 1.39-.371 1.01 1.01 0 0 0-.373-1.393zm24.77 17.75c-.542-.313-1.235-.127-1.548.415s-.127 1.235.415 1.548c.35.202.782.202 1.133 0s.566-.576.567-.98a1.13 1.13 0 0 0-.566-.98zm23.465 19.33c-.594-.344-1.336-.296-1.88.12s-.784 1.122-.607 1.784.737 1.153 1.417 1.242 1.347-.24 1.7-.836a1.69 1.69 0 0 0-.62-2.31zm21.653 21.335a2.031 2.031 0 1 0-2.029 3.519 2.03 2.03 0 0 0 2.774-.739 2.04 2.04 0 0 0-.745-2.78zm19.65 23.308a2.04 2.04 0 1 0 .749 2.783c.558-.976.223-2.22-.75-2.782zm17.236 25.62a1.13 1.13 0 1 0 .385 1.527 1.13 1.13 0 0 0-.385-1.528zm15.772 25.904a1.47 1.47 0 1 0 .534 2.006c.196-.337.25-.738.15-1.114a1.46 1.46 0 0 0-.684-.892zm13.368 27.48a1.36 1.36 0 1 0 .493 1.854c.37-.65.15-1.475-.493-1.854zm11.128 28.38c-.475-.275-1.07-.237-1.504.097a1.36 1.36 0 0 0-.485 1.427 1.37 1.37 0 0 0 1.134.994 1.36 1.36 0 0 0 1.35-.668 1.35 1.35 0 0 0-.496-1.85zm8.85 29.1a1.47 1.47 0 1 0 .536 2.003c.195-.337.248-.737.147-1.113s-.347-.696-.684-.9zm6.154 30.206a1.02 1.02 0 1 0 .369 1.391 1.02 1.02 0 0 0-.369-1.391zm3.93 30.24c-.355-.207-.8-.18-1.127.07s-.472.67-.366 1.068.44.692.847.746.807-.143 1.013-.5a1.02 1.02 0 0 0-.367-1.384zm1.617 30.155c-.65-.373-1.478-.15-1.85.5s-.15 1.478.5 1.85 1.478.15 1.85-.5a1.36 1.36 0 0 0-.5-1.852zm-1.152 30.672a1.13 1.13 0 0 0-1.537.417 1.13 1.13 0 0 0 .412 1.539 1.13 1.13 0 0 0 1.54-.408c.312-.542.127-1.234-.415-1.548zm-3.57 30.383a1.02 1.02 0 1 0 .364 1.388 1.02 1.02 0 0 0-.365-1.388zm-6.095 30.095a.79.79 0 1 0 .373.48.79.79 0 0 0-.373-.48zm-8.387 29.32a.79.79 0 0 0-1.085.28.8.8 0 0 0 .295 1.088.79.79 0 0 0 1.082-.293.78.78 0 0 0-.292-1.075zm-10.8 28.622c-.323-.18-.73-.068-.915.253s-.074.73.246.917.73.08.92-.238a.67.67 0 0 0 .07-.518.68.68 0 0 0-.32-.413zm-13.158 27.754a.451.451 0 1 0-.439.788.45.45 0 1 0 .44-.788zm-15.298 26.5a.341.341 0 1 0-.341.591.341.341 0 1 0 .341-.591z"/><use xlink:href="#C"/><path d="M729.153 801.413a.1.1 0 0 0-.15.044c-.017.025-.022.056-.016.085s.025.055.05.07c.055.028.123.007.153-.048.016-.025.02-.055.014-.084s-.026-.053-.05-.068zm-21.197 21.922c-.054-.03-.122-.01-.154.04s-.01.12.04.154c.026.016.058.02.087.014s.055-.026.07-.053.02-.06.01-.088-.03-.055-.057-.07zm-22.9 20.125c-.026-.016-.058-.02-.087-.014s-.055.026-.07.053c-.032.055-.013.126.042.158s.126.013.158-.042.012-.123-.04-.154zm-105.593 60c-.026-.016-.057-.02-.086-.013s-.054.028-.068.055a.11.11 0 0 0 .044.15.1.1 0 0 0 .148-.04.1.1 0 0 0-.037-.152z"/><use xlink:href="#C" x="-648.188" y="-356.799"/><path d="M112.206 392.968c-.025-.02-.058-.025-.088-.017s-.056.028-.07.056c-.024.034-.027.08-.007.117s.06.06.1.06.08-.026.097-.065c.016-.024.022-.053.015-.082s-.024-.053-.048-.068zm.942-69.818a.11.11 0 0 0-.15.044c-.03.052-.012.117.04.148.034.024.08.027.117.007s.06-.06.06-.1-.026-.08-.065-.097zm18.116-24.53c-.034-.024-.08-.027-.117-.007s-.06.06-.06.1.026.08.065.097a.1.1 0 0 0 .141-.044.1.1 0 0 0-.03-.148zm19.89-23.113c-.036-.02-.08-.02-.115 0s-.058.06-.058.1.022.08.057.1c.027.014.058.017.087.008a.11.11 0 0 0 .066-.057.11.11 0 0 0-.038-.151zm21.552-21.567c-.056-.026-.122-.005-.153.048s-.01.116.04.148a.12.12 0 0 0 .16-.032.12.12 0 0 0-.048-.164zm23.115-19.888c-.026-.015-.058-.018-.087-.01s-.053.03-.066.057-.02.055-.014.084.026.053.05.068.057.02.086.013.054-.028.068-.055a.11.11 0 0 0-.039-.159zm24.53-18.1c-.025-.013-.055-.015-.082-.006s-.05.028-.062.054a.11.11 0 0 0 .028.152c.027.016.06.02.1.013s.056-.028.07-.056.02-.06.01-.088-.03-.055-.057-.07zm25.818-16.215c-.027-.015-.058-.018-.088-.01s-.054.03-.07.056c-.025.053-.004.116.048.143.05.033.117.02.152-.028.016-.027.02-.06.013-.1s-.028-.056-.056-.07zm27.07-14.445a.34.34 0 0 0-.458.134.34.34 0 0 0 .13.459.34.34 0 0 0 .46-.127c.045-.08.056-.173.03-.26a.35.35 0 0 0-.163-.206zm28.013-12.3c-.158-.098-.36-.1-.5.02s-.22.3-.174.48.195.315.38.34.365-.063.458-.223a.45.45 0 0 0 .052-.34c-.028-.116-.103-.215-.205-.276zm28.942-10.367a.79.79 0 1 0-.789 1.367.79.79 0 1 0 .789-1.367zm29.457-7.9c-.278-.163-.626-.142-.883.053s-.37.525-.288.836.344.542.664.585.632-.112.794-.4c.22-.378.1-.863-.287-1.083zm29.902-5.57a.68.68 0 0 0-.928.246.68.68 0 1 0 1.243.168.68.68 0 0 0-.315-.414zm30.303-3.41a.68.68 0 0 0-.933.243.68.68 0 0 0 .244.927.68.68 0 0 0 .928-.241.68.68 0 0 0-.239-.929zm31.313-2.61a2.371 2.371 0 1 0 .872 3.238c.653-1.135.263-2.585-.87-3.24zm30.127 1.718a1.7 1.7 0 1 0 .622 2.322 1.69 1.69 0 0 0-.622-2.322zm29.97 4.005a1.02 1.02 0 1 0 .365 1.388 1.02 1.02 0 0 0-.365-1.388zm30.184 5.28a1.47 1.47 0 1 0 .534 2.007c.404-.702.165-1.6-.534-2.007zm29.622 7.598a1.81 1.81 0 1 0 .662 2.472 1.81 1.81 0 0 0-.663-2.473zm28.775 10.066a1.81 1.81 0 1 0 .667 2.475c.24-.416.307-.912.18-1.376a1.82 1.82 0 0 0-.848-1.1zm27.726 12.586c-.648-.375-1.477-.154-1.853.493s-.155 1.477.493 1.853 1.477.155 1.853-.492a1.36 1.36 0 0 0 .138-1.03 1.35 1.35 0 0 0-.63-.825zm26.954 14.25a1.36 1.36 0 1 0 .499 1.852 1.36 1.36 0 0 0-.5-1.852zm26.16 15.65c-.713-.4-1.602-.35-2.254.15a2.03 2.03 0 0 0-.724 2.14c.214.794.885 1.38 1.7 1.487s1.615-.3 2.025-1.002a2.03 2.03 0 0 0-.747-2.776zm24.364 18.383a1.7 1.7 0 1 0 .622 2.322 1.7 1.7 0 0 0-.622-2.322zm23.338 19.5a2.15 2.15 0 1 0 .782 2.931 2.14 2.14 0 0 0-.783-2.932zm21.955 20.876a2.94 2.94 0 1 0 1.076 4.012c.4-.675.496-1.477.294-2.23s-.695-1.394-1.37-1.783zm19.834 23.208a2.83 2.83 0 1 0 1.034 3.859c.375-.65.477-1.42.283-2.144s-.668-1.34-1.317-1.715zm17.705 25.22c-.972-.56-2.215-.226-2.776.746s-.228 2.215.744 2.776 2.215.23 2.777-.742a2.03 2.03 0 0 0-.745-2.78zm16.68 25.03c-1.408-.813-3.208-.33-4.02 1.077s-.33 3.208 1.077 4.02 3.208.33 4.02-1.077.33-3.207-1.077-4.02zm13.794 27.746c-.713-.412-1.603-.353-2.256.148s-.94 1.346-.727 2.14.884 1.383 1.7 1.5 1.616-.287 2.028-1c.27-.467.343-1.023.204-1.544a2.03 2.03 0 0 0-.95-1.236zm12.422 27.555a2.49 2.49 0 0 0-3.652 2.793c.258.973 1.08 1.692 2.077 1.824a2.49 2.49 0 0 0 2.48-1.222c.33-.57.42-1.248.25-1.885a2.44 2.44 0 0 0-1.156-1.5z"/><circle cx="2.146" cy="2.146" r="2.146" transform="matrix(-.866025 -.5 .5 -.866025 840.388 435.683)"/><path d="M848.392 460.634a1.81 1.81 0 0 0-2.463.677 1.81 1.81 0 0 0 .675 2.463 1.81 1.81 0 0 0 2.464-.672 1.8 1.8 0 0 0-.676-2.469zm5.338 30.55a1.13 1.13 0 1 0 .411 1.545c.3-.54.127-1.23-.4-1.545zm3.526 30.11c-.65-.373-1.478-.15-1.85.5s-.15 1.478.5 1.85 1.478.15 1.85-.5c.18-.312.228-.682.134-1.03s-.322-.643-.634-.822zm1.03 30.667a1.13 1.13 0 1 0 .406 1.542 1.13 1.13 0 0 0-.406-1.543zm-1.14 30.468a1.13 1.13 0 1 0 .413 1.541 1.13 1.13 0 0 0-.413-1.541zm-3.475 30.395c-.485-.28-1.106-.114-1.387.372s-.114 1.106.372 1.387 1.106.114 1.387-.372.114-1.106-.372-1.387zm-5.618 29.857a1.131 1.131 0 0 0-1.124 1.963 1.13 1.13 0 0 0 1.543-.413c.153-.26.195-.572.116-.863s-.272-.54-.535-.687zm-7.888 29.456a1.13 1.13 0 1 0 .53.685 1.13 1.13 0 0 0-.529-.685zm-10.122 28.884a1.02 1.02 0 1 0 .371 1.387c.135-.233.17-.5.102-.77a.98.98 0 0 0-.473-.616zm-12.197 27.94a1.02 1.02 0 1 0 .369 1.391 1.02 1.02 0 0 0-.369-1.391zm-14.41 27.257a.68.68 0 0 0-1.017.586c-.002.242.13.465.338.586.324.187.738.076.925-.248s.076-.738-.248-.925zm-16.34 26.008c-.16-.093-.358-.08-.505.03s-.2.3-.163.48a.45.45 0 0 0 .38.333c.182.023.36-.066.452-.226a.45.45 0 0 0-.165-.616zm-18.103 24.535c-.14-.1-.32-.096-.466-.015s-.236.237-.233.404.097.32.246.396c.14.1.32.096.466.015s.236-.237.233-.404-.097-.32-.246-.396zm-19.953 23.2a.33.33 0 0 0-.257-.036c-.087.024-.16.08-.205.16a.34.34 0 0 0 .124.462c.163.092.37.038.466-.12a.34.34 0 0 0-.128-.464zm-21.667 21.758c-.025-.017-.056-.022-.085-.016s-.055.025-.07.05-.02.06-.013.1.028.056.056.07c.057.032.128.013.16-.043s.007-.123-.048-.153zm-23.115 19.887c-.052-.03-.12-.014-.152.037s-.016.127.036.163c.06.03.13.008.164-.048.026-.056.005-.122-.048-.153z"/><use xlink:href="#D"/><path d="M653.912 905.944c-.055-.032-.126-.013-.158.042s-.013.126.042.158.126.013.158-.042.013-.126-.042-.158zm-26.962 14.25a.11.11 0 0 0-.111.191c.025.013.055.015.082.006s.05-.028.062-.054a.1.1 0 0 0-.033-.144zm-27.948 12.193c-.034-.024-.08-.027-.117-.007s-.06.06-.06.1.026.08.065.097a.11.11 0 0 0 .111-.191zm-28.782 10.067a.1.1 0 0 0-.141.044.1.1 0 0 0 .028.152c.027.016.06.02.1.013s.056-.028.07-.056c.028-.055.007-.123-.048-.153zm-29.447 7.89c-.036-.02-.08-.02-.115 0a.12.12 0 0 0-.058.1c-.001.04.022.08.057.1.054.022.116.001.145-.05s.016-.115-.03-.15zm-29.96 5.672c-.053-.03-.12-.014-.156.035-.032.057-.013.128.043.16.027.015.058.018.088.01s.054-.03.07-.056c.026-.054.007-.12-.044-.15z"/><use xlink:href="#B" x="354.154" y="593.47"/><path d="M450.038 960.568c-.025-.015-.056-.02-.085-.01a.11.11 0 0 0-.065.054.11.11 0 0 0 .037.152c.026.016.058.02.087.014s.055-.026.07-.053.02-.06.01-.088-.03-.055-.057-.07zm-60.768-4.553c-.054-.03-.123-.012-.154.04-.015.025-.02.056-.01.085a.11.11 0 0 0 .054.065.1.1 0 0 0 .148-.04.11.11 0 0 0-.037-.152zM70.498 403.87c-.027-.017-.06-.022-.1-.014s-.056.03-.07.057-.022.06-.014.1.03.055.06.068a.1.1 0 0 0 .143-.048.11.11 0 0 0-.028-.152zm12.182-27.945c-.052-.03-.117-.012-.148.04s-.018.122.035.156c.027.016.06.02.1.013s.056-.028.07-.056.017-.058.008-.087a.11.11 0 0 0-.057-.066zm-15.178-43.95a.11.11 0 0 0-.15.044c-.016.025-.02.055-.014.084s.026.053.05.068.058.022.088.015.056-.027.07-.054.018-.058.01-.088-.03-.054-.056-.07zm16.155-25.86c-.025-.015-.054-.02-.082-.012s-.05.026-.065.05-.024.056-.017.086.025.055.052.07.058.018.088.01.054-.03.07-.056c.028-.054.01-.12-.044-.15zm17.885-24.7a.1.1 0 0 0-.141.044.11.11 0 0 0 .03.148c.026.016.058.02.087.014s.055-.026.07-.053a.11.11 0 0 0-.049-.153zm19.672-23.596c-.16-.1-.366-.035-.458.126-.046.077-.06.17-.037.255s.08.16.157.205c.163.097.373.043.47-.12a.35.35 0 0 0-.132-.467zm21.13-22a.34.34 0 0 0-.46.131c-.045.077-.058.168-.036.254s.078.16.155.205c.162.1.367.036.462-.124s.038-.37-.12-.466zm22.586-20.483a.35.35 0 0 0-.464.128c-.044.077-.056.17-.032.255s.08.16.158.203a.34.34 0 0 0 .468-.115c.1-.167.032-.374-.13-.47zm23.945-18.877a.341.341 0 0 0-.341.591.34.34 0 0 0 .341-.59zm25.085-16.975c-.026-.016-.057-.02-.086-.012a.11.11 0 0 0-.068.053c-.014.026-.02.056-.01.085a.11.11 0 0 0 .054.065c.026.013.054.02.082.012s.05-.026.065-.05a.11.11 0 0 0-.037-.152zm26.438-15.595c-.08-.047-.173-.06-.262-.037s-.165.08-.2.16c-.1.166-.033.375.13.47s.37.033.464-.128a.34.34 0 0 0-.121-.466zm27.482-13.84a.68.68 0 0 0-.922.253.68.68 0 0 0 .25.923c.323.186.737.075.923-.25a.68.68 0 0 0-.252-.927zm28.186-11.63a.68.68 0 0 0-.925.251.68.68 0 0 0 .248.926.68.68 0 0 0 .927-.245c.186-.327.075-.742-.25-.932zm28.977-9.75a.792.792 0 1 0-.79 1.373.79.79 0 1 0 .79-1.372zm29.464-7.547a.68.68 0 0 0-.927.252.68.68 0 0 0 .262.909.68.68 0 0 0 .918-.227c.1-.157.114-.344.067-.52a.68.68 0 0 0-.32-.414zm30.378-6.265a1.471 1.471 0 0 0-1.471 2.548 1.47 1.47 0 0 0 2.159-1.655 1.46 1.46 0 0 0-.688-.892zm30.627-4.08c-1.028-.6-2.34-.234-2.928.794a2.15 2.15 0 0 0 .792 2.93 2.14 2.14 0 0 0 3.143-2.43 2.13 2.13 0 0 0-1.006-1.3zm31.26-2.77a3.73 3.73 0 1 0 1.364 5.092 3.73 3.73 0 0 0-1.364-5.092zm30.475.7c-1.785-1.03-4.067-.42-5.098 1.366a3.73 3.73 0 1 0 6.464 3.732c1.03-1.786.418-4.067-1.366-5.098zM507 112.604a2.49 2.49 0 0 0-3.395.916 2.49 2.49 0 0 0 .913 3.395 2.49 2.49 0 0 0 3.396-.911c.33-.572.42-1.252.25-1.9a2.44 2.44 0 0 0-1.164-1.5zm30.157 4.79a2.6 2.6 0 1 0 .952 3.552 2.6 2.6 0 0 0-.952-3.552zm29.46 7.34a2.151 2.151 0 1 0-2.147 3.728 2.15 2.15 0 1 0 2.146-3.728zm28.804 9.58a1.48 1.48 0 0 0-1.637.1c-.475.36-.684.975-.53 1.552s.64 1.004 1.232 1.082 1.172-.2 1.47-.727a1.47 1.47 0 0 0-.535-2.007zm28.893 10.196a2.371 2.371 0 1 0 1.114 1.441 2.37 2.37 0 0 0-1.114-1.441zm27.347 13.404a1.81 1.81 0 1 0 .844 1.099 1.81 1.81 0 0 0-.844-1.099zm26.663 14.782a1.81 1.81 0 1 0 .848 1.099 1.81 1.81 0 0 0-.848-1.099zM704.18 188.8c-1.137-.654-2.588-.264-3.244.872s-.266 2.588.87 3.244 2.588.268 3.245-.867.265-2.6-.87-3.25zm24.658 17.832a2.94 2.94 0 1 0 1.37 1.786 2.94 2.94 0 0 0-1.37-1.786zm22.83 20.352a2.49 2.49 0 0 0-3.39.924 2.49 2.49 0 0 0 .918 3.392 2.49 2.49 0 0 0 3.394-.912c.685-1.194.273-2.718-.922-3.404zM774.03 247.2a3.96 3.96 0 1 0 1.44 5.401 3.96 3.96 0 0 0-1.44-5.402zm20.536 22.168a4.86 4.86 0 1 0 1.782 6.636 4.85 4.85 0 0 0-1.782-6.636zm18.004 25.047a3.96 3.96 0 0 0-5.406 1.447 3.96 3.96 0 1 0 7.25.959 3.96 3.96 0 0 0-1.844-2.406zm16.738 25.493c-1.892-1.086-4.307-.434-5.395 1.458s-.437 4.306 1.453 5.396 4.306.44 5.397-1.45a3.95 3.95 0 0 0-1.456-5.405zm15.17 26.185a4.41 4.41 0 1 0 1.623 6.018 4.41 4.41 0 0 0-1.623-6.018zm13.584 26.667a5.43 5.43 0 0 0-7.409 1.992 5.43 5.43 0 1 0 9.943 1.307 5.43 5.43 0 0 0-2.534-3.299zm9.894 30.546c-1.405-.8-3.2-.326-4.008 1.078s-.327 3.2 1.078 4.008 3.2.327 4.008-1.077a2.94 2.94 0 0 0-1.078-4.009zm9.16 29.08a2.94 2.94 0 1 0 1.069 4.016c.8-1.404.332-3.2-1.07-4.015zm6.842 30.144c-1.134-.658-2.587-.272-3.245.862s-.272 2.587.862 3.245 2.587.272 3.245-.862.272-2.586-.862-3.245zm4.946 30.256a2.151 2.151 0 1 0 .788 2.941c.593-1.03.24-2.346-.788-2.94zm2.986 30.35a2.15 2.15 0 1 0 .78 2.936 2.16 2.16 0 0 0-.779-2.936zm1.043 30.188c-.872-.503-1.96-.432-2.758.182a2.49 2.49 0 0 0-.887 2.618c.26.97 1.083 1.7 2.08 1.82s1.976-.355 2.477-1.227a2.48 2.48 0 0 0 .247-1.886c-.17-.636-.588-1.18-1.16-1.507zm-1.628 31.15c-.8-.465-1.845-.186-2.312.624s-.2 1.845.62 2.313 1.845.193 2.314-.615a1.7 1.7 0 0 0-.622-2.322z"/><circle cx="1.131" cy="1.131" r="1.131" transform="matrix(-.866025 -.5 .5 -.866025 887.548 617.797)"/><path d="M882.395 645.087c-.65-.37-1.48-.145-1.85.506s-.145 1.48.506 1.85 1.48.145 1.85-.506a1.35 1.35 0 0 0-.506-1.85zm-7.455 29.563a1.36 1.36 0 1 0 .489 1.852 1.36 1.36 0 0 0 .14-1.027c-.1-.347-.317-.644-.628-.824zm-9.5 28.977a1.36 1.36 0 0 0-1.85.504c-.373.65-.147 1.477.502 1.85s1.477.15 1.85-.5c.18-.312.23-.684.135-1.032s-.324-.644-.638-.822zm-11.57 28.456a1.13 1.13 0 0 0-1.541.413 1.13 1.13 0 0 0 .413 1.541 1.13 1.13 0 0 0 1.541-.413 1.13 1.13 0 0 0-.413-1.541zm-13.62 27.787a.68.68 0 0 0-.752.044c-.22.164-.315.447-.245.712s.293.462.565.498.54-.095.676-.333a.68.68 0 0 0-.243-.922zm-15.075 26.114c-.486-.277-1.104-.1-1.383.375s-.113 1.104.37 1.384 1.103.117 1.385-.366a1.01 1.01 0 0 0-.373-1.393zm-17.025 25.3a1.02 1.02 0 1 0 .369 1.39 1.02 1.02 0 0 0-.369-1.391zm-19.033 24.544a.451.451 0 1 0 .172.614c.06-.104.076-.228.043-.343s-.1-.213-.215-.27zm-20.23 22.516a.68.68 0 1 0 .246.918c.185-.32.075-.732-.246-.918zm-22 21.442a.45.45 0 0 0-.61.173.45.45 0 0 0 .171.611.45.45 0 0 0 .611-.169.45.45 0 0 0-.172-.614zm-23.448 20c-.052-.027-.117-.007-.145.045s-.01.117.043.145.117.01.146-.04c.015-.025.02-.056.01-.085a.11.11 0 0 0-.054-.065zM698.864 917.8c-.056-.026-.122-.005-.153.048a.11.11 0 0 0 .037.152c.026.017.058.022.088.015s.056-.027.07-.054c.032-.057.013-.128-.043-.16zm-25.657 16.093a.341.341 0 1 0 .125.468c.094-.164.038-.373-.126-.47zm-26.832 14.485a.341.341 0 1 0-.341.591.341.341 0 1 0 .341-.591zm-27.72 12.494c-.215-.1-.48-.034-.6.176s-.056.478.148.6c.215.1.48.034.6-.176s.056-.478-.148-.6zm-28.623 10.75a.35.35 0 0 0-.47.126c-.1.163-.03.368.13.46.077.044.168.056.253.033s.16-.08.203-.156a.34.34 0 0 0-.118-.464zm-29.24 8.65a.34.34 0 0 0-.469.126c-.1.162-.033.366.128.458a.34.34 0 0 0 .46-.123c.094-.16.04-.366-.12-.46zm-29.765 6.61c-.16-.093-.367-.038-.46.122s-.04.367.12.46a.34.34 0 0 0 .462-.118.34.34 0 0 0-.121-.466zm-30.265 4.736a.12.12 0 0 0-.158.047c-.015.025-.02.056-.01.085a.11.11 0 0 0 .054.065c.053.033.122.018.156-.035s.01-.127-.042-.163zm-30.402 2.463c-.025-.016-.055-.02-.084-.014s-.053.026-.068.05-.02.057-.012.086a.11.11 0 0 0 .053.068c.026.014.058.02.087.014s.055-.026.07-.053a.11.11 0 0 0-.049-.153zm-30.486.347c-.027-.015-.058-.018-.088-.01s-.054.03-.07.056a.11.11 0 0 0 .044.15c.025.017.056.022.085.016s.055-.025.07-.05.02-.06.013-.1-.028-.056-.056-.07zm-30.444-1.755a.12.12 0 0 0-.154.04c-.034.05-.012.123.04.154.026.016.057.02.086.012a.11.11 0 0 0 .068-.053c.03-.054.012-.123-.04-.154zM21.778 444.657c-.055-.032-.125-.015-.16.04-.025.055-.005.12.048.152s.12.016.155-.034c.03-.056.01-.125-.045-.156zm8.482-29.3a.1.1 0 0 0-.143.048.1.1 0 0 0 .033.144c.025.016.055.02.084.014s.053-.026.068-.05.02-.057.013-.086-.028-.054-.055-.068zm10.482-28.633c-.053-.025-.116-.004-.143.048s-.02.116.028.152c.027.015.058.018.088.01s.054-.03.07-.056.02-.057.012-.086a.11.11 0 0 0-.053-.068zm12.442-27.838c-.026-.016-.058-.02-.087-.01s-.053.03-.065.06-.02.055-.014.084.026.053.05.068c.054.03.123.012.154-.04.017-.026.022-.058.015-.088s-.027-.056-.054-.07zM38.2 314.8c-.162-.1-.367-.036-.462.124-.072.12-.063.27.02.383a.34.34 0 0 0 .362.124c.134-.036.234-.15.252-.3a.34.34 0 0 0-.173-.342zm16.094-25.903a.34.34 0 1 0 .125.466.34.34 0 0 0-.125-.466zm17.703-24.817a.34.34 0 0 0-.462.124.34.34 0 0 0 .124.462.34.34 0 0 0 .462-.124.34.34 0 0 0-.124-.462zm19.33-23.74c-.215-.1-.48-.034-.6.176s-.056.478.148.6c.215.1.48.034.6-.176s.056-.478-.148-.6zm20.738-22.352c-.16-.093-.358-.08-.505.03s-.2.3-.163.48a.45.45 0 0 0 .38.333c.182.023.36-.066.452-.226.123-.216.05-.5-.165-.616zm22.41-21.456c-.355-.207-.8-.18-1.127.07s-.472.67-.366 1.068.44.692.847.746.807-.143 1.013-.5a1.01 1.01 0 0 0-.367-1.384zm23.598-19.822c-.648-.372-1.476-.15-1.85.498s-.153 1.475.493 1.85 1.475.157 1.852-.488a1.36 1.36 0 0 0-.495-1.86zm24.126-17.096c-.164-.1-.37-.034-.464.128a.34.34 0 0 0 .124.462.34.34 0 0 0 .462-.124c.094-.163.04-.37-.122-.467zm25.732-16.36a.34.34 0 0 0-.257-.035c-.087.023-.16.08-.205.158a.34.34 0 0 0 .124.462.34.34 0 0 0 .462-.124c.046-.077.06-.17.036-.258s-.08-.16-.16-.205zm26.894-14.975a.68.68 0 0 0-.926.252.68.68 0 1 0 1.245.159.68.68 0 0 0-.319-.411zm27.494-12.733c-.215-.118-.484-.04-.604.174s-.044.484.17.605.484.047.606-.165a.45.45 0 0 0 .045-.344c-.032-.116-.1-.214-.216-.27zm28.507-11.343a.682.682 0 1 0-.682 1.181.682.682 0 1 0 .682-1.181zm29.435-9.98a1.47 1.47 0 0 0-2.007.532 1.47 1.47 0 0 0 .531 2.008 1.47 1.47 0 0 0 2.008-.529 1.47 1.47 0 0 0-.532-2.01zm29.865-7.908a2.04 2.04 0 1 0 .741 2.777 2.04 2.04 0 0 0-.741-2.777zm29.703-5.023a1.471 1.471 0 0 0-1.471 2.548 1.471 1.471 0 0 0 1.471-2.548zm30.735-4.354a2.371 2.371 0 1 0 .872 3.238c.653-1.135.263-2.584-.87-3.24zm30.9-2.413c-1.568-.902-3.57-.363-4.472 1.204s-.365 3.57 1.202 4.473a3.28 3.28 0 0 0 4.474-1.2c.904-1.566.363-3.572-1.203-4.478zm31.113-.753a4.52 4.52 0 0 0-6.174 1.66c-1.246 2.163-.504 4.928 1.658 6.175s4.927.506 6.176-1.656a4.52 4.52 0 0 0-1.659-6.18zm29.794 3.356a3.28 3.28 0 1 0 1.199 4.475c.9-1.568.364-3.568-1.2-4.475zm30.986 2.852a4.86 4.86 0 1 0 1.778 6.64 4.86 4.86 0 0 0-1.778-6.64zm29.87 6.15c-1.703-.984-3.832-.845-5.393.352a4.86 4.86 0 0 0-1.737 5.118c.5 1.9 2.114 3.306 4.064 3.563a4.86 4.86 0 0 0 5.333-6.083c-.333-1.247-1.15-2.307-2.267-2.95zm28.448 9.708a2.94 2.94 0 0 0-3.264.21c-.944.725-1.362 1.946-1.055 3.096s1.277 2.002 2.458 2.158a2.94 2.94 0 0 0 2.934-1.446 2.95 2.95 0 0 0-1.073-4.018zm28.943 9.728a3.16 3.16 0 0 0-3.508.235c-1.014.78-1.46 2.095-1.126 3.33s1.378 2.15 2.647 2.314 2.513-.45 3.15-1.56a3.16 3.16 0 0 0-1.164-4.32zm28.428 11.254a3.73 3.73 0 1 0 1.365 5.093c.495-.856.63-1.874.373-2.83s-.88-1.77-1.737-2.264zm26.767 14.496a2.6 2.6 0 1 0 1.213 1.583 2.6 2.6 0 0 0-1.213-1.583zm26.917 14.374a3.62 3.62 0 0 0-4.941 1.321 3.62 3.62 0 0 0 1.32 4.942 3.62 3.62 0 0 0 4.942-1.32c.48-.83.612-1.818.365-2.745a3.61 3.61 0 0 0-1.685-2.197zm25.607 16.52a4.07 4.07 0 1 0 1.481 5.557c1.12-1.944.46-4.43-1.48-5.557zm24.24 18.5a4.07 4.07 0 1 0 1.486 5.558 4.07 4.07 0 0 0-1.486-5.559zm23.116 19.818a4.3 4.3 0 1 0 2.003 2.611 4.3 4.3 0 0 0-2.003-2.611zm22.356 20.27c-1.98-1.146-4.456-.985-6.27.406s-2.615 3.74-2.023 5.95 2.456 3.846 4.724 4.145 4.493-.798 5.637-2.78c1.56-2.703.637-6.16-2.066-7.722zm20.66 22.106c-2.257-1.305-5.078-1.122-7.147.464s-2.98 4.262-2.306 6.78a6.45 6.45 0 0 0 5.384 4.724c2.584.34 5.12-.9 6.424-3.167a6.44 6.44 0 0 0-2.355-8.802zm18.18 25.023c-1.86-1.076-4.187-.924-5.893.385s-2.455 3.515-1.9 5.592 2.3 3.613 4.44 3.893 4.222-.75 5.296-2.613c1.466-2.54.596-5.8-1.944-7.256zm18.422 23.037a7.8 7.8 0 1 0 3.634 4.736 7.8 7.8 0 0 0-3.634-4.736zm15.02 27.13a6.78 6.78 0 0 0-7.52.493c-2.176 1.67-3.133 4.487-2.423 7.137s2.947 4.6 5.667 4.97a6.78 6.78 0 0 0 6.76-3.333 6.79 6.79 0 0 0-2.483-9.266zm13.978 26.89a7.12 7.12 0 1 0 2.608 9.728 7.13 7.13 0 0 0-2.607-9.728zm11.604 28.797a6.22 6.22 0 1 0 2.277 8.495c1.715-2.975.696-6.776-2.277-8.494zm10.393 28.434c-3.135-1.8-7.144-.738-8.955 2.397s-.738 7.144 2.397 8.955 7.144.738 8.955-2.397a6.56 6.56 0 0 0-2.397-8.955zm7.23 31.286a4.3 4.3 0 1 0 1.567 5.87 4.29 4.29 0 0 0-1.567-5.87zm6.126 30.38c-1.267-.732-2.85-.63-4 .26a3.62 3.62 0 0 0-1.293 3.806c.377 1.413 1.572 2.46 3.023 2.65a3.62 3.62 0 0 0 2.282-6.718z"/><circle cx="3.614" cy="3.614" r="3.614" transform="matrix(-.866025 -.5 .5 -.866025 923.712 502.083)"/><path d="M926.574 524.8c-1.1-.642-2.496-.552-3.513.228s-1.463 2.096-1.13 3.333 1.378 2.153 2.65 2.318 2.516-.45 3.154-1.563a3.17 3.17 0 0 0-1.16-4.317zm.32 31.062c-.87-.507-1.96-.44-2.76.17a2.49 2.49 0 0 0-.896 2.616c.258.973 1.078 1.694 2.076 1.827s1.977-.35 2.48-1.222c.687-1.186.283-2.704-.902-3.392zm-1.137 30.17a2.83 2.83 0 0 0-3.862 1.037 2.83 2.83 0 0 0 1.035 3.862 2.83 2.83 0 0 0 3.863-1.033 2.82 2.82 0 0 0-1.036-3.866zm-3.252 30.313a2.83 2.83 0 0 0-3.861 1.035 2.83 2.83 0 1 0 5.18.686 2.83 2.83 0 0 0-1.319-1.721zm-5.132 29.958a2.94 2.94 0 1 0 1.073 4.018c.8-1.406.33-3.203-1.073-4.018zm-7.498 30.342a2.15 2.15 0 0 0-2.932.794 2.15 2.15 0 0 0 .794 2.932 2.15 2.15 0 0 0 2.932-.793 2.14 2.14 0 0 0 .21-1.63c-.15-.55-.5-1.018-1.005-1.302zm-9.046 29.233a2.04 2.04 0 1 0 .745 2.78c.27-.467.343-1.023.204-1.544a2.03 2.03 0 0 0-.95-1.236zm-10.66 28.216a2.37 2.37 0 1 0 .868 3.236c.652-1.133.264-2.58-.867-3.236zm-12.922 28.236a1.81 1.81 0 1 0 .654 2.467 1.81 1.81 0 0 0-.654-2.468zM862.8 789.313c-.812-.466-1.847-.185-2.313.627s-.186 1.847.626 2.313 1.847.186 2.314-.625a1.7 1.7 0 0 0 .168-1.288 1.69 1.69 0 0 0-.794-1.028zm-16.197 26.1c-.702-.402-1.597-.16-2 .542s-.16 1.597.54 2 1.597.163 2-.537a1.47 1.47 0 0 0 .147-1.115c-.1-.375-.35-.697-.688-.9zm-17.707 24.822a1.47 1.47 0 0 0-2.009.528 1.47 1.47 0 0 0 .528 2.009 1.47 1.47 0 0 0 2.009-.528 1.47 1.47 0 0 0-.528-2.009zm-19.446 23.93a1.13 1.13 0 1 0 .415 1.536c.3-.54.123-1.226-.415-1.537zm-20.96 22.74a.68.68 0 0 0-.922.253.68.68 0 0 0 .25.923c.323.186.737.075.923-.25a.68.68 0 0 0-.252-.927zm-21.905 20.586a1.13 1.13 0 0 0-1.725.973 1.13 1.13 0 0 0 .595.985 1.13 1.13 0 0 0 1.725-.973 1.13 1.13 0 0 0-.595-.985zm-23.77 20.104c-.16-.1-.358-.077-.503.035s-.208.302-.16.48a.45.45 0 0 0 .38.33c.18.022.36-.066.45-.226.06-.104.075-.228.044-.344s-.108-.215-.213-.274zm-24.516 17.792a.67.67 0 0 0-.924.237.68.68 0 0 0 .249.928.68.68 0 0 0 .928-.249.67.67 0 0 0-.253-.916zm-25.9 16.65c-.118-.068-.266-.06-.375.025s-.156.224-.12.356a.34.34 0 0 0 .282.248.34.34 0 0 0 .372-.423c-.023-.087-.08-.16-.158-.205zm-26.564 14.385c-.324-.182-.735-.067-.918.257s-.067.735.257.918.735.068.918-.256c.088-.156.1-.34.062-.513s-.163-.318-.32-.406zM638.1 989.548a.45.45 0 1 0 .017.8.45.45 0 0 0-.018-.8zm-28.442 11.244c-.077-.045-.17-.058-.255-.035s-.16.08-.205.156c-.094.163-.042.372.12.47.167.092.377.035.475-.127s.03-.372-.134-.463zm-29.038 9.308a.34.34 0 0 0-.524.29.34.34 0 0 0 .186.296.34.34 0 0 0 .462-.124.34.34 0 0 0-.124-.462zm-29.7 7.6c-.025-.017-.056-.022-.085-.016s-.055.025-.07.05-.02.06-.013.1.028.056.056.07.056.014.084.005.05-.03.062-.057a.1.1 0 0 0-.033-.144zM.2 398.13c-.025-.016-.055-.02-.084-.014s-.053.026-.068.05-.022.058-.015.088.027.056.054.07c.057.032.128.013.16-.043s.007-.123-.048-.153zm10.845-28.507c-.027-.015-.058-.018-.088-.01s-.054.03-.07.056c-.032.055-.013.126.042.158s.126.013.158-.042c.016-.027.02-.06.013-.1s-.028-.056-.056-.07zm12.645-27.75c-.055-.032-.126-.013-.158.042s-.013.126.042.158c.054.025.12.004.15-.047s.015-.118-.033-.153zM8.77 297.807c-.163-.094-.372-.042-.47.12s-.033.375.13.47a.34.34 0 1 0 .34-.59zm16.37-26.527a1.02 1.02 0 1 0 .364 1.388 1.01 1.01 0 0 0 .105-.77c-.07-.26-.237-.483-.47-.62zm17.436-24.747c-.278-.16-.626-.14-.882.057s-.368.526-.285.836.345.54.664.583.632-.112.793-.4a.79.79 0 0 0 .08-.603c-.055-.203-.188-.377-.37-.482zm19.017-23.837c-.278-.163-.626-.142-.883.053s-.37.525-.288.836.344.542.664.585.632-.112.794-.4a.8.8 0 0 0-.287-1.083zm20.347-22.56c-.237-.137-.533-.117-.75.05s-.313.448-.242.712a.68.68 0 0 0 .566.496c.272.036.538-.096.675-.333.1-.155.115-.34.068-.514s-.16-.32-.316-.4z"/><circle cx="2.146" cy="2.146" r="2.146" transform="matrix(-.866025 -.5 .5 -.866025 104.105 182.25)"/><path d="M128.152 156.026a3.73 3.73 0 1 0 1.738 2.268 3.73 3.73 0 0 0-1.738-2.268zm22.935-16.603a1.361 1.361 0 1 0-1.362 2.357 1.36 1.36 0 0 0 1.859-.49c.378-.653.155-1.488-.497-1.867zm25.988-18.547c-1.406-.815-3.207-.336-4.022 1.07s-.336 3.207 1.07 4.022 3.207.336 4.022-1.07.334-3.206-1.07-4.022zm25.893-15.146a2.38 2.38 0 0 0-2.635.17c-.763.584-1.098 1.572-.85 2.5s1.033 1.616 1.986 1.74a2.38 2.38 0 0 0 2.368-1.17c.654-1.136.266-2.587-.87-3.243zm26.392-12.87a1.02 1.02 0 1 0 .371 1.387c.28-.486.113-1.106-.372-1.387zm28.255-13.086a1.81 1.81 0 1 0 .654 2.467 1.82 1.82 0 0 0-.654-2.468zm28.487-10.624a1.7 1.7 0 1 0 .622 2.322 1.7 1.7 0 0 0-.622-2.322zm29.138-8.995a1.7 1.7 0 1 0 .622 2.322 1.7 1.7 0 0 0 .173-1.29 1.69 1.69 0 0 0-.795-1.03zm30.195-8.205c-1.354-.783-3.086-.32-3.87 1.034s-.32 3.086 1.033 3.87 3.086.32 3.87-1.033.32-3.086-1.033-3.87zm30.168-5.73c-1.107-.64-2.492-.552-3.508.226s-1.463 2.092-1.133 3.328 1.373 2.152 2.642 2.32a3.16 3.16 0 0 0 3.153-1.554 3.17 3.17 0 0 0-1.154-4.32zm30.845-4.624a4.3 4.3 0 1 0 1.567 5.87 4.3 4.3 0 0 0-1.567-5.87zm30.44-1.816a4.3 4.3 0 1 0 1.574 5.874 4.29 4.29 0 0 0-1.574-5.874zm31.57-1.863c-3.08-1.78-7.02-.725-8.8 2.355s-.726 7.02 2.354 8.8 7.02.726 8.8-2.354a6.45 6.45 0 0 0-2.355-8.802zm30.097 2.41a5.77 5.77 0 1 0 2.107 7.877 5.77 5.77 0 0 0-2.107-7.877zm29.824 4.424a4.86 4.86 0 1 0 1.779 6.639 4.86 4.86 0 0 0-1.779-6.639zm30.002 5.44a4.86 4.86 0 1 0 2.265 2.951 4.86 4.86 0 0 0-2.266-2.951zM588 57.427a4.86 4.86 0 0 0-6.635 1.781 4.86 4.86 0 0 0 1.781 6.635 4.86 4.86 0 0 0 6.635-1.781A4.86 4.86 0 0 0 588 57.427zm28.694 9.765a3.96 3.96 0 1 0 1.446 5.411c.527-.9.67-2 .4-3.005s-.935-1.88-1.845-2.406zm28.432 10.915a3.73 3.73 0 1 0 1.364 5.091c.494-.856.628-1.873.372-2.828a3.72 3.72 0 0 0-1.737-2.263zm28.032 12.107a4.07 4.07 0 1 0 1.488 5.554 4.07 4.07 0 0 0-1.488-5.554zm27.287 13.653c-1.584-.916-3.565-.788-5.018.326s-2.092 2.992-1.62 4.76 1.964 3.077 3.78 3.317a4.52 4.52 0 0 0 4.51-2.222c.6-1.04.764-2.274.454-3.433s-1.068-2.148-2.107-2.748zm26.797 14.57a5.76 5.76 0 1 0 2.116 7.871c.765-1.324.972-2.898.575-4.374s-1.365-2.735-2.7-3.496zm25.192 17.162c-2.76-1.583-6.28-.632-7.864 2.126s-.637 6.278 2.12 7.866 6.278.643 7.868-2.112a5.76 5.76 0 0 0-2.122-7.88zm24.406 18.173a6.33 6.33 0 1 0 2.325 8.648c.84-1.455 1.067-3.184.63-4.806s-1.5-3.004-2.955-3.842zm23.3 19.48a7.01 7.01 0 0 0-7.009 12.14 7.01 7.01 0 0 0 7.009-12.14zm21.723 21.4a7.01 7.01 0 1 0 2.565 9.574 7.01 7.01 0 0 0-2.565-9.574zm20.852 21.876a7.91 7.91 0 0 0-10.8 2.906c-2.18 3.784-.882 8.62 2.902 10.803s8.62.885 10.804-2.897a7.91 7.91 0 0 0-2.905-10.812zm18.85 24.135c-3.622-2.093-8.255-.853-10.348 2.77s-.853 8.255 2.77 10.348 8.255.853 10.348-2.77a7.58 7.58 0 0 0-2.769-10.349zm18.17 23.86a8.82 8.82 0 1 0 3.228 12.047 8.82 8.82 0 0 0-3.228-12.047zm15.583 26.72c-2.772-1.603-6.237-1.378-8.778.57s-3.66 5.236-2.83 8.33a7.92 7.92 0 0 0 6.612 5.802 7.93 7.93 0 0 0 7.9-3.9 7.92 7.92 0 0 0-2.893-10.811zm14.673 26.464c-4-2.307-9.115-.935-11.423 3.066a8.37 8.37 0 0 0 3.06 11.425c3.998 2.31 9.114.942 11.426-3.057a8.37 8.37 0 0 0 .838-6.352c-.575-2.145-1.978-3.973-3.902-5.082zm12.42 28.354c-3.625-2.088-8.255-.842-10.344 2.782s-.844 8.255 2.78 10.344 8.255.847 10.345-2.776c1.005-1.74 1.276-3.8.755-5.75s-1.793-3.596-3.535-4.6zm11.928 27.014a9.16 9.16 0 0 0-12.508 3.354 9.16 9.16 0 0 0 3.353 12.508 9.16 9.16 0 0 0 12.508-3.352c1.215-2.103 1.545-4.603.916-6.95s-2.165-4.346-4.27-5.56zm9.03 29.69a8.37 8.37 0 0 0-9.277.608c-2.685 2.06-3.864 5.535-2.988 8.804a8.37 8.37 0 0 0 7 6.13c3.365.442 6.646-1.18 8.338-4.112a8.42 8.42 0 0 0 .837-6.35 8.36 8.36 0 0 0-3.9-5.08zm7.675 29.515c-2.93-1.693-6.6-1.454-9.275.605s-3.865 5.532-3 8.8 3.632 5.688 6.987 6.13 6.645-1.18 8.337-4.1a8.36 8.36 0 0 0-3.058-11.427zm4.703 31.972c-2.868-1.65-6.532-.665-8.184 2.202s-.667 6.532 2.2 8.184 6.53.668 8.184-2.2.667-6.534-2.202-8.187zm1.084 153.963a3.62 3.62 0 0 0-4.941 1.321 3.62 3.62 0 0 0 1.32 4.942 3.62 3.62 0 0 0 4.942-1.32 3.61 3.61 0 0 0-1.321-4.943zm-5.328 30.67a2.94 2.94 0 1 0 1.077 4.02c.812-1.408.33-3.207-1.077-4.02zm-6.446 29.144a3.62 3.62 0 1 0 1.32 4.942c.997-1.73.407-3.94-1.32-4.943zm-9.17 30.345a2.371 2.371 0 1 0 .867 3.247 2.36 2.36 0 0 0 .244-1.804 2.39 2.39 0 0 0-1.1-1.443zm-10.292 28.712c-.832-.48-1.87-.412-2.632.173s-1.096 1.57-.848 2.498 1.03 1.614 1.983 1.74a2.37 2.37 0 0 0 1.497-4.41zm-11.934 27.94a2.49 2.49 0 0 0-3.395.917 2.49 2.49 0 0 0 .917 3.395 2.49 2.49 0 0 0 3.395-.917 2.48 2.48 0 0 0 .246-1.888c-.172-.638-.6-1.18-1.163-1.507zm-13.694 27.36c-1.137-.654-2.588-.264-3.244.872s-.266 2.588.87 3.244 2.588.268 3.245-.867a2.38 2.38 0 0 0-.871-3.25zm-15.362 26.61a2.15 2.15 0 0 0-2.93.789 2.15 2.15 0 1 0 3.935.521 2.15 2.15 0 0 0-1.005-1.309zm-17.025 25.844c-.8-.465-1.845-.186-2.312.624s-.2 1.845.62 2.313 1.845.193 2.314-.615c.23-.4.294-.855.177-1.292a1.68 1.68 0 0 0-.8-1.03zm-18.223 24.296a1.81 1.81 0 1 0 .651 2.472c.5-.863.208-1.967-.65-2.472zm-19.784 23.358a1.7 1.7 0 1 0 .619 2.328c.23-.4.293-.856.177-1.293s-.403-.8-.795-1.035zm-21.07 22.046c-.8-.47-1.846-.194-2.316.616s-.194 1.846.615 2.316 1.846.195 2.317-.614a1.69 1.69 0 0 0-.615-2.318zm-22.635 21.236a1.13 1.13 0 1 0 .412 1.541 1.13 1.13 0 0 0-.413-1.541zm-23.446 19.164a1.36 1.36 0 1 0 .501 1.85c.372-.65.148-1.478-.5-1.85zm-24.328 17.34c-.713-.413-1.604-.356-2.258.145s-.942 1.347-.728 2.142.885 1.384 1.702 1.5 1.617-.3 2.028-1.004a2.03 2.03 0 0 0-.743-2.774zM711.9 989.578a1.02 1.02 0 1 0 .367 1.384 1.01 1.01 0 0 0-.367-1.385zm-26.64 14.852a1.02 1.02 0 1 0 .376 1.39 1.02 1.02 0 0 0-.376-1.389zm-27.807 13.82c-.077-.046-.17-.06-.255-.037s-.16.08-.205.157c-.06.104-.06.232 0 .336s.17.168.3.168.23-.064.3-.168c.044-.077.056-.168.033-.253s-.08-.16-.156-.203zm-28.16 11.452a.46.46 0 0 0-.617.176.45.45 0 0 0 .385.702.45.45 0 0 0 .395-.252.46.46 0 0 0-.162-.627zM12.907 229.5a.682.682 0 1 0-.67 1.188.68.68 0 0 0 .929-.251.7.7 0 0 0-.258-.937zm18.955-24.295c-.487-.275-1.105-.104-1.38.382s-.108 1.104.378 1.382 1.104.1 1.384-.373a1.01 1.01 0 0 0-.38-1.392zm19.998-22.728a.79.79 0 1 0 .289 1.079.79.79 0 0 0-.289-1.079zm21.647-22.252c-.647-.378-1.477-.16-1.855.486s-.16 1.477.486 1.855 1.477.16 1.855-.486a1.36 1.36 0 0 0-.486-1.856zm23.168-21.6a2.6 2.6 0 1 0 .948 3.549c.7-1.243.287-2.825-.947-3.55zm24.335-20.4a3.96 3.96 0 1 0 1.452 5.403 3.96 3.96 0 0 0-1.451-5.402zm24.927-18.268a4.41 4.41 0 0 0-6.017 1.623 4.41 4.41 0 0 0 1.623 6.017 4.41 4.41 0 0 0 6.018-1.623 4.41 4.41 0 0 0-1.623-6.018zm26.578-18.04c-2.975-1.72-6.78-.7-8.5 2.273s-.703 6.78 2.27 8.5a6.22 6.22 0 0 0 8.5-2.27 6.23 6.23 0 0 0-2.272-8.504zm24.74-11.864a2.6 2.6 0 1 0 .947 3.559 2.62 2.62 0 0 0-.947-3.559zm27.51-13.782c-1.404-.806-3.196-.322-4.004 1.08s-.328 3.195 1.073 4.006 3.194.334 4.008-1.066a2.93 2.93 0 0 0-1.077-4.02zm27.513-10.947a1.81 1.81 0 1 0 .651 2.472 1.82 1.82 0 0 0-.651-2.472zm29.244-11.326a2.94 2.94 0 1 0 1.077 4.02c.812-1.408.33-3.207-1.077-4.02zm29.62-9.397a3.73 3.73 0 0 0-4.14.274c-1.197.92-1.724 2.472-1.332 3.93s1.624 2.538 3.122 2.734a3.73 3.73 0 0 0 2.35-6.941zm29.2-6.276c-1-.57-2.226-.5-3.132.205s-1.305 1.87-1 2.972a2.83 2.83 0 0 0 2.36 2.07c1.133.15 2.244-.4 2.815-1.388a2.82 2.82 0 0 0-1.034-3.859zm31.425-7.84a5.65 5.65 0 1 0 2.077 7.723c1.56-2.706.63-6.163-2.077-7.723zm30.272-3.704c-2.703-1.564-6.163-.64-7.727 2.063s-.64 6.163 2.063 7.727 6.163.64 7.727-2.063a5.66 5.66 0 0 0-2.063-7.727zm30.488-2.084c-2.758-1.6-6.283-.644-7.874 2.114s-.644 6.283 2.113 7.874 6.283.645 7.874-2.113a5.77 5.77 0 0 0 .575-4.375c-.395-1.477-1.364-2.736-2.688-3.5zm30.835-.876c-3.08-1.782-7.024-.73-8.806 2.352s-.73 7.024 2.352 8.806 7.024.73 8.806-2.352a6.45 6.45 0 0 0-2.352-8.806zm31.193.154c-3.784-2.185-8.622-.888-10.807 2.896s-.888 8.622 2.896 10.807 8.622.888 10.807-2.896a7.91 7.91 0 0 0-2.896-10.807zM524.22 8.26c-3.136-1.806-7.142-.73-8.95 2.406s-.733 7.142 2.4 8.95a6.56 6.56 0 0 0 9.609-7.377c-.45-1.682-1.552-3.113-3.06-3.982zm29.827 5.313c-2.868-1.65-6.53-.666-8.183 2.2s-.668 6.53 2.198 8.184 6.53.67 8.185-2.195c.795-1.378 1-3.015.597-4.55s-1.42-2.845-2.797-3.64zm30.026 6.123c-2.257-1.3-5.08-1.128-7.152.457s-2.984 4.263-2.3 6.784a6.45 6.45 0 0 0 5.386 4.728 6.43 6.43 0 0 0 6.427-3.17c1.778-3.08.727-7.017-2.35-8.8zm29.66 7.678a7.01 7.01 0 1 0 2.574 9.569c1.928-3.354.776-7.635-2.574-9.57zm28.647 10.2a6.56 6.56 0 1 0 2.4 8.959 6.56 6.56 0 0 0-2.4-8.958zm28.282 11.408a6.56 6.56 0 0 0-8.958 2.394 6.56 6.56 0 0 0 2.394 8.958 6.56 6.56 0 0 0 8.959-2.393c1.8-3.136.738-7.144-2.394-8.96zm28.11 12.088a7.58 7.58 0 1 0 2.769 10.349 7.58 7.58 0 0 0-2.769-10.349zm26.82 14.505a7.57 7.57 0 1 0 3.535 4.596 7.57 7.57 0 0 0-3.535-4.596zm26.205 15.595a8.03 8.03 0 1 0 2.929 10.956c2.214-3.834.904-8.738-2.928-10.956zm24.916 17.6a7.8 7.8 0 1 0 3.635 4.74 7.8 7.8 0 0 0-3.635-4.74zm24.524 17.9a8.82 8.82 0 0 0-12.045 3.227 8.82 8.82 0 0 0 3.227 12.046 8.82 8.82 0 0 0 12.046-3.226c2.433-4.218 1-9.6-3.227-12.046zm22.645 20.595c-2.9-1.672-6.505-1.436-9.155.596s-3.815 5.46-2.95 8.687 3.587 5.613 6.9 6.048 6.558-1.168 8.227-4.062a8.26 8.26 0 0 0-3.02-11.27zm21.875 21.165a8.48 8.48 0 1 0 3.104 11.584c1.126-1.947 1.43-4.263.85-6.435s-2.004-4.025-3.953-5.15zm20.422 22.748a8.25 8.25 0 1 0 3.015 11.267c2.275-3.945.926-8.986-3.015-11.267zm19.234 23.656c-3.948-2.28-8.996-.927-11.276 3.02s-.93 8.996 3.02 11.276 8.996.93 11.277-3.017a8.25 8.25 0 0 0-3.02-11.28zm18.162 24.218a8.82 8.82 0 1 0 3.228 12.047 8.82 8.82 0 0 0 .883-6.692c-.605-2.26-2.084-4.186-4.1-5.355zm16.464 25.663a8.82 8.82 0 1 0 4.11 5.357 8.82 8.82 0 0 0-4.109-5.357zm15.337 25.965a9.5 9.5 0 1 0 3.477 12.977c1.26-2.182 1.604-4.775.95-7.2s-2.245-4.5-4.43-5.768zm12.916 28.332c-4-2.306-9.113-.934-11.42 3.066s-.936 9.113 3.064 11.42 9.112.937 11.42-3.062a8.36 8.36 0 0 0-3.065-11.425zm1.84 448.088c-1.786-1.028-4.068-.414-5.096 1.373s-.414 4.068 1.372 5.096 4.068.414 5.096-1.372.414-4.068-1.372-5.097zm-13.035 27.696a3.62 3.62 0 0 0-4.936 1.332 3.62 3.62 0 0 0 1.327 4.937 3.62 3.62 0 0 0 4.939-1.322c.482-.832.612-1.82.363-2.75a3.61 3.61 0 0 0-1.692-2.198zm-14.433 26.73a3.73 3.73 0 1 0 1.361 5.096 3.74 3.74 0 0 0-1.362-5.096zm-16.446 26.755c-1.353-.775-3.08-.307-3.855 1.046s-.308 3.08 1.044 3.855 3.078.3 3.856-1.042c.374-.65.474-1.423.278-2.147s-.672-1.34-1.323-1.713zm-17.405 25.026a2.83 2.83 0 1 0 1.029 3.868c.782-1.353.32-3.082-1.03-3.868zm-18.787 24.028a2.83 2.83 0 1 0 1.027 3.861 2.82 2.82 0 0 0 .286-2.143c-.194-.723-.665-1.342-1.313-1.718zm-20.503 23.604c-.973-.562-2.217-.23-2.78.743s-.23 2.216.74 2.78 2.216.233 2.78-.74a2.04 2.04 0 0 0-.742-2.784zm-21.143 21.377a2.49 2.49 0 0 0-3.395.916 2.49 2.49 0 0 0 .913 3.395 2.49 2.49 0 0 0 3.396-.911 2.48 2.48 0 0 0-.915-3.4zm-23.047 21.415a1.47 1.47 0 0 0-2.005.539 1.47 1.47 0 0 0 .537 2.006 1.47 1.47 0 0 0 2.006-.536 1.47 1.47 0 0 0-.538-2.009zm-23.837 19.533c-.394-.23-.888-.198-1.25.08a1.13 1.13 0 0 0-.403 1.186c.117.44.5.766.942.825s.895-.16 1.122-.556c.15-.257.193-.565.115-.853s-.267-.534-.526-.68zm-24.53 17.574c-.516-.3-1.16-.258-1.635.104s-.682.975-.53 1.55a1.47 1.47 0 0 0 1.23 1.08 1.48 1.48 0 0 0 1.47-.724c.407-.704.167-1.605-.537-2.012zm-25.663 16.475a1.47 1.47 0 1 0 .536 2.003 1.46 1.46 0 0 0-.536-2.003zm-27.072 15.87a.45.45 0 0 0-.619.169c-.092.16-.08.36.034.507a.47.47 0 0 0 .48.16c.177-.04.3-.2.332-.384a.44.44 0 0 0-.23-.453z"/><use xlink:href="#D" x="-3.01" y="157.246"/><path d="M21.98 164.694c-.395-.233-.892-.204-1.258.072a1.14 1.14 0 0 0-.414 1.2 1.12 1.12 0 0 0 .942.836c.454.062.902-.155 1.133-.552.313-.54.133-1.23-.404-1.547zm20.966-21.977a1.02 1.02 0 1 0 .371 1.387c.135-.233.172-.5.102-.77s-.24-.482-.474-.616zm22.004-20.65a.68.68 0 0 0-.926.252.68.68 0 0 0 .252.926.68.68 0 0 0 .927-.251c.1-.156.114-.342.067-.516a.67.67 0 0 0-.32-.41zm23.245-19.733a.67.67 0 0 0-.922.243.68.68 0 1 0 .922-.244zM114.094 81a3.96 3.96 0 1 0 1.445 5.404c1.093-1.9.447-4.3-1.444-5.404zm26.38-19.24a6.33 6.33 0 1 0 2.318 8.65 6.34 6.34 0 0 0-2.318-8.65zm25.498-14.84a5.2 5.2 0 1 0 1.909 7.094 5.19 5.19 0 0 0-1.909-7.094zm26.876-14.426a5.2 5.2 0 1 0 1.894 7.097 5.2 5.2 0 0 0-1.894-7.098zm26.455-11.034a2.94 2.94 0 1 0 1.071 4.011 2.94 2.94 0 0 0-1.071-4.011zm29.024-12.883a4.52 4.52 0 1 0 1.66 6.18c.6-1.04.764-2.275.453-3.434s-1.072-2.147-2.113-2.745zm419.005.733a7.92 7.92 0 0 0-8.777.575c-2.54 1.95-3.656 5.236-2.827 8.33s3.44 5.382 6.613 5.8a7.91 7.91 0 0 0 8.68-9.907 7.92 7.92 0 0 0-3.69-4.807zm28.54 11.124c-4.273-2.46-9.73-.993-12.194 3.278s-.998 9.73 3.27 12.196a8.93 8.93 0 0 0 13.09-10.049c-.615-2.29-2.114-4.242-4.168-5.426zm27.534 13.186a9.27 9.27 0 1 0 3.387 12.665c2.56-4.433 1.045-10.102-3.386-12.665zm26.6 14.892c-4.436-2.557-10.105-1.034-12.662 3.402s-1.036 10.105 3.4 12.663 10.104 1.037 12.664-3.397a9.28 9.28 0 0 0-3.401-12.668zm26.067 15.793a9.84 9.84 0 0 0-13.434 3.603 9.84 9.84 0 0 0 3.6 13.435 9.84 9.84 0 0 0 13.436-3.597c1.305-2.26 1.66-4.946.984-7.466a9.84 9.84 0 0 0-4.585-5.974zm24.267 18.7c-4.1-2.373-9.365-.965-11.738 3.145s-.965 9.365 3.145 11.738 9.365.966 11.738-3.144.965-9.366-3.145-11.74zM824.208 102c-4.06-2.34-9.245-.945-11.585 3.113s-.947 9.245 3.112 11.585a8.49 8.49 0 0 0 11.586-3.1 8.47 8.47 0 0 0-3.113-11.589zm23.358 19.37c-3.287-1.9-7.395-1.634-10.408.676s-4.338 6.208-3.356 9.875 4.076 6.382 7.84 6.878 7.456-1.325 9.354-4.614c2.6-4.486 1.055-10.223-3.43-12.815zm22.36 20.345c-5.03-2.9-11.455-1.174-14.356 3.854s-1.18 11.455 3.847 14.358 11.454 1.184 14.36-3.84a10.51 10.51 0 0 0-3.851-14.371zm20.3 23.035c-3.445-2-7.75-1.7-10.907.713s-4.544 6.507-3.514 10.35 4.273 6.687 8.218 7.206 7.813-1.4 9.802-4.836c1.304-2.26 1.658-4.943.983-7.462a9.83 9.83 0 0 0-4.582-5.97zm19.322 23.702a9.61 9.61 0 1 0 3.509 13.121 9.61 9.61 0 0 0-3.51-13.121zm18.16 24.488c-4.597-2.654-10.476-1.08-13.13 3.517s-1.08 10.476 3.515 13.13 10.475 1.083 13.132-3.513a9.62 9.62 0 0 0-3.516-13.136zm16.727 25.618c-4.488-2.6-10.226-1.05-12.815 3.44s-1.05 10.226 3.437 12.816 10.225 1.052 12.816-3.435a9.39 9.39 0 0 0-3.438-12.819zM959.1 826a2.83 2.83 0 1 0 1.025 3.865c.782-1.35.323-3.08-1.025-3.865zm-15.196 26.307a2.94 2.94 0 0 0-4.014 1.067 2.94 2.94 0 0 0 1.065 4.015 2.94 2.94 0 0 0 4.016-1.063c.814-1.405.337-3.203-1.066-4.02zm-16.85 25.957c-.87-.503-1.96-.432-2.757.18s-1.15 1.645-.888 2.617a2.49 2.49 0 0 0 2.078 1.822c.998.132 1.975-.35 2.478-1.222a2.49 2.49 0 0 0-.91-3.397zm-17.547 23.98a3.28 3.28 0 0 0-3.634.233c-1.054.805-1.516 2.166-1.174 3.447s1.422 2.23 2.736 2.402a3.29 3.29 0 0 0 3.266-1.6 3.28 3.28 0 0 0-1.195-4.473zm-19.56 24.257a2.6 2.6 0 1 0 .954 3.547 2.6 2.6 0 0 0-.954-3.547zm-20.897 23.404a1.7 1.7 0 1 0 .611 2.315c.226-.388.3-.85.174-1.284s-.397-.805-.785-1.03zm-21.613 21.513a1.7 1.7 0 1 0 .792 1.032 1.7 1.7 0 0 0-.792-1.032zm-22.712 20.346a1.7 1.7 0 1 0 .792 1.032 1.7 1.7 0 0 0-.792-1.032zm-24.213 19.907a.79.79 0 1 0 .289 1.079.8.8 0 0 0-.289-1.079zM81.03 64.818c-.2-.12-.466-.12-.674 0s-.337.343-.337.584.13.464.337.584.466.12.674 0 .337-.343.337-.584-.13-.464-.337-.584zm24.82-17.9a.792.792 0 0 0-.795 1.37.79.79 0 0 0 1.083-.287c.22-.378.1-.863-.287-1.083zm25.443-16.248a.45.45 0 0 0-.609.171.45.45 0 0 0 .167.61.45.45 0 0 0 .611-.163.44.44 0 0 0-.169-.619zm27.825-17.697a3.28 3.28 0 1 0 1.199 4.475 3.27 3.27 0 0 0-1.199-4.475zM747.34 7.396a9.72 9.72 0 0 0-13.273 3.566 9.72 9.72 0 0 0 16.838 9.711c1.3-2.233 1.64-4.887.97-7.378s-2.3-4.613-4.536-5.9zm26.927 14.362c-5.138-2.963-11.706-1.2-14.67 3.937s-1.203 11.705 3.935 14.67 11.705 1.204 14.67-3.932a10.73 10.73 0 0 0-3.936-14.675zM799.485 39a9.95 9.95 0 1 0 3.637 13.585 9.95 9.95 0 0 0-3.637-13.585zm24.757 17.8a9.95 9.95 0 0 0-9.94 17.237 9.95 9.95 0 0 0 13.588-3.645c1.32-2.286 1.677-5.003.993-7.552a9.95 9.95 0 0 0-4.64-6.04zm23.742 19.207a9.73 9.73 0 0 0-13.29 3.546 9.73 9.73 0 0 0 3.546 13.29 9.73 9.73 0 0 0 13.29-3.546c2.688-4.65 1.1-10.598-3.546-13.3zm23.25 19.493c-3.683-2.13-8.286-1.83-11.662.76s-4.86 6.957-3.758 11.066a10.52 10.52 0 0 0 8.788 7.705c4.218.555 8.354-1.487 10.48-5.173a10.52 10.52 0 0 0-3.847-14.358zM893 116.883a10.4 10.4 0 1 0 3.8 14.203c2.87-4.972 1.17-11.33-3.8-14.203zm20.915 22.065c-3.762-2.178-8.467-1.875-11.918.77s-4.968 7.107-3.844 11.307a10.74 10.74 0 0 0 8.98 7.874c4.312.566 8.537-1.52 10.708-5.287 2.96-5.134 1.204-11.695-3.925-14.663zm19.593 23.358c-5.14-2.964-11.707-1.2-14.67 3.938s-1.2 11.707 3.938 14.67 11.707 1.2 14.67-3.938a10.73 10.73 0 0 0-3.938-14.671zm18.535 24.11a10.97 10.97 0 0 0-14.98 4.014 10.97 10.97 0 0 0 4.011 14.981 10.97 10.97 0 0 0 14.981-4.008c1.457-2.52 1.852-5.514 1.1-8.325s-2.592-5.207-5.112-6.66zM947.755 907.9a2.38 2.38 0 0 0-2.635.17c-.763.584-1.098 1.572-.85 2.5s1.033 1.616 1.986 1.74a2.38 2.38 0 0 0 1.499-4.413zm-18.588 24.592a2.04 2.04 0 0 0-2.781.754 2.04 2.04 0 1 0 3.735.482 2.04 2.04 0 0 0-.954-1.236zm-20.11 24.245c-.485-.28-1.106-.114-1.387.372s-.114 1.106.372 1.387 1.106.114 1.387-.372.113-1.106-.372-1.387zm-43.018 44.435c-.027-.017-.06-.022-.1-.014s-.056.03-.07.057-.02.06-.013.1.03.055.058.068a.1.1 0 0 0 .143-.048c.03-.057.028-.12-.028-.152z"/><circle cx="8.255" cy="8.255" r="8.255" transform="matrix(-.866025 -.5 .5 -.866025 820.861 33.689)"/><path d="M847.116 32.346a9.27 9.27 0 1 0 3.393 12.663c1.23-2.13 1.565-4.66.928-7.035a9.26 9.26 0 0 0-4.322-5.628zM871.9 49.688a11.31 11.31 0 1 0 4.128 15.449c3.123-5.407 1.275-12.32-4.13-15.45zm22.83 20.207a11.31 11.31 0 1 0 4.142 15.445c3.12-5.4 1.265-12.322-4.142-15.445zm22.085 20.883c-4.118-2.376-9.26-2.038-13.032.857s-5.427 7.776-4.196 12.368 5.108 8 9.82 8.6 9.336-1.662 11.712-5.78a11.75 11.75 0 0 0-4.305-16.055zM937.1 114.02a10.63 10.63 0 0 0-14.512 3.898 10.63 10.63 0 0 0 3.896 14.513 10.63 10.63 0 0 0 14.513-3.894 10.58 10.58 0 0 0 1.06-8.065c-.74-2.722-2.514-5.043-4.956-6.45zm19.928 22.945c-3.84-2.217-8.64-1.903-12.157.797s-5.063 7.253-3.915 11.537 4.764 7.453 9.16 8.032 8.7-1.55 10.926-5.4a10.96 10.96 0 0 0-4.014-14.975zM870.1 7.717a8.82 8.82 0 0 0-12.041 3.23 8.82 8.82 0 0 0 3.227 12.042 8.82 8.82 0 0 0 12.042-3.225c1.17-2.025 1.488-4.433.882-6.692a8.82 8.82 0 0 0-4.11-5.354zm24.894 17.135c-5.35-3.093-12.197-1.262-15.3 4.1a11.2 11.2 0 0 0 4.087 15.3c5.35 3.103 12.196 1.264 15.3-4.086 1.488-2.57 1.893-5.625 1.126-8.494a11.19 11.19 0 0 0-5.214-6.8zm23.554 18.963c-4.435-2.563-9.978-2.202-14.043.916s-5.852 8.376-4.527 13.325 5.5 8.6 10.58 9.28 10.06-1.787 12.622-6.223a12.66 12.66 0 0 0-4.631-17.297zm21.482 21.93a11.88 11.88 0 0 0-13.17.854 11.87 11.87 0 0 0-4.247 12.495c1.243 4.64 5.158 8.075 9.92 8.702s9.434-1.68 11.834-5.84c3.275-5.675 1.333-12.93-4.34-16.2zm1.053-45.86c-4.04-2.333-9.1-2.002-12.792.84s-5.327 7.632-4.12 12.14 5.014 7.842 9.64 8.45 9.164-1.632 11.495-5.674a11.54 11.54 0 0 0-4.225-15.754z"/></g><defs ><path id="B" d="M126.36 365.96c-.026-.016-.058-.02-.087-.014s-.055.026-.07.053c-.02.035-.02.078 0 .113s.057.056.098.057.078-.022.098-.056c.028-.053.012-.118-.037-.152z"/><path id="C" d="M748.482 777.832c-.054-.03-.123-.013-.154.04s-.013.123.04.154c.035.02.078.02.113 0s.056-.057.057-.098-.022-.078-.056-.098z"/><path id="D" d="M679.73 889.724c-.035-.02-.078-.02-.113 0s-.056.057-.057.098.022.078.056.098c.054.03.123.013.154-.04s.013-.123-.04-.154z"/></defs></svg>