<svg xmlns="http://www.w3.org/2000/svg" xmlns:xlink="http://www.w3.org/1999/xlink" width="985.452" height="1049.667"><g fill="#5642db"><path d="M287.12 672.888a.11.11 0 0 0 .152-.037c.03-.054.012-.123-.04-.154-.026-.016-.058-.02-.087-.014s-.055.026-.07.053a.11.11 0 0 0 .049.153zm-49.956-110.265a.35.35 0 0 0 .47-.12.35.35 0 0 0-.132-.467c-.077-.044-.17-.056-.255-.032s-.16.08-.203.158a.34.34 0 0 0-.036.255.35.35 0 0 0 .156.205zm378.8 261.85c.055.03.123.012.158-.04.015-.027.018-.058.01-.087s-.028-.054-.055-.07-.058-.02-.087-.014-.055.026-.07.053c-.027.056-.007.124.046.157zm-29.908 5.895c.054.03.123.012.154-.04.024-.04.02-.1-.007-.128s-.076-.054-.122-.042-.08.05-.084.097.017.092.058.115zm-30.325 3.186c.055.032.125.015.16-.04.016-.027.02-.06.01-.088s-.03-.055-.057-.07-.057-.02-.086-.012a.11.11 0 0 0-.068.053.12.12 0 0 0 .04.154zm-30.487.453a.12.12 0 0 0 .162-.036c.026-.037.03-.085.008-.124s-.063-.063-.108-.062-.085.028-.104.07c-.026.054-.008.12.042.153zm-30.57-1.987a.45.45 0 1 0-.162-.612.45.45 0 0 0 .162.612zm-30.02-5.085a.34.34 0 0 0 .26.034.35.35 0 0 0 .21-.16c.094-.164.038-.373-.126-.468s-.373-.038-.468.125a.34.34 0 0 0 .125.468zm-29.502-7.677c.076.046.168.06.254.036s.16-.08.202-.158a.35.35 0 0 0 .035-.255c-.023-.085-.08-.16-.156-.205-.162-.094-.37-.04-.466.12-.045.078-.056.17-.03.258a.34.34 0 0 0 .16.203zm-28.706-10.275c.165.1.37.03.463-.134.044-.077.056-.168.033-.253s-.08-.16-.156-.203c-.16-.096-.37-.045-.468.115-.093.167-.037.378.127.475zm-27.66-12.82c.16.1.363.036.456-.122s.045-.37-.115-.468c-.167-.093-.378-.037-.475.127-.087.165-.028.37.134.463zm-26.41-15.25a.34.34 0 0 0 .464-.118c.047-.08.06-.173.037-.262s-.08-.165-.16-.2a.34.34 0 0 0-.463.134c-.044.077-.056.168-.033.253s.08.16.156.203zm-24.934-17.544a.34.34 0 0 0 .263.033.35.35 0 0 0 .21-.163c.046-.08.056-.17.03-.258s-.083-.16-.162-.203-.168-.058-.254-.035-.16.08-.202.158-.063.17-.04.258.078.164.156.2zM304.2 743.648a.34.34 0 0 0 .465-.117c.1-.164.032-.37-.13-.465-.077-.044-.17-.056-.255-.032a.33.33 0 0 0-.202.158c-.042.078-.06.168-.036.254a.33.33 0 0 0 .157.202zm-21.398-21.71a.341.341 0 1 0 .341-.591c-.077-.045-.17-.056-.254-.032s-.158.082-.2.16a.33.33 0 0 0 .113.462zm-19.53-23.253a.68.68 0 1 0-.25-.932.69.69 0 0 0 .25.932z"/><circle cx=".45" cy=".45" transform="matrix(.866025 .5 -.5 .866025 246.264 672.286)" r=".45"/><path d="M231.237 646.86a.68.68 0 1 0-.248-.925.68.68 0 0 0 .248.925zm-12.234-28.143a.33.33 0 0 0 .26.035c.088-.025.162-.083.205-.164.093-.16.038-.366-.123-.46s-.366-.038-.46.123c-.047.077-.06.17-.04.257s.078.162.155.208zm-10.075-28.465a.792.792 0 0 0 .787-1.375.79.79 0 0 0-.787 1.374zm-7.233-29.622a.8.8 0 0 0 1.09-.288c.22-.38.1-.867-.292-1.086s-.867-.1-1.086.292a.8.8 0 0 0 .287 1.083zm-4.317-30.544a.33.33 0 0 0 .258.04c.088-.023.164-.078.2-.156a.34.34 0 0 0-.132-.467c-.077-.045-.17-.056-.254-.032s-.158.082-.2.16-.06.166-.038.252.08.16.156.202zm-2.04-30.032a.792.792 0 1 0 .787-1.375.79.79 0 0 0-.787 1.375zm1.13-30.854a.35.35 0 0 0 .472-.13.34.34 0 0 0-.131-.46c-.077-.045-.168-.058-.254-.036s-.16.078-.205.155c-.097.163-.044.373.118.47zm3.48-30c.324.187.738.076.925-.248s.076-.738-.248-.925-.738-.076-.925.248-.076.738.248.925zm6.508-30.114a.33.33 0 0 0 .459-.127c.046-.077.06-.17.037-.255s-.08-.16-.157-.205a.34.34 0 0 0-.462.124.34.34 0 0 0 .124.462zm9.095-29.33c.054.03.123.012.154-.04.016-.026.02-.058.014-.087s-.026-.055-.053-.07a.11.11 0 0 0-.153.049.11.11 0 0 0 .037.152zm104.07-147.836c.025.015.054.02.082.01s.05-.026.065-.05c.033-.052.018-.122-.034-.156-.057-.033-.13-.015-.166.04-.028.057-.005.127.053.155z"/><use xlink:href="#B"/><path d="M842.776 707.02c.027.017.06.022.1.015s.057-.028.073-.055.022-.06.012-.1-.03-.055-.06-.068c-.053-.025-.116-.004-.143.048s-.017.115.028.15zm-18.348 24.35c.054.027.12.01.154-.04.016-.026.02-.058.014-.087s-.026-.055-.053-.07a.11.11 0 0 0-.153.049c-.028.053-.01.117.038.15zm-20.278 22.766c.053.033.122.018.156-.035.017-.027.022-.06.014-.1s-.03-.056-.057-.07-.058-.018-.088-.01-.054.03-.07.056c-.026.054-.007.12.044.15zm-22.067 21.042c.028.016.06.02.092.01s.056-.033.07-.062c.025-.053.004-.116-.048-.143s-.115-.018-.148.03c-.02.026-.026.06-.02.1s.026.06.054.075zm-23.71 19.172a.12.12 0 0 0 .158-.04c.028-.055.007-.123-.047-.152s-.12-.014-.152.037-.01.122.04.154zm-25.187 17.18c.054.028.12.01.153-.042s.01-.12-.04-.154-.125-.015-.16.04-.01.125.046.157zm-26.5 15.06c.052.03.118.012.148-.04s.012-.118-.04-.148c-.025-.018-.056-.025-.086-.018s-.056.026-.07.053-.02.058-.01.087.03.053.06.065zm-27.66 12.858a.12.12 0 0 0 .154-.04c.016-.026.02-.058.014-.087s-.026-.055-.053-.07-.06-.02-.088-.01-.055.03-.07.057c-.03.054-.012.123.04.154zM650.14 850.5a.68.68 0 0 0 .928-.246.68.68 0 0 0-.245-.928.68.68 0 0 0-.928.245.68.68 0 0 0 .245.929zm-29.085 7.707c.056.03.124.01.156-.045s.01-.12-.04-.154a.11.11 0 0 0-.15.044c-.016.025-.022.056-.015.085s.025.055.05.07zm-30.113 6.063a.46.46 0 0 0 .627-.164.46.46 0 0 0-.174-.621c-.215-.1-.48-.034-.6.176s-.056.478.148.6zm-30.417 3.5a.67.67 0 0 0 .92-.239.68.68 0 0 0-.245-.929.67.67 0 0 0-.923.255c-.1.154-.114.337-.068.5s.16.318.316.405zm-30.485.83a.69.69 0 0 0 .7.018c.226-.122.348-.35.345-.598a.67.67 0 0 0-.36-.588c-.323-.186-.735-.076-.92.247s-.076.735.247.92z"/><circle cx=".453" cy=".453" transform="matrix(.866025 .5 -.5 .866025 499.775 865.731)" r=".453"/><path d="M469.174 863.2a1.12 1.12 0 0 0 .853.115 1.11 1.11 0 0 0 .68-.526 1.13 1.13 0 0 0-.404-1.547 1.14 1.14 0 0 0-1.555.417c-.15.26-.2.57-.1.86s.272.535.533.682zM439.4 856.6a1.12 1.12 0 0 0 .85.117 1.11 1.11 0 0 0 .68-.524c.154-.26.2-.568.123-.86s-.264-.54-.524-.692a1.14 1.14 0 0 0-1.557.421c-.148.26-.186.57-.106.857a1.13 1.13 0 0 0 .533.68zm-29.253-8.793c.475.275 1.07.237 1.505-.098s.627-.9.483-1.43a1.36 1.36 0 0 0-1.137-.992c-.545-.07-1.078.196-1.35.673-.37.647-.148 1.473.498 1.845zm-28.13-11.627c.486.278 1.105.1 1.384-.377s.1-1.105-.375-1.384-1.105-.113-1.385.372a1.01 1.01 0 0 0-.1.773c.072.26.242.483.477.616zm-27.35-13.494a1.13 1.13 0 1 0 1.126-1.961 1.13 1.13 0 0 0-1.541.413 1.14 1.14 0 0 0 .415 1.548zM328.635 806.8a1.01 1.01 0 0 0 1.385-.378c.278-.487.108-1.107-.378-1.385s-1.107-.108-1.385.378-.1 1.107.378 1.385zm-24.77-17.74a1.12 1.12 0 1 0 1.133-1.962c-.542-.313-1.235-.127-1.548.415s-.127 1.235.415 1.548zM280.4 769.73c.594.344 1.337.296 1.88-.12a1.7 1.7 0 0 0 .606-1.785c-.178-.662-.74-1.153-1.42-1.24s-1.347.243-1.688.84c-.464.8-.187 1.84.62 2.3zm-21.65-21.335a2.031 2.031 0 1 0 2.029-3.519 2.03 2.03 0 0 0-2.774.739 2.04 2.04 0 0 0 .745 2.78zM239.097 725.1a2.04 2.04 0 0 0 2.783-.749 2.04 2.04 0 0 0-.749-2.783 2.04 2.04 0 0 0-2.783.749 2.04 2.04 0 0 0 .75 2.783zm-17.24-25.625c.54.3 1.23.128 1.55-.408.307-.544.12-1.235-.42-1.55a1.13 1.13 0 0 0-1.516.43 1.13 1.13 0 0 0 .385 1.528zM206.1 673.563a1.47 1.47 0 1 0-.534-2.006c-.196.337-.25.738-.15 1.114a1.46 1.46 0 0 0 .684.892zm-13.37-27.478a1.36 1.36 0 1 0-.493-1.853c-.37.65-.15 1.475.494 1.853zm-11.126-28.38c.475.275 1.07.237 1.505-.097a1.36 1.36 0 0 0 .485-1.428 1.37 1.37 0 0 0-1.134-.993 1.36 1.36 0 0 0-1.35.67 1.35 1.35 0 0 0 .496 1.849zm-8.85-29.1a1.47 1.47 0 1 0-.536-2.003c-.195.337-.248.737-.147 1.113s.347.696.684.9zM166.6 558.4a1.02 1.02 0 1 0-.369-1.391 1.02 1.02 0 0 0 .369 1.391zm-3.942-30.24c.355.207.8.18 1.127-.07s.472-.67.366-1.067-.44-.692-.847-.746-.807.142-1.013.498a1.02 1.02 0 0 0 .367 1.385zm-1.613-30.156c.65.373 1.478.15 1.85-.5s.15-1.478-.5-1.85-1.478-.15-1.85.5a1.36 1.36 0 0 0 .5 1.851zm1.15-30.672a1.13 1.13 0 0 0 1.537-.417 1.13 1.13 0 0 0-.412-1.539 1.13 1.13 0 0 0-1.54.408c-.312.542-.127 1.234.415 1.548zm3.57-30.385a1.02 1.02 0 0 0 1.363-.388 1.02 1.02 0 0 0-.345-1.374 1.02 1.02 0 0 0-1.363.388 1.02 1.02 0 0 0 .345 1.374zm6.094-30.093a.79.79 0 1 0-.372-.479.79.79 0 0 0 .372.479zm8.388-29.32a.79.79 0 0 0 1.085-.28.8.8 0 0 0-.296-1.088.79.79 0 0 0-1.082.293.78.78 0 0 0 .292 1.074zm10.81-28.622c.323.186.735.076.92-.247s.076-.735-.247-.92-.735-.076-.92.247-.076.735.247.92zm13.16-27.756a.45.45 0 1 0-.017-.8.45.45 0 0 0 .018.8zm15.298-26.497a.341.341 0 1 0 .341-.591c-.163-.097-.373-.043-.47.12-.047.08-.06.174-.035.263a.35.35 0 0 0 .164.21zm17.457-25.273c.053.025.116.004.143-.048s.018-.115-.03-.148c-.055-.03-.124-.014-.16.04s-.01.125.046.157zm19.33-23.58a.1.1 0 0 0 .15-.043c.017-.025.022-.056.016-.085s-.025-.055-.05-.07c-.055-.028-.123-.007-.153.048-.016.025-.02.055-.014.084s.026.053.05.067zm21.196-21.922c.054.03.122.01.154-.04.027-.055.01-.12-.04-.154-.026-.016-.058-.02-.087-.014s-.055.026-.07.053-.02.06-.01.088.03.055.057.07zm22.9-20.124c.026.016.058.02.087.014s.055-.026.07-.053c.03-.056.01-.125-.046-.157s-.12-.01-.154.04-.012.123.04.154zM406 143.747c.026.016.057.02.086.013s.054-.028.068-.055a.11.11 0 0 0-.044-.15.1.1 0 0 0-.148.04.1.1 0 0 0 .037.152zm479.167 482.44c.026.015.057.02.086.01s.053-.027.068-.053.02-.057.012-.085-.027-.054-.053-.068-.058-.02-.087-.014-.055.026-.07.053-.018.058-.01.088.03.054.056.07zm-11.913 28.064c.025.02.058.027.1.02s.057-.028.072-.056.022-.06.014-.092-.03-.057-.06-.07c-.055-.023-.118-.001-.146.052-.015.024-.02.052-.015.08a.1.1 0 0 0 .046.067zm-.94 69.818a.11.11 0 0 0 .15-.044c.03-.052.012-.117-.04-.148-.025-.017-.056-.022-.085-.016s-.055.025-.07.05-.02.06-.01.088.03.055.057.07zm-18.118 24.53c.026.02.058.026.1.018s.057-.028.072-.056a.11.11 0 0 0 .01-.088c-.01-.028-.032-.053-.06-.066a.1.1 0 0 0-.141.044.1.1 0 0 0 .03.148zM834.297 771.7a.12.12 0 0 0 .162-.036.12.12 0 0 0-.047-.163c-.027-.014-.058-.017-.087-.008a.11.11 0 0 0-.066.057.11.11 0 0 0 .038.151zm-21.552 21.567c.056.025.12.004.152-.05s.01-.116-.04-.147-.125-.02-.16.032a.12.12 0 0 0 .048.164zm-23.115 19.888c.026.015.058.018.087.01s.053-.03.066-.057.02-.055.014-.084-.026-.053-.05-.068-.057-.02-.086-.013-.054.028-.068.055a.11.11 0 0 0 .039.159zm-24.53 18.107c.025.013.055.015.082.006s.05-.028.062-.054a.11.11 0 0 0-.028-.151c-.027-.016-.06-.02-.1-.013s-.056.028-.07.056-.02.058-.01.088.03.054.057.068zM739.28 847.5c.027.015.06.018.1.01s.054-.03.068-.058a.11.11 0 0 0-.047-.143c-.05-.033-.117-.02-.152.028-.017.027-.022.06-.015.1s.028.057.056.073zm-27.07 14.445c.162.092.368.037.463-.124s.04-.374-.126-.47-.374-.04-.47.126a.34.34 0 0 0 .132.468zm-28 12.29a.45.45 0 0 0 .619-.169c.06-.104.078-.228.047-.344s-.106-.216-.2-.277a.45.45 0 0 0-.61.174.45.45 0 0 0-.052.34c.028.116.103.215.205.276zm-28.943 10.367a.79.79 0 1 0 .789-1.367.79.79 0 1 0-.789 1.367zm-29.457 7.9c.278.163.627.142.883-.053s.37-.525.287-.837-.345-.542-.664-.584-.633.112-.793.4c-.22.378-.1.863.287 1.083zm-29.903 5.57a.68.68 0 0 0 .928-.246.68.68 0 1 0-1.243-.168.68.68 0 0 0 .315.414zm-30.302 3.41a.68.68 0 0 0 .933-.243c.1-.157.114-.343.065-.517s-.165-.32-.324-.408-.338-.115-.5-.07a.69.69 0 0 0-.407.315c-.087.155-.115.34-.07.512a.67.67 0 0 0 .313.41zm-31.313 2.6a2.371 2.371 0 1 0-.872-3.238c-.653 1.135-.263 2.585.87 3.24zm-30.126-1.717a1.7 1.7 0 1 0-.622-2.322 1.69 1.69 0 0 0 .622 2.322zm-29.97-4.007a1.02 1.02 0 1 0-.365-1.388 1.02 1.02 0 0 0 .365 1.388zM444 893.07a1.47 1.47 0 1 0-.534-2.008c-.405.702-.166 1.6.534 2.008zm-29.62-7.6a1.81 1.81 0 1 0-.663-2.472 1.81 1.81 0 0 0 .663 2.472zm-28.775-10.065a1.81 1.81 0 1 0-.667-2.475c-.24.416-.307.912-.18 1.376a1.82 1.82 0 0 0 .848 1.1zm-27.727-12.588c.648.375 1.478.154 1.853-.494s.154-1.478-.494-1.853-1.478-.154-1.853.494c-.18.3-.23.68-.137 1.03s.32.644.63.824zm-26.955-14.25a1.36 1.36 0 1 0-.499-1.852 1.36 1.36 0 0 0 .5 1.852zm-26.158-15.638c.973.56 2.216.226 2.776-.747s.226-2.216-.747-2.776-2.216-.226-2.776.747a2.03 2.03 0 0 0 .747 2.776zm-24.36-18.392a1.7 1.7 0 1 0-.792-1.032 1.7 1.7 0 0 0 .792 1.032zm-23.342-19.5a2.15 2.15 0 1 0-.78-2.935c-.287.492-.366 1.08-.22 1.63s.506 1.02 1 1.306zm-21.954-20.877a2.94 2.94 0 0 0 4.013-1.075 2.94 2.94 0 0 0-1.075-4.013 2.94 2.94 0 0 0-4.013 1.075c-.4.675-.497 1.477-.295 2.23a2.94 2.94 0 0 0 1.37 1.784zm-19.833-23.2a2.83 2.83 0 1 0-1.034-3.859c-.375.65-.477 1.42-.283 2.144s.668 1.34 1.317 1.715zm-17.705-25.218c.972.56 2.215.226 2.776-.746s.228-2.215-.744-2.776-2.215-.23-2.777.742a2.03 2.03 0 0 0 .745 2.78zm-16.67-25.03c1.408.813 3.208.33 4.02-1.077s.33-3.208-1.077-4.02-3.208-.33-4.02 1.077-.33 3.207 1.077 4.02zm-13.804-27.746c.973.562 2.218.23 2.78-.745s.23-2.218-.744-2.78-2.218-.23-2.78.744c-.27.467-.344 1.023-.204 1.545a2.03 2.03 0 0 0 .95 1.236zM154.672 645.4a2.49 2.49 0 0 0 3.652-2.793c-.258-.972-1.08-1.692-2.078-1.824s-1.977.35-2.48 1.223c-.33.57-.42 1.248-.25 1.885s.586 1.18 1.156 1.5z"/><circle cx="2.146" cy="2.146" transform="matrix(.866025 .5 -.5 .866025 145.063 611.535)" r="2.146"/><path d="M137.06 586.585c.867.492 1.968.2 2.462-.676s.194-1.968-.67-2.463-1.967-.198-2.464.666a1.8 1.8 0 0 0 .674 2.473zm-5.34-30.55a1.13 1.13 0 1 0-.411-1.545c-.3.54-.127 1.23.4 1.545zm-3.525-30.108c.65.373 1.478.15 1.85-.5s.15-1.478-.5-1.85-1.478-.15-1.85.5c-.18.312-.227.682-.134 1.03a1.35 1.35 0 0 0 .634.822zm-1.03-30.666a1.13 1.13 0 1 0-.406-1.542 1.13 1.13 0 0 0 .406 1.543zm1.138-30.46a1.13 1.13 0 1 0-.413-1.541 1.13 1.13 0 0 0 .413 1.541zm3.476-30.405c.485.28 1.106.114 1.387-.372s.114-1.106-.372-1.387-1.106-.114-1.387.372-.114 1.106.372 1.387zm5.617-29.858a1.12 1.12 0 0 0 .855.107c.288-.08.533-.27.68-.53a1.13 1.13 0 0 0-.413-1.541 1.13 1.13 0 0 0-1.541.413c-.15.26-.2.57-.112.862s.27.538.53.688zm7.888-29.454a1.13 1.13 0 1 0-.53-.685 1.13 1.13 0 0 0 .529.685zm10.123-28.883a1.02 1.02 0 1 0-.371-1.387c-.135.233-.17.5-.102.77a.98.98 0 0 0 .473.616zm12.196-27.942a1.02 1.02 0 1 0-.369-1.391 1.02 1.02 0 0 0 .369 1.391zm14.41-27.256c.325.192.745.085.938-.24a.69.69 0 0 0-.261-.932c-.324-.187-.738-.076-.925.248s-.076.738.248.925zm16.34-26.008c.16.093.358.08.505-.03s.2-.3.163-.48a.45.45 0 0 0-.38-.333c-.182-.023-.36.066-.452.226a.45.45 0 0 0 .165.616zm18.102-24.538a.45.45 0 1 0 .453-.786.46.46 0 0 0-.623.167.46.46 0 0 0 .17.62zM236.4 217.25c.077.047.17.06.258.036s.16-.08.205-.16a.34.34 0 0 0-.125-.462c-.163-.092-.37-.038-.466.12a.34.34 0 0 0 .128.465zm21.68-21.76c.025.016.056.022.085.015s.055-.025.07-.05.02-.06.013-.1-.028-.056-.055-.07c-.057-.032-.128-.013-.16.043s-.007.123.048.153zm23.114-19.887c.052.03.12.013.15-.038s.017-.126-.035-.163c-.06-.03-.13-.008-.164.048-.026.056-.005.122.048.153zm24.53-18.108c.025.017.057.023.087.015s.054-.03.068-.056.023-.057.015-.087-.03-.054-.056-.068a.11.11 0 0 0-.15.044.11.11 0 0 0 .037.152zm25.817-16.22c.055.032.126.016.162-.037.03-.058.01-.13-.047-.163s-.125-.01-.157.046-.01.12.04.154zm26.96-14.254a.11.11 0 0 0 .111-.192c-.025-.013-.055-.015-.082-.006s-.05.028-.062.054a.1.1 0 0 0 .033.144zm27.95-12.2c.053.032.122.017.155-.035.015-.027.018-.058.01-.087s-.028-.054-.055-.07a.11.11 0 0 0-.111.192zm28.783-10.067a.1.1 0 0 0 .141-.044.1.1 0 0 0-.028-.152c-.027-.016-.06-.02-.1-.013s-.056.028-.07.056c-.028.055-.007.123.048.153zm29.443-7.893a.12.12 0 0 0 .164-.04.12.12 0 0 0-.049-.159c-.054-.026-.12-.007-.15.044s-.015.12.035.155zm29.964-5.67c.053.03.12.014.156-.035.032-.057.013-.128-.043-.16-.027-.015-.058-.018-.088-.01s-.054.03-.07.056c-.026.054-.007.12.044.15z"/><use xlink:href="#B" x="-354.152" y="-593.47"/><path d="M535.413 86.65c.025.015.056.02.085.01a.11.11 0 0 0 .065-.054.11.11 0 0 0-.037-.152c-.026-.016-.058-.02-.087-.014s-.055.026-.07.053-.02.06-.01.088.03.055.057.07zm60.767 4.552c.054.03.123.012.154-.04.015-.025.02-.056.01-.085a.11.11 0 0 0-.054-.065.1.1 0 0 0-.148.04.11.11 0 0 0 .037.152zm318.77 552.144c.027.018.06.024.1.016s.058-.028.073-.057.023-.06.013-.1a.11.11 0 0 0-.062-.068.1.1 0 0 0-.143.048.11.11 0 0 0 .028.151zm-12.178 27.948c.052.03.117.012.148-.04s.018-.122-.035-.156c-.027-.016-.06-.02-.1-.013s-.056.028-.07.056-.017.058-.008.087a.11.11 0 0 0 .057.066zm15.178 43.948a.11.11 0 0 0 .15-.044c.016-.025.02-.055.014-.084s-.026-.053-.05-.068-.058-.022-.088-.015-.056.027-.07.054-.018.058-.01.088.03.054.056.07zm-16.155 25.86c.025.015.054.02.082.012s.05-.026.065-.05.024-.056.017-.086-.025-.055-.052-.07-.058-.018-.088-.01-.054.03-.07.056c-.028.054-.01.12.044.15zm-17.895 24.7a.1.1 0 0 0 .141-.044.11.11 0 0 0-.03-.148c-.026-.016-.058-.02-.087-.014s-.055.026-.07.053a.11.11 0 0 0 .049.153zM864.237 789.4a.34.34 0 0 0 .46-.127c.046-.077.06-.17.037-.255s-.08-.16-.157-.205c-.163-.097-.373-.043-.47.12a.35.35 0 0 0 .132.468zm-21.13 22a.34.34 0 0 0 .461-.131c.045-.077.058-.17.035-.255s-.08-.16-.156-.205c-.162-.1-.367-.036-.462.124s-.04.37.12.467zm-22.585 20.48a.35.35 0 0 0 .465-.128c.044-.078.056-.17.032-.256a.33.33 0 0 0-.16-.203.34.34 0 0 0-.468.115c-.1.167-.032.374.13.47zm-23.947 18.877a.34.34 0 0 0 .461-.131c.093-.16.04-.365-.12-.46a.35.35 0 0 0-.47.119c-.1.166-.034.375.13.472zM771.5 867.713c.026.016.057.02.086.012a.11.11 0 0 0 .068-.053c.014-.026.02-.056.01-.085a.11.11 0 0 0-.054-.065c-.026-.013-.054-.02-.082-.012s-.05.026-.065.05a.11.11 0 0 0 .037.152zM745.053 883.3c.08.047.174.06.263.037s.165-.08.2-.16c.1-.167.033-.375-.13-.472-.164-.1-.37-.033-.464.128a.34.34 0 0 0 .121.467zm-27.48 13.848a.68.68 0 0 0 .929-.245.682.682 0 0 0-1.181-.682.68.68 0 0 0 .252.927zm-28.186 11.63c.326.183.74.07.927-.252a.68.68 0 0 0-.249-.928.68.68 0 0 0-.928.249.69.69 0 0 0 .25.932zm-28.98 9.75a.792.792 0 1 0 .79-1.373.79.79 0 0 0-.79 1.373zm-29.463 7.547a.68.68 0 0 0 .926-.253.67.67 0 0 0 .066-.512c-.047-.172-.16-.32-.315-.408s-.34-.12-.515-.075a.68.68 0 0 0-.416.313c-.09.155-.114.344-.067.52a.68.68 0 0 0 .32.414zm-30.377 6.265a1.471 1.471 0 0 0 1.472-2.548 1.47 1.47 0 0 0-2.159 1.654c.1.377.35.7.688.893zm-30.627 4.08c1.028.6 2.338.234 2.928-.794a2.15 2.15 0 0 0-.79-2.93c-1.026-.592-2.338-.237-2.93.8a2.14 2.14 0 0 0 .793 2.932zm-31.26 2.772a3.73 3.73 0 1 0-1.364-5.091 3.73 3.73 0 0 0 1.364 5.091zm-30.477-.692c1.785 1.03 4.067.42 5.098-1.366a3.73 3.73 0 1 0-6.463-3.733c-1.03 1.785-.42 4.067 1.366 5.1zm-29.743-3.884a2.49 2.49 0 0 0 3.395-.916 2.49 2.49 0 0 0-.914-3.395 2.49 2.49 0 0 0-3.396.912c-.33.572-.42 1.252-.248 1.9s.6 1.18 1.164 1.5zm-30.152-4.796a2.6 2.6 0 1 0-1.211-1.578 2.6 2.6 0 0 0 1.211 1.579zm-29.46-7.338a2.151 2.151 0 1 0-1.01-1.308 2.15 2.15 0 0 0 1.009 1.309zm-28.807-9.58a1.48 1.48 0 0 0 1.637-.1 1.47 1.47 0 0 0 .53-1.55c-.154-.576-.64-1.004-1.232-1.082s-1.172.2-1.47.726a1.47 1.47 0 0 0 .534 2.008zm-28.892-10.196a2.371 2.371 0 1 0-1.114-1.441 2.37 2.37 0 0 0 1.114 1.441zm-27.345-13.404a1.81 1.81 0 1 0-.844-1.099 1.81 1.81 0 0 0 .844 1.099zM307.14 874.52a1.81 1.81 0 1 0-.848-1.099 1.81 1.81 0 0 0 .848 1.099zm-25.87-16.1c1.137.654 2.588.264 3.244-.872s.266-2.588-.87-3.244-2.588-.268-3.245.867-.265 2.6.87 3.25zm-24.657-17.834a2.94 2.94 0 1 0-1.37-1.786 2.94 2.94 0 0 0 1.37 1.786zM233.8 820.24a2.49 2.49 0 0 0 3.391-.925 2.49 2.49 0 0 0-.919-3.392 2.49 2.49 0 0 0-3.393.914c-.684 1.194-.272 2.718.922 3.403zm-22.378-20.232a3.96 3.96 0 1 0-1.44-5.401 3.96 3.96 0 0 0 1.44 5.402zm-20.535-22.158a4.86 4.86 0 1 0-1.782-6.636 4.85 4.85 0 0 0 1.782 6.636zm-18.007-25.048a3.96 3.96 0 0 0 5.406-1.447 3.96 3.96 0 1 0-7.25-.959 3.96 3.96 0 0 0 1.844 2.406zM156.143 727.3c1.892 1.086 4.307.434 5.395-1.458s.437-4.306-1.453-5.396-4.306-.44-5.397 1.45a3.95 3.95 0 0 0 1.456 5.405zm-15.17-26.175a4.41 4.41 0 1 0-1.62-6.021 4.41 4.41 0 0 0 1.621 6.021zM127.4 674.458a5.43 5.43 0 0 0 7.409-1.992 5.43 5.43 0 1 0-9.943-1.307 5.43 5.43 0 0 0 2.534 3.299zm-9.904-30.546c1.405.8 3.2.326 4.008-1.078s.327-3.2-1.078-4.008-3.2-.327-4.008 1.077a2.94 2.94 0 0 0 1.078 4.009zm-9.16-29.08a2.94 2.94 0 1 0-1.069-4.016c-.8 1.404-.332 3.2 1.07 4.015zm-6.844-30.14c1.134.658 2.587.272 3.245-.862s.272-2.587-.862-3.245-2.587-.272-3.245.862-.272 2.586.862 3.245zm-4.944-30.263a2.151 2.151 0 1 0 2.149-3.727 2.15 2.15 0 0 0-2.938.786c-.593 1.03-.24 2.345.8 2.94zm-2.984-30.35a2.15 2.15 0 1 0-.78-2.935 2.16 2.16 0 0 0 .78 2.935zm-1.044-30.187a2.49 2.49 0 0 0 2.76-.182c.8-.614 1.148-1.647.886-2.62s-1.083-1.7-2.08-1.82-1.976.355-2.477 1.228c-.33.57-.418 1.25-.246 1.885a2.49 2.49 0 0 0 1.16 1.507zm1.625-31.15c.8.465 1.846.185 2.312-.625s.188-1.846-.622-2.313-1.846-.2-2.314.62a1.7 1.7 0 0 0 .624 2.32z"/><circle cx="1.131" cy="1.131" transform="matrix(.866025 .5 -.5 .866025 97.904 429.422)" r="1.131"/><path d="M103.055 402.13c.65.37 1.48.145 1.85-.506s.145-1.48-.506-1.85-1.48-.145-1.85.506a1.35 1.35 0 0 0 .506 1.85zm7.458-29.56a1.35 1.35 0 0 0 1.848-.5 1.351 1.351 0 1 0-2.345-1.343 1.35 1.35 0 0 0 .496 1.843zM120 343.6a1.36 1.36 0 0 0 1.85-.505c.372-.65.146-1.477-.503-1.85s-1.477-.148-1.85.5a1.36 1.36 0 0 0-.134 1.032 1.35 1.35 0 0 0 .638.822zm11.58-28.454a1.13 1.13 0 0 0 1.541-.413 1.13 1.13 0 0 0-.413-1.541c-.258-.15-.565-.2-.853-.1a1.13 1.13 0 0 0-.68.53c-.148.26-.192.564-.116.852s.263.534.52.684zm13.62-27.788a.68.68 0 0 0 .752-.044c.22-.164.315-.447.245-.712s-.293-.462-.565-.498-.54.095-.676.333a.68.68 0 0 0 .243.922zm15.077-26.114c.486.277 1.104.1 1.383-.375s.113-1.104-.37-1.384-1.103-.117-1.386.365a1.01 1.01 0 0 0 .373 1.394zm17.025-25.3a1.02 1.02 0 1 0-.369-1.39 1.02 1.02 0 0 0 .369 1.391zm19.03-24.547a.45.45 0 0 0 .34.048c.116-.03.213-.104.273-.207a.45.45 0 1 0-.786-.453c-.06.104-.074.227-.042.342s.1.212.215.27zm20.23-22.512a.68.68 0 0 0 .93-.238c.1-.158.116-.345.07-.52s-.162-.326-.32-.417-.343-.112-.517-.064a.68.68 0 0 0-.41.323c-.185.32-.075.732.246.918zm22-21.44a.45.45 0 0 0 .615-.163c.1-.215.034-.48-.176-.6s-.478-.056-.6.148a.45.45 0 0 0 .17.617zm23.45-19.99c.025.016.055.02.084.014s.053-.026.068-.05.02-.056.01-.085a.11.11 0 0 0-.054-.065c-.026-.013-.055-.02-.084-.014s-.053.026-.068.05-.02.056-.01.085a.11.11 0 0 0 .054.065zm24.583-18.028c.055.026.12.005.152-.047a.11.11 0 0 0-.037-.152c-.026-.017-.058-.022-.088-.015s-.056.027-.07.054c-.03.056-.012.128.044.16zm25.658-16.102a.34.34 0 0 0 .26.034.35.35 0 0 0 .21-.16c.095-.164.04-.374-.126-.47s-.374-.04-.47.126-.04.374.125.47zm26.832-14.485c.164.094.374.038.47-.126.1-.164.033-.37-.128-.464-.16-.1-.364-.032-.454.128-.048.076-.062.168-.04.255s.077.162.154.207zm27.72-12.494a.45.45 0 1 0 .454-.785.44.44 0 0 0-.343-.048c-.116.032-.215.108-.273.213s-.08.228-.05.345.108.217.213.276zm28.623-10.75a.35.35 0 0 0 .47-.126c.1-.163.03-.368-.13-.46-.077-.044-.168-.056-.253-.033s-.16.08-.203.156a.34.34 0 0 0 .118.464zm29.238-8.65a.34.34 0 0 0 .469-.126c.046-.078.058-.172.034-.26s-.082-.16-.162-.205-.17-.056-.255-.032-.16.08-.203.158a.34.34 0 0 0 .117.465zm29.768-6.618a.34.34 0 0 0 .47-.126.341.341 0 1 0-.594-.336.34.34 0 0 0 .124.462zm30.274-4.732a.12.12 0 0 0 .159-.05c.015-.025.02-.056.01-.085a.11.11 0 0 0-.054-.065c-.053-.033-.122-.018-.156.035a.13.13 0 0 0 .04.166zm30.4-2.463c.025.016.055.02.084.014s.053-.026.067-.05.02-.057.012-.085-.027-.054-.053-.068-.058-.02-.087-.014-.055.026-.07.053a.11.11 0 0 0 .049.153zm30.488-.335c.027.015.058.018.088.01s.054-.03.07-.056a.11.11 0 0 0-.044-.15c-.025-.017-.056-.022-.085-.016s-.055.025-.07.05-.02.06-.013.1.028.056.056.07zm30.442 1.742a.12.12 0 0 0 .154-.04c.034-.05.012-.123-.04-.154-.026-.016-.057-.02-.086-.012a.11.11 0 0 0-.068.053c-.03.054-.012.123.04.154zM963.672 602.56c.055.03.124.014.158-.04.015-.027.018-.058.01-.087s-.028-.054-.055-.07-.058-.02-.087-.014-.055.026-.07.053c-.03.056-.01.125.046.157zm-8.478 29.288a.1.1 0 0 0 .143-.048.1.1 0 0 0-.033-.144c-.025-.016-.055-.02-.084-.014s-.053.026-.068.05-.02.057-.013.086.028.054.055.068zM944.7 660.484c.053.025.116.004.143-.048s.02-.116-.028-.152c-.027-.015-.058-.018-.088-.01s-.054.03-.07.056-.02.057-.012.086a.11.11 0 0 0 .053.068zm-12.432 27.838c.026.016.058.02.087.01s.053-.03.065-.058.02-.055.014-.084-.026-.053-.05-.068c-.054-.03-.123-.012-.154.04-.017.026-.022.058-.014.087s.027.055.054.07zm14.994 44.105c.162.092.368.037.463-.124s.038-.37-.122-.467a.35.35 0 0 0-.473.123c-.092.166-.033.375.132.468zm-16.094 25.905a.35.35 0 0 0 .474-.123.35.35 0 0 0-.133-.467.341.341 0 1 0-.341.591zm-17.704 24.818a.33.33 0 0 0 .456-.122c.047-.077.062-.17.04-.257s-.08-.162-.157-.207c-.164-.094-.373-.038-.47.126-.1.163-.03.368.13.46zm-19.33 23.737c.215.1.48.034.6-.176s.056-.478-.148-.6a.45.45 0 0 0-.612.168c-.126.214-.055.5.158.618zm-20.738 22.353c.215.1.48.034.6-.176s.056-.478-.148-.6c-.215-.1-.48-.034-.6.176s-.056.478.148.6zm-22.414 21.46c.355.207.8.18 1.127-.07s.472-.67.366-1.067-.44-.692-.847-.746-.807.142-1.013.498a1.01 1.01 0 0 0 .367 1.386zm-23.595 19.818c.648.372 1.476.15 1.85-.498s.153-1.475-.493-1.85-1.475-.157-1.852.488a1.36 1.36 0 0 0 .495 1.86zm-24.125 17.097c.164.092.372.035.466-.128a.34.34 0 0 0-.124-.462.34.34 0 0 0-.462.124c-.094.162-.04.37.12.467zm-25.733 16.36c.078.046.17.058.258.035s.16-.08.206-.16a.34.34 0 0 0-.124-.462.34.34 0 0 0-.462.124c-.047.077-.06.17-.036.257s.08.16.16.205zm-26.894 14.976a.68.68 0 0 0 .926-.252.68.68 0 1 0-1.245-.159.68.68 0 0 0 .319.411zm-27.496 12.73c.214.123.487.05.6-.163s.05-.487-.163-.6-.487-.05-.6.163-.05.487.163.6zm-28.505 11.345a.67.67 0 0 0 .92-.25c.088-.156.12-.34.075-.515a.68.68 0 0 0-.313-.416.69.69 0 0 0-.934.254c-.183.326-.07.74.252.927zm-29.435 9.98a1.47 1.47 0 0 0 2.007-.532 1.47 1.47 0 0 0-.531-2.008 1.47 1.47 0 0 0-2.008.529c-.406.703-.168 1.6.532 2zm-29.865 7.91a2.04 2.04 0 1 0-.74-2.779 2.04 2.04 0 0 0 .74 2.778zm-29.705 5.022a1.471 1.471 0 0 0 1.472-2.548 1.471 1.471 0 0 0-1.472 2.548zm-30.734 4.354a2.371 2.371 0 1 0-.872-3.238c-.653 1.135-.263 2.584.87 3.24zm-30.9 2.413c1.568.902 3.57.363 4.472-1.204a3.28 3.28 0 0 0-1.2-4.473 3.28 3.28 0 0 0-4.474 1.2c-.904 1.567-.364 3.572 1.203 4.478zm-31.114.753a4.52 4.52 0 0 0 6.174-1.66c1.246-2.163.504-4.928-1.658-6.175s-4.927-.506-6.176 1.656a4.52 4.52 0 0 0 1.659 6.18zm-29.79-3.36a3.28 3.28 0 1 0-1.199-4.475c-.9 1.568-.364 3.568 1.2 4.475z"/><use xlink:href="#C"/><path d="M422.235 961.098c1.703.984 3.832.845 5.393-.352s2.247-3.217 1.738-5.117-2.113-3.307-4.064-3.563-3.863.688-4.846 2.392c-.646 1.116-.82 2.443-.488 3.7s1.15 2.307 2.267 2.95zm-28.45-9.698a2.94 2.94 0 0 0 3.264-.21c.944-.725 1.362-1.946 1.055-3.096s-1.277-2.002-2.458-2.158a2.94 2.94 0 0 0-2.934 1.446 2.95 2.95 0 0 0 1.073 4.018zm-28.942-9.737a3.16 3.16 0 0 0 3.508-.235c1.014-.78 1.46-2.095 1.126-3.33s-1.378-2.15-2.647-2.314-2.513.45-3.15 1.56a3.16 3.16 0 0 0 1.164 4.32zM336.416 930.4a3.73 3.73 0 1 0-1.365-5.093c-.495.856-.63 1.874-.373 2.83s.88 1.77 1.737 2.264zm-26.768-14.493a2.6 2.6 0 1 0-1.212-1.581 2.6 2.6 0 0 0 1.212 1.581zm-26.915-14.367a3.62 3.62 0 0 0 4.942-1.321 3.62 3.62 0 0 0-1.321-4.942 3.62 3.62 0 0 0-5.306 4.066c.248.927.854 1.717 1.685 2.197zm-25.608-16.512a4.07 4.07 0 1 0-1.481-5.556c-1.12 1.944-.458 4.428 1.48 5.556zm-24.24-18.498a4.07 4.07 0 1 0-1.486-5.558 4.07 4.07 0 0 0 1.486 5.559zm-23.114-19.817a4.3 4.3 0 1 0-1.577-5.868 4.3 4.3 0 0 0 1.577 5.868zm-22.358-20.273c1.98 1.146 4.456.985 6.27-.406s2.615-3.74 2.023-5.95-2.456-3.846-4.724-4.145-4.493.798-5.637 2.78c-1.56 2.703-.637 6.16 2.066 7.722zm-20.652-22.106c2.257 1.305 5.078 1.122 7.148-.464a6.44 6.44 0 0 0 2.305-6.78 6.45 6.45 0 0 0-5.384-4.724 6.43 6.43 0 0 0-6.424 3.168 6.44 6.44 0 0 0 2.355 8.801zm-18.2-25.024c1.86 1.076 4.187.924 5.893-.385s2.455-3.516 1.898-5.592-2.3-3.613-4.44-3.893-4.222.752-5.295 2.614c-1.466 2.54-.595 5.788 1.945 7.255zm-18.422-23.04a7.8 7.8 0 1 0-3.634-4.736 7.8 7.8 0 0 0 3.634 4.736zm-15.018-27.125c3.244 1.873 7.393.762 9.266-2.483s.762-7.393-2.483-9.266-7.393-.762-9.266 2.483a6.79 6.79 0 0 0 2.483 9.266zm-13.988-26.89a7.12 7.12 0 1 0-2.608-9.728 7.13 7.13 0 0 0 2.607 9.728zm-11.594-28.8a6.22 6.22 0 0 0 8.495-2.276 6.22 6.22 0 0 0-2.276-8.495 6.22 6.22 0 0 0-8.495 2.276c-1.716 2.975-.697 6.777 2.276 8.495zm-10.394-28.433c3.135 1.8 7.144.738 8.955-2.397s.738-7.144-2.397-8.955-7.144-.738-8.955 2.397a6.56 6.56 0 0 0 2.397 8.955zm-7.23-31.284a4.3 4.3 0 1 0-1.566-5.87 4.29 4.29 0 0 0 1.566 5.871z"/><use xlink:href="#D"/><circle cx="3.614" cy="3.614" transform="matrix(.866025 .5 -.5 .866025 61.739 545.135)" r="3.614"/><path d="M58.877 522.428c1.1.642 2.496.552 3.513-.228s1.463-2.096 1.13-3.333-1.378-2.153-2.65-2.318-2.516.45-3.154 1.563a3.17 3.17 0 0 0 1.16 4.317zm-.317-31.072c.87.507 1.96.44 2.76-.17a2.49 2.49 0 0 0-1.182-4.443c-.997-.132-1.978.35-2.48 1.223-.686 1.186-.282 2.703.902 3.4zm1.135-30.17a2.83 2.83 0 0 0 3.862-1.037 2.83 2.83 0 0 0-1.035-3.862 2.83 2.83 0 0 0-3.863 1.033 2.82 2.82 0 0 0 1.036 3.866zm3.255-30.316a2.83 2.83 0 0 0 3.861-1.035 2.83 2.83 0 1 0-5.18-.686 2.83 2.83 0 0 0 1.319 1.721zm5.13-29.955a2.94 2.94 0 1 0-1.073-4.018c-.8 1.406-.33 3.203 1.073 4.018zm7.497-30.34a2.15 2.15 0 0 0 2.932-.792 2.15 2.15 0 0 0-.79-2.932 2.15 2.15 0 0 0-3.147 2.42c.148.552.5 1.02 1.005 1.304zm9.046-29.236a2.04 2.04 0 1 0-.745-2.78c-.27.467-.344 1.023-.204 1.545a2.03 2.03 0 0 0 .95 1.236zm10.66-28.216a2.37 2.37 0 1 0-.868-3.236c-.652 1.133-.264 2.58.867 3.236zm12.922-28.236a1.81 1.81 0 1 0-.654-2.467 1.81 1.81 0 0 0 .654 2.468zm14.46-26.98c.595.34 1.337.3 1.88-.13a1.7 1.7 0 0 0 .6-1.786c-.18-.662-.74-1.15-1.42-1.237s-1.346.244-1.686.84c-.224.4-.283.853-.166 1.287a1.69 1.69 0 0 0 .793 1.026zm16.193-26.102c.702.402 1.597.16 2-.542s.162-1.597-.54-2-1.596-.164-2 .536c-.196.337-.25.74-.147 1.115s.35.697.688.9zm17.708-24.823a1.47 1.47 0 0 0 2.009-.528 1.47 1.47 0 0 0-.528-2.009 1.47 1.47 0 0 0-2.009.528 1.47 1.47 0 0 0 .528 2.009zm19.446-23.932a1.13 1.13 0 1 0-.415-1.536c-.3.54-.123 1.226.415 1.537zm20.96-22.737c.324.187.738.076.925-.248s.076-.738-.248-.925a.68.68 0 0 0-.929.245.68.68 0 0 0 .252.927zm21.904-20.587a1.13 1.13 0 0 0 1.725-.973 1.13 1.13 0 0 0-.595-.985 1.13 1.13 0 0 0-1.725.973 1.13 1.13 0 0 0 .595.985zm23.77-20.104c.16.1.358.077.503-.035s.208-.302.16-.48a.45.45 0 0 0-.38-.33c-.18-.022-.36.066-.45.226-.06.104-.075.228-.044.344s.108.215.213.274zm24.516-17.792a.67.67 0 0 0 .924-.237.68.68 0 0 0-.249-.928.68.68 0 0 0-.928.249.67.67 0 0 0 .253.916zm25.9-16.65a.34.34 0 0 0 .467-.122c.092-.164.034-.37-.13-.465a.34.34 0 0 0-.462.124.34.34 0 0 0 .124.462zm26.565-14.383c.323.186.735.076.92-.247s.076-.735-.247-.92-.735-.076-.92.247-.076.735.247.92zm27.724-13.13c.103.06.225.074.34.043a.47.47 0 0 0 .27-.2c.06-.093.08-.224.05-.34a.44.44 0 0 0-.208-.273.45.45 0 0 0-.702.385.45.45 0 0 0 .252.395zm28.44-11.24c.077.046.17.06.255.036a.35.35 0 0 0 .205-.156.35.35 0 0 0-.12-.47c-.167-.092-.377-.035-.475.127s-.03.372.134.463zm29.037-9.3c.162.094.37.043.468-.115a.35.35 0 0 0-.13-.471c-.078-.045-.17-.056-.258-.03a.34.34 0 0 0-.236.413c.023.085.08.16.156.203zm29.688-7.62c.025.018.056.024.087.018s.056-.025.072-.05.02-.06.012-.1a.11.11 0 0 0-.058-.07c-.028-.013-.056-.014-.084-.005s-.05.03-.062.057a.1.1 0 0 0 .033.144zM985.24 649.1c.025.016.055.02.084.014s.053-.026.067-.05.022-.057.015-.087-.026-.056-.053-.07c-.057-.032-.128-.013-.16.043s-.007.123.048.153zm-10.833 28.505c.027.015.058.018.088.01s.054-.03.07-.056c.027-.055.01-.12-.04-.154s-.124-.013-.16.04c-.016.027-.02.06-.013.1s.028.056.056.07zm-12.647 27.75c.055.032.126.013.158-.042s.013-.126-.042-.158c-.056-.026-.122-.005-.153.048s-.012.118.037.152zm14.922 44.066a.35.35 0 0 0 .47-.12c.1-.166.033-.375-.13-.47a.34.34 0 1 0-.341.591zM960.3 775.94a1.02 1.02 0 1 0-.364-1.388 1.01 1.01 0 0 0-.105.77c.07.26.237.483.47.62zm-17.435 24.745c.278.16.627.14.882-.057s.368-.526.284-.837a.8.8 0 0 0-.665-.583.79.79 0 0 0-.792.392c-.106.182-.134.4-.08.603s.188.377.37.482zm-19.017 23.84c.378.2.847.066 1.06-.305s.096-.844-.267-1.07c-.378-.2-.847-.066-1.06.305s-.096.844.267 1.07zM903.5 847.08c.324.187.738.076.925-.248s.076-.738-.248-.925-.738-.076-.925.248c-.1.155-.115.34-.068.514s.16.32.316.4z"/><circle cx="2.146" cy="2.146" transform="matrix(.866025 .5 -.5 .866025 881.346 864.968)" r="2.146"/><path d="M857.3 891.192a3.73 3.73 0 1 0-1.738-2.268 3.73 3.73 0 0 0 1.738 2.268zm-22.936 16.604a1.361 1.361 0 1 0 1.362-2.357 1.36 1.36 0 0 0-1.859.49 1.37 1.37 0 0 0 .497 1.867zm-25.988 18.546c1.406.815 3.207.336 4.022-1.07s.336-3.207-1.07-4.022-3.207-.336-4.022 1.07-.334 3.206 1.07 4.022zm-25.893 15.146a2.38 2.38 0 0 0 2.635-.17c.763-.584 1.098-1.572.85-2.5s-1.033-1.616-1.986-1.74a2.38 2.38 0 0 0-2.368 1.17c-.654 1.136-.266 2.587.87 3.243zm-26.39 12.87a1.02 1.02 0 1 0-.371-1.387c-.28.486-.113 1.106.372 1.387zm-28.255 13.086a1.81 1.81 0 1 0-.654-2.467 1.82 1.82 0 0 0 .654 2.468zm-28.485 10.626a1.7 1.7 0 1 0-.626-2.317 1.7 1.7 0 0 0 .625 2.317zm-29.14 9a1.7 1.7 0 1 0-.621-2.324c-.228.4-.3.855-.174 1.292a1.69 1.69 0 0 0 .795 1.032zm-30.196 8.2c1.354.783 3.086.32 3.87-1.034s.32-3.086-1.033-3.87-3.086-.32-3.87 1.033-.32 3.086 1.033 3.87zm-153.12 11.622a5.77 5.77 0 1 0-2.107-7.877 5.77 5.77 0 0 0 2.107 7.877z"/><use xlink:href="#C" x="4.97" y="35.217"/><path d="M427.073 997.028a4.86 4.86 0 1 0-2.265-2.951 4.86 4.86 0 0 0 2.266 2.951zM397.45 989.8a4.86 4.86 0 0 0 6.635-1.781 4.86 4.86 0 0 0-1.781-6.635 4.86 4.86 0 0 0-6.635 1.781 4.86 4.86 0 0 0 1.781 6.635zm-28.693-9.763a3.96 3.96 0 1 0-1.446-5.411c-.527.9-.67 2-.4 3.005s.935 1.88 1.845 2.406zm-28.43-10.917a3.73 3.73 0 1 0-1.364-5.091 3.73 3.73 0 0 0 1.364 5.091zm-28.032-12.106a4.07 4.07 0 1 0-1.488-5.554 4.07 4.07 0 0 0 1.488 5.554zm-27.287-13.652c1.584.916 3.565.788 5.018-.326s2.092-2.992 1.62-4.76-1.964-3.077-3.78-3.317a4.52 4.52 0 0 0-4.51 2.222c-.6 1.04-.764 2.274-.454 3.433s1.068 2.148 2.107 2.748zM258.2 928.78a5.76 5.76 0 1 0-2.116-7.871c-.765 1.324-.972 2.898-.575 4.374s1.365 2.735 2.7 3.496zm-25.182-17.172c2.76 1.583 6.28.632 7.864-2.126s.637-6.278-2.12-7.866-6.278-.643-7.868 2.112a5.76 5.76 0 0 0 2.122 7.88zm-24.406-18.162a6.33 6.33 0 1 0-2.325-8.648c-.84 1.455-1.067 3.184-.63 4.806s1.5 3.004 2.955 3.842zm-23.312-19.48a7.01 7.01 0 1 0-2.566-9.574 7.01 7.01 0 0 0 2.566 9.574zm-21.722-21.4a7.01 7.01 0 1 0-2.566-9.574 7.01 7.01 0 0 0 2.566 9.574zM142.726 830.7a7.91 7.91 0 0 0 10.8-2.906c2.18-3.784.882-8.62-2.902-10.803s-8.62-.885-10.804 2.897a7.91 7.91 0 0 0 2.905 10.812zm-18.85-24.134c3.623 2.093 8.256.853 10.348-2.77s.853-8.256-2.77-10.348-8.256-.853-10.348 2.77a7.58 7.58 0 0 0 2.77 10.348zm-18.17-23.862a8.82 8.82 0 0 0 8.819-15.275 8.82 8.82 0 0 0-8.819 15.275zm-15.586-26.72c2.772 1.603 6.237 1.378 8.778-.57s3.66-5.236 2.83-8.33a7.92 7.92 0 0 0-6.612-5.802 7.93 7.93 0 0 0-7.9 3.9 7.92 7.92 0 0 0 2.893 10.811zm-14.67-26.462c4 2.3 9.116.937 11.425-3.063s.94-9.116-3.06-11.426-9.115-.94-11.426 3.06a8.41 8.41 0 0 0-.837 6.35 8.36 8.36 0 0 0 3.9 5.08zM63.027 701.16c3.625 2.088 8.255.842 10.344-2.782s.844-8.255-2.78-10.344-8.255-.846-10.345 2.778a7.56 7.56 0 0 0-.754 5.75 7.55 7.55 0 0 0 3.535 4.598zM51.1 674.144a9.16 9.16 0 0 0 12.506-3.357 9.16 9.16 0 0 0-3.355-12.507 9.16 9.16 0 0 0-12.507 3.353 9.15 9.15 0 0 0-.915 6.95c.63 2.345 2.166 4.347 4.27 5.56zm-9.03-29.7a8.37 8.37 0 0 0 11.429-3.062 8.37 8.37 0 0 0-3.062-11.429 8.37 8.37 0 0 0-11.43 3.061 8.41 8.41 0 0 0-.837 6.35 8.36 8.36 0 0 0 3.9 5.08zm-7.675-29.514a8.37 8.37 0 0 0 11.428-3.058 8.37 8.37 0 0 0-3.058-11.428 8.37 8.37 0 0 0-11.428 3.058 8.36 8.36 0 0 0 3.058 11.428zm-4.702-31.97c2.868 1.652 6.532.665 8.184-2.203s.666-6.532-2.202-8.184-6.532-.666-8.184 2.202-.665 6.532 2.203 8.185z"/><circle cx="4.861" cy="4.861" transform="matrix(.866025 .5 -.5 .866025 26.812 540.918)" r="4.861"/><path d="M23.716 521.653a5.2 5.2 0 1 0-2.423-3.158 5.2 5.2 0 0 0 2.423 3.157zm-.466-30.486a5.2 5.2 0 1 0-1.899-7.11 5.21 5.21 0 0 0 1.899 7.11zm1.77-31.152a4.41 4.41 0 0 0 6.02-1.619 4.41 4.41 0 0 0-1.617-6.021 4.41 4.41 0 0 0-6.021 1.615c-1.217 2.1-.492 4.808 1.618 6.025zm3.588-31a3.62 3.62 0 0 0 4.942-1.321 3.62 3.62 0 0 0-1.321-4.942 3.62 3.62 0 0 0-4.942 1.321 3.61 3.61 0 0 0 1.321 4.942zm5.327-30.67a2.94 2.94 0 1 0-1.077-4.02c-.812 1.408-.33 3.207 1.077 4.02zM40.38 369.2a3.62 3.62 0 1 0-1.322-4.941c-.997 1.73-.406 3.94 1.32 4.942zm9.182-30.353a2.371 2.371 0 1 0-.867-3.247 2.36 2.36 0 0 0-.244 1.804 2.39 2.39 0 0 0 1.1 1.443zm10.28-28.713c1.135.656 2.587.267 3.243-.87s.267-2.587-.87-3.243-2.587-.267-3.243.87a2.37 2.37 0 0 0 .869 3.243zm11.935-27.94a2.49 2.49 0 0 0 3.64-2.806c-.262-.972-1.084-1.688-2.082-1.817a2.49 2.49 0 0 0-2.476 1.228 2.48 2.48 0 0 0-.246 1.888c.172.638.6 1.18 1.163 1.507zm13.696-27.364c1.137.654 2.588.264 3.244-.872s.266-2.588-.87-3.244-2.588-.268-3.245.867a2.38 2.38 0 0 0 .871 3.25zm15.36-26.604a2.15 2.15 0 0 0 2.929-.788 2.15 2.15 0 1 0-3.935-.524 2.15 2.15 0 0 0 1.006 1.311zm17.026-25.846a1.68 1.68 0 0 0 1.287.168c.434-.12.803-.405 1.024-.797a1.692 1.692 0 1 0-2.938-1.68 1.69 1.69 0 0 0 .627 2.309zm18.222-24.298a1.81 1.81 0 1 0-.651-2.472c-.5.863-.208 1.967.65 2.472zm19.782-23.36a1.7 1.7 0 1 0-.619-2.328c-.23.4-.293.856-.177 1.293s.403.8.795 1.035zm21.073-22.046c.593.344 1.335.297 1.88-.12s.785-1.12.608-1.783-.735-1.154-1.414-1.244a1.72 1.72 0 0 0-1.7.83 1.69 1.69 0 0 0 .617 2.316zm22.633-21.234a1.13 1.13 0 1 0-.412-1.541 1.13 1.13 0 0 0 .413 1.541zm23.447-19.165a1.36 1.36 0 1 0-.499-1.852c-.18.312-.228.682-.134 1.03s.322.643.634.822zm24.328-17.34c.713.413 1.604.356 2.258-.145s.942-1.347.728-2.142-.885-1.384-1.702-1.5-1.617.3-2.028 1.004a2.03 2.03 0 0 0 .743 2.774zm26.207-17.298a1.02 1.02 0 1 0-.367-1.384 1.01 1.01 0 0 0 .367 1.385zm26.634-14.84a1.02 1.02 0 1 0-.376-1.39 1.02 1.02 0 0 0 .376 1.389zM328 28.97c.077.046.17.06.255.037s.16-.08.205-.157a.34.34 0 0 0-.121-.466c-.163-.1-.368-.03-.46.13-.044.077-.056.168-.033.253s.08.16.156.203zm28.16-11.453a.46.46 0 0 0 .615-.177.45.45 0 0 0-.503-.662.45.45 0 0 0-.276.212.46.46 0 0 0 .163.628zm616.384 800.19a.682.682 0 1 0 .682-1.181.69.69 0 0 0-.94.245.7.7 0 0 0 .258.937zM953.6 842.013a1.01 1.01 0 1 0 1.015-1.759c-.486-.28-1.107-.114-1.387.372s-.114 1.107.372 1.387zm-20.007 22.73a.79.79 0 1 0-.289-1.079.79.79 0 0 0 .289 1.079zm-21.65 22.252c.647.378 1.477.16 1.855-.487s.16-1.477-.487-1.855-1.477-.16-1.855.487-.16 1.477.487 1.855zm-23.167 21.608c1.246.72 2.838.297 3.564-.945a2.6 2.6 0 1 0-3.564.945zm-24.335 20.4a3.96 3.96 0 1 0-1.452-5.403 3.96 3.96 0 0 0 1.451 5.402zm-24.927 18.27a4.41 4.41 0 0 0 6.017-1.621 4.41 4.41 0 0 0-1.619-6.017 4.41 4.41 0 0 0-6.018 1.617 4.41 4.41 0 0 0 1.62 6.022zm-26.58 18.04c2.975 1.72 6.78.702 8.5-2.272s.704-6.78-2.27-8.5a6.22 6.22 0 0 0-8.5 2.27 6.23 6.23 0 0 0 2.271 8.504zm-24.742 11.858a2.6 2.6 0 1 0-.949-3.556 2.62 2.62 0 0 0 .949 3.556zm-445.122 32.475a6.56 6.56 0 0 0 8.958-2.4 6.56 6.56 0 0 0-2.4-8.958 6.56 6.56 0 0 0-8.958 2.4 6.56 6.56 0 0 0 2.4 8.958zM314.8 998.247a6.56 6.56 0 0 0 8.958-2.394 6.56 6.56 0 0 0-2.394-8.958 6.56 6.56 0 0 0-8.959 2.393c-1.8 3.136-.738 7.144 2.394 8.96zm-28.1-12.1a7.58 7.58 0 1 0-2.77-10.349 7.58 7.58 0 0 0 2.77 10.348zm-26.82-14.504a7.57 7.57 0 1 0-3.535-4.596 7.57 7.57 0 0 0 3.535 4.596zm-26.207-15.593a8.03 8.03 0 1 0-2.929-10.956c-2.214 3.834-.904 8.738 2.928 10.956zm-24.92-17.604a7.8 7.8 0 1 0-3.635-4.74 7.8 7.8 0 0 0 3.635 4.74zm-24.52-17.908a8.82 8.82 0 0 0 12.045-3.227 8.82 8.82 0 0 0-3.227-12.046 8.82 8.82 0 0 0-12.046 3.226c-2.433 4.218-1 9.6 3.227 12.046zm-22.643-20.594c2.9 1.672 6.505 1.436 9.155-.596s3.815-5.46 2.95-8.687-3.587-5.613-6.9-6.048-6.558 1.168-8.227 4.062a8.26 8.26 0 0 0 3.02 11.27zM139.694 878.8a8.48 8.48 0 1 0-3.104-11.584c-1.126 1.947-1.43 4.263-.85 6.435s2.004 4.025 3.953 5.15zm-20.42-22.752a8.25 8.25 0 1 0-3.017-11.264c-2.272 3.944-.922 8.983 3.017 11.264zm-19.237-23.652c3.948 2.28 8.996.927 11.276-3.02s.93-8.996-3.02-11.276-8.996-.93-11.277 3.017a8.25 8.25 0 0 0 3.02 11.28zm-18.162-24.22a8.82 8.82 0 1 0-3.228-12.046c-1.17 2.025-1.488 4.433-.882 6.692a8.84 8.84 0 0 0 4.1 5.354zm-16.464-25.663a8.82 8.82 0 0 0 8.822-15.273 8.82 8.82 0 0 0-8.823 15.273zm-15.335-25.958a9.5 9.5 0 1 0-3.477-12.977c-1.26 2.182-1.604 4.775-.95 7.2s2.245 4.5 4.43 5.768zM37.16 728.207c4 2.306 9.113.934 11.42-3.066s.936-9.112-3.063-11.42-9.112-.938-11.42 3.06c-1.1 1.92-1.413 4.205-.838 6.35s1.98 3.97 3.902 5.077zm-12.165-27.672a8.82 8.82 0 1 0-3.23-12.043 8.82 8.82 0 0 0 3.23 12.043zm-10.62-28.2a9.39 9.39 0 0 0 12.82-3.441 9.39 9.39 0 0 0-3.439-12.821 9.39 9.39 0 0 0-13.758 10.562 9.39 9.39 0 0 0 4.377 5.7zM14 337.468c1.894 1.1 4.3.437 5.4-1.456s.438-4.3-1.455-5.4-4.3-.44-5.402 1.453c-.525.9-.666 2-.393 3.004s.938 1.878 1.85 2.4z"/><use xlink:href="#D" x="-41.83" y="-275.061"/><path d="M35.32 280.117c1.786 1.028 4.068.414 5.096-1.373s.414-4.068-1.372-5.096-4.068-.414-5.096 1.372-.414 4.068 1.372 5.097zm13.034-27.695a3.62 3.62 0 0 0 4.936-1.332 3.62 3.62 0 0 0-1.327-4.938 3.62 3.62 0 0 0-4.939 1.323 3.63 3.63 0 0 0-.362 2.75 3.6 3.6 0 0 0 1.692 2.197zm14.434-26.73a3.73 3.73 0 1 0-1.361-5.097 3.74 3.74 0 0 0 1.361 5.096zm16.445-26.756c1.353.775 3.08.307 3.855-1.046s.308-3.08-1.044-3.855-3.078-.3-3.856 1.042c-.374.65-.474 1.423-.278 2.147s.672 1.34 1.323 1.713zm17.405-25.025a2.83 2.83 0 1 0-1.029-3.868c-.782 1.353-.32 3.082 1.03 3.868zm18.788-24.028a2.83 2.83 0 1 0-1.027-3.861 2.82 2.82 0 0 0-.286 2.143c.194.723.665 1.342 1.313 1.718zm20.504-23.604c.973.562 2.216.23 2.78-.743s.23-2.216-.74-2.78-2.216-.233-2.78.738-.23 2.218.742 2.785zm21.143-21.376a2.49 2.49 0 0 0 3.395-.916 2.49 2.49 0 0 0-.914-3.395 2.49 2.49 0 0 0-3.396.912 2.48 2.48 0 0 0 .915 3.399zm23.05-21.414a1.47 1.47 0 0 0 2.005-.539 1.47 1.47 0 0 0-.537-2.006 1.47 1.47 0 0 0-2.006.536 1.47 1.47 0 0 0 .538 2.009zm23.834-19.535c.257.153.566.195.855.12s.536-.267.683-.527a1.12 1.12 0 1 0-1.95-1.126 1.12 1.12 0 0 0-.116.853 1.11 1.11 0 0 0 .527.68zm24.53-17.575c.516.3 1.162.258 1.636-.105s.682-.975.528-1.55-.64-1.003-1.232-1.08a1.48 1.48 0 0 0-1.47.726 1.46 1.46 0 0 0 .538 2zm25.663-16.474a1.46 1.46 0 0 0 2.008-.534 1.47 1.47 0 0 0-.535-2.007 1.47 1.47 0 0 0-2.007.534 1.47 1.47 0 0 0 .534 2.007zm27.072-15.872a.45.45 0 0 0 .618-.168c.06-.103.075-.226.044-.34a.45.45 0 0 0-.21-.27c-.103-.064-.227-.084-.344-.055s-.218.105-.278.2a.45.45 0 0 0 .172.624zM308.73.25c.026.016.058.02.087.014s.055-.026.07-.053.018-.058.01-.088-.03-.054-.056-.07a.11.11 0 0 0-.15.044.11.11 0 0 0 .037.152zm654.743 882.276c.395.233.892.204 1.258-.072a1.14 1.14 0 0 0 .414-1.2 1.12 1.12 0 0 0-.942-.836c-.454-.062-.902.155-1.133.552-.313.54-.133 1.23.404 1.547zm-20.968 21.976a1.02 1.02 0 1 0-.371-1.387c-.135.233-.172.5-.102.77s.24.482.474.616zm-22.003 20.648a.68.68 0 0 0 .926-.252.68.68 0 0 0-.252-.926.68.68 0 0 0-.927.251c-.1.156-.114.342-.067.516a.67.67 0 0 0 .32.41zm-23.245 19.734a.67.67 0 0 0 .922-.243.68.68 0 1 0-.922.244zm-25.9 21.316a3.96 3.96 0 1 0-1.445-5.404c-1.093 1.9-.447 4.3 1.444 5.404zm-609.31 47.4a9.27 9.27 0 1 0-3.387-12.664c-2.56 4.432-1.044 10.1 3.387 12.664zm-26.6-14.894c4.436 2.557 10.105 1.034 12.663-3.402s1.035-10.105-3.4-12.663-10.105-1.037-12.664 3.4a9.28 9.28 0 0 0 3.401 12.667zm-26.067-15.792a9.84 9.84 0 0 0 13.434-3.603 9.84 9.84 0 0 0-3.601-13.435 9.84 9.84 0 0 0-13.436 3.598 9.83 9.83 0 0 0-.983 7.466 9.84 9.84 0 0 0 4.585 5.974zm-24.268-18.7c4.1 2.373 9.365.965 11.738-3.145s.965-9.365-3.145-11.738-9.365-.965-11.738 3.145-.964 9.365 3.145 11.738zm-23.865-19c4.06 2.34 9.245.945 11.585-3.113s.947-9.245-3.112-11.585a8.49 8.49 0 0 0-11.586 3.1 8.47 8.47 0 0 0 3.113 11.589zm-23.36-19.364c3.287 1.9 7.395 1.634 10.408-.676s4.338-6.208 3.356-9.875-4.076-6.382-7.84-6.878-7.456 1.325-9.354 4.614c-2.6 4.486-1.055 10.223 3.43 12.815zm-22.36-20.346c5.03 2.9 11.455 1.174 14.356-3.854s1.18-11.455-3.847-14.358-11.454-1.184-14.36 3.84a10.51 10.51 0 0 0 3.851 14.371zm-20.304-23.032c3.445 2 7.75 1.7 10.907-.713s4.544-6.507 3.514-10.35-4.273-6.687-8.218-7.206-7.813 1.4-9.802 4.836c-1.304 2.26-1.658 4.943-.983 7.462a9.83 9.83 0 0 0 4.582 5.97zm-19.318-23.704a9.61 9.61 0 1 0-3.509-13.121 9.61 9.61 0 0 0 3.51 13.121zm-18.16-24.5c4.597 2.654 10.476 1.08 13.13-3.517s1.08-10.476-3.515-13.13-10.475-1.083-13.132 3.513a9.62 9.62 0 0 0 3.516 13.136zM41.017 808.65a9.38 9.38 0 0 0 12.815-3.44c2.59-4.5 1.05-10.226-3.438-12.816s-10.226-1.05-12.816 3.436a9.39 9.39 0 0 0 3.438 12.819zm-16.22-25c3.8 2.198 8.553 1.9 12.038-.782s5.018-7.18 3.883-11.42a10.86 10.86 0 0 0-9.066-7.958c-4.353-.575-8.624 1.53-10.82 5.332a10.85 10.85 0 0 0 3.966 14.829zm-13.733-27.645a10.18 10.18 0 1 0-3.72-13.899 10.18 10.18 0 0 0-1.02 7.72 10.17 10.17 0 0 0 4.74 6.18zm1.3-507.303c1.514.873 3.448.354 4.323-1.16s.357-3.448-1.155-4.324a3.17 3.17 0 0 0-4.325 1.15 3.17 3.17 0 0 0 1.157 4.332zm13.998-27.472a2.83 2.83 0 1 0-1.025-3.865c-.782 1.35-.323 3.08 1.025 3.865zm15.195-26.32a2.94 2.94 0 0 0 4.014-1.067 2.94 2.94 0 0 0-1.065-4.015 2.94 2.94 0 0 0-4.016 1.063c-.814 1.405-.337 3.203 1.066 4.02zm16.85-25.956a2.49 2.49 0 0 0 2.758-.18c.798-.612 1.15-1.645.888-2.617a2.49 2.49 0 0 0-2.078-1.822c-.998-.132-1.976.352-2.478 1.223a2.49 2.49 0 0 0 .911 3.396zM75.95 144.98c1.147.664 2.58.572 3.633-.233s1.516-2.166 1.174-3.446-1.422-2.23-2.736-2.403-2.603.46-3.266 1.6a3.28 3.28 0 0 0 1.194 4.473zm19.565-24.26a2.6 2.6 0 1 0-1.211-1.578 2.6 2.6 0 0 0 1.211 1.579zm20.897-23.405a1.7 1.7 0 1 0-.614-2.31c-.467.808-.192 1.84.614 2.3zm21.615-21.513a1.7 1.7 0 1 0-.792-1.033 1.7 1.7 0 0 0 .792 1.033zm22.716-20.344a1.7 1.7 0 1 0-.626-2.317 1.7 1.7 0 0 0 .625 2.317zm24.207-19.9a.8.8 0 0 0 1.088-.284.8.8 0 0 0-.298-1.083.79.79 0 0 0-.79 1.367zm26.236 989.912c5.138 2.963 11.706 1.2 14.67-3.937s1.203-11.705-3.935-14.67-11.705-1.204-14.67 3.932a10.73 10.73 0 0 0 3.936 14.675zm-25.22-17.23a9.95 9.95 0 1 0-3.636-13.587 9.95 9.95 0 0 0 3.636 13.586zm-24.758-17.8a9.95 9.95 0 1 0-3.648-13.593 9.95 9.95 0 0 0-.993 7.553c.684 2.55 2.354 4.723 4.64 6.04zm-23.74-19.207a9.73 9.73 0 0 0 13.29-3.546 9.73 9.73 0 0 0-3.546-13.29 9.73 9.73 0 0 0-13.29 3.546c-2.688 4.65-1.1 10.598 3.546 13.3zm-23.25-19.496c3.683 2.13 8.286 1.83 11.662-.76s4.86-6.957 3.758-11.066a10.52 10.52 0 0 0-8.788-7.705c-4.218-.555-8.354 1.487-10.48 5.173a10.52 10.52 0 0 0 3.847 14.358zM92.44 930.335a10.4 10.4 0 1 0-3.798-14.207 10.4 10.4 0 0 0 3.798 14.207zM71.527 908.27c3.762 2.178 8.467 1.875 11.918-.77s4.968-7.107 3.844-11.307a10.74 10.74 0 0 0-8.98-7.874c-4.312-.566-8.537 1.52-10.708 5.287-2.96 5.134-1.204 11.695 3.925 14.663zm-19.594-23.357c5.14 2.964 11.707 1.2 14.67-3.938s1.2-11.707-3.938-14.67-11.707-1.2-14.67 3.938a10.73 10.73 0 0 0 3.938 14.671zm-18.53-24.1a10.97 10.97 0 0 0 14.978-4.018 10.97 10.97 0 0 0-4.014-14.979 10.97 10.97 0 0 0-14.98 4.009c-1.457 2.52-1.853 5.515-1.1 8.327s2.594 5.208 5.115 6.66zm-16.895-25.685c4.974 2.872 11.333 1.168 14.206-3.805a10.4 10.4 0 0 0-3.803-14.206c-4.973-2.873-11.333-1.172-14.207 3.8a10.41 10.41 0 0 0 3.804 14.211zm4.01-670.595c1.135.655 2.586.267 3.242-.868s.27-2.586-.865-3.243-2.586-.27-3.243.863c-.316.545-.402 1.194-.24 1.803a2.37 2.37 0 0 0 1.106 1.444zm17.18-25.195a2.38 2.38 0 0 0 2.635-.17c.763-.584 1.098-1.572.85-2.5s-1.033-1.616-1.986-1.74a2.38 2.38 0 0 0-1.499 4.413zm18.587-24.603a2.04 2.04 0 0 0 2.781-.754 2.04 2.04 0 1 0-3.735-.483 2.04 2.04 0 0 0 .954 1.237zm20.11-24.245c.485.28 1.106.114 1.386-.37s.114-1.106-.37-1.386-1.106-.115-1.387.37-.114 1.106.37 1.387zm43.02-44.432c.027.016.06.02.1.013s.055-.028.07-.056.02-.058.013-.088-.03-.054-.057-.068a.1.1 0 0 0-.143.048c-.032.055-.03.118.028.15z"/><circle cx="8.255" cy="8.255" transform="matrix(.866025 .5 -.5 .866025 164.591 1013.53)" r="8.255"/><path d="M138.335 1014.873a9.27 9.27 0 1 0-3.393-12.663c-1.23 2.13-1.565 4.66-.928 7.035a9.26 9.26 0 0 0 4.322 5.628zm-24.788-17.343a11.31 11.31 0 1 0-4.128-15.449c-3.123 5.407-1.275 12.32 4.13 15.45zm-22.835-20.207a11.31 11.31 0 1 0-4.142-15.445c-3.12 5.4-1.265 12.322 4.142 15.445zM68.624 956.44a11.76 11.76 0 0 0 16.056-4.305c3.246-5.622 1.317-12.8-4.305-16.056s-12.8-1.317-16.056 4.305a11.75 11.75 0 0 0 4.305 16.056zm-20.26-23.245a10.63 10.63 0 0 0 14.512-3.897 10.63 10.63 0 0 0-3.895-14.513 10.63 10.63 0 0 0-14.513 3.893 10.58 10.58 0 0 0-1.06 8.066c.74 2.723 2.514 5.043 4.956 6.45zm-19.93-22.94c5.245 3.026 11.95 1.228 14.976-4.017s1.228-11.95-4.016-14.976-11.95-1.228-14.976 4.016a10.96 10.96 0 0 0 4.017 14.977zM9.693 886.3a11.19 11.19 0 1 0 11.185-19.385A11.19 11.19 0 1 0 9.692 886.31zm8.447-778.153c.163.095.37.04.467-.122s.034-.37-.13-.465a.34.34 0 0 0-.462.124.34.34 0 0 0 .124.462zm97.22 931.343a8.82 8.82 0 0 0 12.041-3.23 8.82 8.82 0 0 0-3.227-12.042 8.82 8.82 0 0 0-12.042 3.225c-1.17 2.025-1.488 4.433-.882 6.692a8.82 8.82 0 0 0 4.11 5.354zm-24.9-17.134c5.352 3.093 12.197 1.262 15.3-4.1s1.262-12.197-4.1-15.3-12.197-1.263-15.3 4.1c-1.487 2.57-1.892 5.625-1.125 8.493s2.643 5.314 5.214 6.798zm-23.554-18.962c4.435 2.563 9.978 2.202 14.043-.916s5.85-8.377 4.526-13.325-5.5-8.6-10.58-9.28a12.66 12.66 0 0 0-7.988 23.52zm-21.484-21.93a11.88 11.88 0 0 0 13.17-.854 11.87 11.87 0 0 0 4.247-12.495c-1.243-4.64-5.158-8.075-9.92-8.702s-9.434 1.68-11.834 5.84c-3.275 5.675-1.333 12.93 4.34 16.2zM24.464 959.38a11.99 11.99 0 0 0 16.376-4.381 11.99 11.99 0 0 0-4.381-16.376 11.99 11.99 0 0 0-16.376 4.381c-3.3 5.732-1.348 13.062 4.38 16.376zm19.914 67.954c4.04 2.333 9.1 2.002 12.792-.84s5.327-7.633 4.118-12.14a11.54 11.54 0 0 0-9.64-8.45c-4.626-.608-9.164 1.633-11.495 5.675a11.54 11.54 0 0 0 4.225 15.753zm-21.85-21.314c5.463 3.152 12.447 1.28 15.6-4.184s1.28-12.446-4.183-15.6-12.446-1.28-15.6 4.183a11.43 11.43 0 0 0 4.184 15.6zm1.8 40.933a5.43 5.43 0 1 0-1.989-7.413 5.43 5.43 0 0 0 1.989 7.413z"/></g><defs ><path id="B" d="M859.09 681.26c.026.016.058.02.087.014s.055-.026.07-.053c.03-.054.013-.123-.04-.154s-.123-.013-.154.04-.012.118.037.152z"/><path id="C" d="M452.103 967.25a4.86 4.86 0 0 0 7.127-5.467 4.86 4.86 0 0 0-8.906-1.172 4.86 4.86 0 0 0 1.779 6.639z"/><path id="D" d="M65.797 583.357c1.267.732 2.85.63 4.012-.26s1.67-2.393 1.292-3.807-1.572-2.46-3.023-2.65-2.874.512-3.604 1.78a3.62 3.62 0 0 0 1.324 4.937z"/></defs></svg>