<svg xmlns="http://www.w3.org/2000/svg" width="330.892" height="546.43"><path d="M231.8.196c-.297-.213-.683-.256-1.02-.113L173.447 23.22l-6.792 2.818 20.523 8.31h.023v.01l5.5 19.165a1.13 1.13 0 0 0 1.89.487l11.434-11.693 15.43 6.065c.636.26 1.356.213 1.952-.128s1.004-.936 1.104-1.615l7.788-45.267c.1-.456-.094-.925-.487-1.177zm-33.246 39.087l.023-.08.034.01z" fill="#d9e2ff"/><path d="M206.014 42.318L194.58 54.01c.133-.145.23-.32.283-.51l3.7-14.22.057-.068 4.913 2.06 2.2.928z" fill="#7d7ad0"/><path d="M231.885.257l-33.33 39.027-3.7 14.218c-.053.2-.15.364-.283.51a1.13 1.13 0 0 1-1.89-.487l-5.5-19.19z" fill="#94a5e8"/><path d="M181.683 80.747l4-8m-23 39l4-8m-24 38l5-8m13 18l8 3m24 13l8 4m23 15l7 6m20 17l7 6m18 20l6 7m20 30l-5-7m19 40l-3-8m12 43v-8m4 44v-9m-1 45l1-9m-7 45l2-10m-11 44l2-9m-15 43l4-8m-16 35l2-4m-163-402l9 3m-43-13l9 2m-44-10l9 1m-44-7l9 1m90 56l4-8m-25 37l4-8m-26 36l4-8m-28 36l4-8m-31 32l4-8m-29 27l4-8" fill="none" stroke="#c1bbff" stroke-linecap="round" stroke-width="4"/></svg>