<svg xmlns="http://www.w3.org/2000/svg" xmlns:xlink="http://www.w3.org/1999/xlink" width="29.925" height="29.925"><g fill="#371eb8"><path d="M29.426 0H.5a.5.5 0 0 0-.5.5v28.926a.5.5 0 0 0 .5.5h28.926a.5.5 0 0 0 .5-.5V.5a.5.5 0 0 0-.5-.5zm-.5 28.927H1V4.987h27.93zm0-24.937H1V1h27.93z"/><use xlink:href="#B"/><use xlink:href="#B" x="2.504"/><use xlink:href="#B" x="4.988"/><path d="M25.925 2.414h2v1h-2z"/><path d="M24.925 2.414h1v1h-1zM3.492 26.932h5.985a.5.5 0 0 0 .5-.5V7.482a.5.5 0 0 0-.5-.5H3.492a.5.5 0 0 0-.5.5v18.952a.5.5 0 0 0 .5.498zm.5-18.95H8.98v17.955H3.992zm8.478 10.97h13.965a.5.5 0 0 0 .5-.5V7.482a.5.5 0 0 0-.5-.5H12.47a.5.5 0 0 0-.5.5v10.972a.5.5 0 0 0 .5.498zm.5-10.97h12.967v9.975H12.97zm-.5 18.95h13.965a.5.5 0 0 0 .5-.5V20.45a.5.5 0 0 0-.5-.5H12.47a.5.5 0 0 0-.5.5v5.985a.5.5 0 0 0 .5.497zm.5-5.982h12.967v4.987H12.97z"/><path d="M4.925 7.414h2v2h-2z"/><path d="M6.925 7.414h1v2h-1zm7 0h1v2h-1zm2 0h2v2h-2zm-2 14h1v1h-1zm2 0h2v1h-2z"/></g><defs ><path id="B" d="M1.996 3.49h1a.5.5 0 0 0 .5-.5v-1a.5.5 0 0 0-.5-.5h-1a.5.5 0 0 0-.5.5v1a.5.5 0 0 0 .5.5z"/></defs></svg>