<svg xmlns="http://www.w3.org/2000/svg" width="31.493" height="31.493" fill="#2e8ed0"><path d="M23.182 14.173l-1.488-.5a6.28 6.28 0 0 0-.278-.674l.7-1.4c.088-.177.07-.388-.048-.547a7.87 7.87 0 0 0-1.63-1.63c-.16-.118-.37-.136-.547-.048l-1.4.7a6.22 6.22 0 0 0-.674-.278l-.5-1.488c-.062-.187-.225-.324-.42-.353a7.87 7.87 0 0 0-2.307 0c-.195.03-.358.166-.42.353l-.5 1.488a6.22 6.22 0 0 0-.674.278l-1.4-.7c-.177-.088-.388-.07-.547.048a7.87 7.87 0 0 0-1.63 1.63c-.118.16-.136.37-.048.547l.7 1.4a6.3 6.3 0 0 0-.278.674l-1.488.5c-.187.062-.324.225-.353.42a7.93 7.93 0 0 0 0 2.307c.03.195.166.358.353.42l1.488.5a6.28 6.28 0 0 0 .278.674l-.7 1.4c-.088.177-.07.388.048.547a7.87 7.87 0 0 0 1.63 1.63c.16.118.37.136.547.048l1.4-.7a6.37 6.37 0 0 0 .674.278l.5 1.488c.062.187.225.324.42.353a7.93 7.93 0 0 0 2.307 0c.195-.03.358-.166.42-.353l.5-1.488a6.27 6.27 0 0 0 .674-.278l1.4.7c.177.088.388.07.547-.048a7.87 7.87 0 0 0 1.63-1.63c.118-.16.136-.37.048-.547l-.7-1.4a6.23 6.23 0 0 0 .278-.674l1.488-.5c.187-.062.324-.225.353-.42a7.93 7.93 0 0 0 0-2.307c-.03-.195-.166-.358-.353-.42zm-.646 2.256l-1.426.475c-.162.054-.288.184-.337.348-.1.342-.237.672-.406.986a.53.53 0 0 0-.008.484l.67 1.342-.46.506-.506.46-1.342-.67a.52.52 0 0 0-.484.008c-.314.17-.644.305-.986.406a.53.53 0 0 0-.348.337l-.475 1.426a6.9 6.9 0 0 1-1.365 0L14.6 21.1c-.054-.162-.184-.288-.348-.337-.342-.1-.672-.237-.986-.406a.52.52 0 0 0-.484-.008l-1.342.67-.506-.46-.46-.506.67-1.342c.076-.153.073-.334-.008-.484-.17-.314-.305-.644-.406-.986a.53.53 0 0 0-.337-.348L8.96 16.43a6.92 6.92 0 0 1 0-1.365l1.426-.475c.162-.054.288-.184.337-.348.1-.342.237-.672.406-.986a.53.53 0 0 0 .008-.484l-.672-1.342.46-.506.506-.46 1.342.67c.153.076.334.073.484-.008a5.22 5.22 0 0 1 .986-.406.53.53 0 0 0 .348-.337l.475-1.426a6.9 6.9 0 0 1 1.365 0l.475 1.426c.054.162.184.288.348.337a5.22 5.22 0 0 1 .986.406.53.53 0 0 0 .484.008l1.342-.67.506.46.46.506-.672 1.342c-.076.153-.073.334.008.484a5.21 5.21 0 0 1 .406.986.53.53 0 0 0 .337.348l1.426.475a6.95 6.95 0 0 1 .002 1.365zm-6.8-4.357c-2.03 0-3.674 1.645-3.674 3.674s1.645 3.674 3.674 3.674 3.674-1.645 3.674-3.674c0-.974-.387-1.9-1.076-2.598a3.68 3.68 0 0 0-2.598-1.076zm0 6.3c-1.06 0-2.018-.64-2.424-1.62s-.182-2.1.57-2.86a2.63 2.63 0 0 1 2.86-.57c.98.405 1.62 1.363 1.62 2.424-.001 1.45-1.175 2.623-2.624 2.623zM29.382 13.7C29.27 6.206 23.24.147 15.747 0 8.253.147 2.223 6.205 2.1 13.7A2.63 2.63 0 0 0 0 16.271v7.35a2.63 2.63 0 0 0 2.624 2.624 4.73 4.73 0 0 0 4.724 4.724h4.87c.185.323.528.523.9.525h4.724a1.05 1.05 0 0 0 1.05-1.05v-2.1a1.05 1.05 0 0 0-1.05-1.05h-4.72c-.372.002-.715.202-.9.525H7.348c-.87-.001-1.574-.705-1.575-1.575a1.05 1.05 0 0 0 1.05-1.05V14.7a1.05 1.05 0 0 0-1.05-1.05h-.5c.13-5.734 4.738-10.356 10.472-10.5 5.734.144 10.343 4.766 10.472 10.5h-.5a1.05 1.05 0 0 0-1.05 1.05v10.5a1.05 1.05 0 0 0 1.05 1.05h3.15a2.63 2.63 0 0 0 2.624-2.624V16.27a2.63 2.63 0 0 0-2.108-2.571zm-16.26 14.644h4.724v2.1h-4.724zm-5.774.525h4.724v1.05H7.348a3.68 3.68 0 0 1-3.674-3.674h1.05a2.63 2.63 0 0 0 2.624 2.624zM5.774 14.7v10.5h-3.15c-.418-.001-.82-.167-1.115-.464s-.46-.698-.46-1.116v-7.35c.003-.868.706-1.57 1.574-1.57h3.15zm9.973-12.6c-6.316.14-11.4 5.23-11.535 11.547h-1.05A12.86 12.86 0 0 1 15.747 1.05a12.86 12.86 0 0 1 12.584 12.6h-1.05A11.8 11.8 0 0 0 15.747 2.1zm14.7 21.52c-.001.87-.705 1.574-1.575 1.575H25.72V14.7h3.15c.87.001 1.574.705 1.575 1.575z"/></svg>