<svg xmlns="http://www.w3.org/2000/svg" width="830.969" height="881.777" fill="#fbecf3"><path d="M576.69 364.85c16.816 0 37.982-1.666 62.9-4.952 19.99-2.635 42.42-6.31 66.66-10.926 32.078-6.106 58.948-12.274 69.507-14.764l-16.038-18.45L501.342 18.67 491.197 8.296C457.568 4.782 423.59 3 390.193 3c-26.853 0-53.658 1.153-79.67 3.428-25.17 2.2-49.925 5.48-73.58 9.744-23.03 4.152-45.256 9.282-66.065 15.246-20.416 5.852-39.633 12.555-57.12 19.923-17.306 7.292-33.03 15.283-46.732 23.75-13.676 8.45-25.42 17.424-34.904 26.672-9.522 9.285-16.824 18.902-21.702 28.585-2.448 4.858-4.314 9.8-5.548 14.688C3.63 149.963 3 154.958 3 159.88c0 6.558.96 13.203 2.854 19.75 1.877 6.488 4.717 13.04 8.44 19.476 7.4 12.8 18.47 25.473 32.9 37.695 14.3 12.112 31.995 23.854 52.594 34.9 20.532 11 44.078 21.396 69.982 30.87 26.048 9.527 54.65 18.194 85.014 25.76 30.82 7.68 63.692 14.284 97.707 19.63 34.82 5.472 71.18 9.678 108.074 12.5 38.03 2.9 77.1 4.386 116.123 4.386m0 3C257.744 367.85 0 270.613 0 159.88 0 76.245 170.19 0 390.193 0c33.124 0 67.386 1.73 102.357 5.42 3.336 3.234 11.007 11.225 11.007 11.225l277.72 319.33s-130.276 31.873-204.6 31.873z" transform="matrix(-.75471 -.656059 .656059 -.75471 589.638 881.777)"/><circle cx="302.932" cy="54.5" r="41.5"/><circle cx="379.432" cy="10" r="10"/></svg>