<svg xmlns="http://www.w3.org/2000/svg" width="31.157" height="31.157" fill="#be3538"><path d="M19.23 21.055a.61.61 0 1 0 .609.609.61.61 0 0 0-.609-.609zM28.115 0H3.043A3.046 3.046 0 0 0 0 3.043v18.62a3.046 3.046 0 0 0 3.043 3.043h9.493v2.8h-.6a3.043 3.043 0 0 0-3.043 3.043.608.608 0 0 0 .609.609h12.17a.608.608 0 0 0 .609-.609 3.046 3.046 0 0 0-3.043-3.043h-.6v-2.8h9.493a3.046 3.046 0 0 0 3.043-3.043V3.043A3.046 3.046 0 0 0 28.115 0zM3.043 1.217h25.072a1.828 1.828 0 0 1 1.825 1.826V18.62h-2.8v-14a.608.608 0 0 0-.609-.609h-4.867a.608.608 0 0 0-.609.609v14H18l-.05-1.852a39.142 39.142 0 0 0-.475-4.869 3.043 3.043 0 0 0 .831-3.969l-2.1-3.652a.609.609 0 0 0-1.054 0l-2.1 3.653a3.042 3.042 0 0 0 .67 3.84 38.63 38.63 0 0 0-.513 5l-.05 1.853H10.1v-9.13a.605.605 0 0 0-.06-.263v-.01L7.6 4.353a.609.609 0 0 0-1.089 0L4.08 9.22v.01a.6.6 0 0 0-.06.263v9.128h-2.8V3.043a1.828 1.828 0 0 1 1.822-1.826zm19.23 17.4V5.233h3.65V6.45h-.6a.609.609 0 1 0 0 1.217h.6v1.825h-.6a.609.609 0 0 0 0 1.217h.6v1.826h-.6a.609.609 0 0 0 0 1.217h.6v2.434h-.6a.609.609 0 1 0 0 1.217h.6v1.217zm-6.593-6.123a3.047 3.047 0 0 0 .657-.073c.113.724.28 2 .377 3.766h-2.266l.4-3.8a3.046 3.046 0 0 0 .835.116zm0-1.217A1.828 1.828 0 0 1 14.1 8.54l1.58-2.74 1.582 2.74a1.827 1.827 0 0 1-1.582 2.737zM14.392 17.4h2.374l.026 1.217h-2.427l.027-1.217zm-6.724 1.22V10.1h1.217v8.52zm-2.434 0V10.1H6.45v8.52zM5.6 8.884l1.45-2.9 1.45 2.9zM20.95 29.94H10.205a1.829 1.829 0 0 1 1.722-1.217h7.3a1.828 1.828 0 0 1 1.721 1.217zm-3.55-2.434h-3.647v-2.8H17.4zM28.1 23.5H3.043a1.828 1.828 0 0 1-1.826-1.826v-1.826H29.94v1.826a1.828 1.828 0 0 1-1.826 1.826zm-11.304-2.445h-3.65a.61.61 0 0 0-.548.92.61.61 0 0 0 .548.297h3.65a.61.61 0 0 0 .548-.92.61.61 0 0 0-.548-.297zm0 0"/></svg>