<svg xmlns="http://www.w3.org/2000/svg" width="116" height="93.729"><circle cx="14" cy="56" r="14" fill="#f5f4f5"/><ellipse cx="5" cy="65.5" rx="2" ry="1.5" fill="#aad89f"/><ellipse cx="5" cy="14.5" rx="2" ry="2.5" fill="#46b8e0"/><path d="M111.022 66.196c.45.14.9.318 1.312.53a7.94 7.94 0 0 1 .543 1.324 7.56 7.56 0 0 1-.474 1.282 5.67 5.67 0 0 1-1.381.573 6.92 6.92 0 0 1-1.384-.482c-.214-.436-.372-.898-.47-1.373a4.8 4.8 0 0 1 .471-1.244c.438-.253.902-.458 1.384-.61z" fill="#e0f6fc"/><circle cx="102" cy="26" r="14" fill="#f5f4f5"/><path d="M12.313 0h92.167v9.568H12.313z" fill="#2a3d56"/><path fill="#e6f4fe" stroke="#2a3d56" stroke-width="3" d="M15 10h87v66H15z"/><path d="M67.947 69.898c-.422.001-.826-.167-1.124-.465s-.465-.703-.465-1.124v-4.767a1.59 1.59 0 0 1 2.384-1.376 1.59 1.59 0 0 1 .794 1.376v4.766c.001.422-.167.826-.465 1.124s-.703.465-1.124.465z" fill="#c4ccff"/><path d="M74.302 69.9c-.422.001-.826-.167-1.125-.465s-.465-.703-.464-1.125V57.187a1.59 1.59 0 0 1 2.384-1.376 1.59 1.59 0 0 1 .794 1.376V68.31c.001.422-.166.826-.464 1.125s-.703.466-1.125.465z" fill="#f8b732"/><path d="M80.657 69.897c-.422.001-.826-.167-1.124-.465s-.465-.703-.465-1.124v-7.944a1.59 1.59 0 0 1 1.589-1.589 1.59 1.59 0 0 1 1.589 1.589v7.944c.001.422-.167.826-.465 1.124s-.703.465-1.124.465z" fill="#c4ccff"/><path d="M87.012 69.897c-.42.001-.826-.167-1.124-.464s-.465-.702-.465-1.124V49.243a1.59 1.59 0 0 1 1.589-1.589 1.59 1.59 0 0 1 1.589 1.589V68.31c.001.422-.167.826-.465 1.124s-.703.465-1.124.465z" fill="#3ab951"/><path d="M93.367 69.897c-.42.001-.825-.166-1.123-.464s-.466-.702-.466-1.123V55.598a1.59 1.59 0 0 1 2.384-1.376 1.59 1.59 0 0 1 .794 1.376V68.3c.001.422-.167.826-.465 1.124s-.703.465-1.124.465z" fill="#c4ccff"/><path d="M42.526 61.954H26.638a1.59 1.59 0 0 1-1.376-2.384 1.59 1.59 0 0 1 1.376-.794h15.888a1.59 1.59 0 0 1 1.376 2.384 1.59 1.59 0 0 1-1.376.794zM50.47 68.3H26.638a1.59 1.59 0 0 1-1.376-2.384 1.59 1.59 0 0 1 1.376-.794H50.47a1.59 1.59 0 0 1 1.376 2.384 1.59 1.59 0 0 1-1.376.794z" fill="#1849ca"/><path d="M41.8 17.574c9.168 0 16.6 7.432 16.6 16.6s-7.432 16.6-16.6 16.6-16.6-7.432-16.6-16.6a16.6 16.6 0 0 1 16.6-16.6z" fill="#3ab951"/><path d="M40.96 17.485l-.022.022v17.38c0 .016.006.03.017.042s.026.017.042.017h17.378l.022-.022c.217-4.688-1.55-9.25-4.868-12.57s-7.88-5.086-12.57-4.87z" fill="#f8b732"/><path d="M85.424 28.6H72.712a1.59 1.59 0 0 1-1.589-1.589 1.59 1.59 0 0 1 1.589-1.589h12.712a1.59 1.59 0 0 1 1.589 1.589 1.59 1.59 0 0 1-1.589 1.589zm7.943 0a1.67 1.67 0 0 1-1.128-.461 1.61 1.61 0 0 1 0-2.256c.637-.588 1.62-.588 2.256 0a1.61 1.61 0 0 1 0 2.256 1.67 1.67 0 0 1-1.128.461zm0-7.954H88.6a1.59 1.59 0 0 1-1.589-1.589 1.59 1.59 0 0 1 1.589-1.589h4.766a1.59 1.59 0 0 1 1.589 1.589 1.59 1.59 0 0 1-1.589 1.589zm-17.467 0h-3.178a1.59 1.59 0 0 1-1.589-1.589 1.59 1.59 0 0 1 1.589-1.589H75.9a1.59 1.59 0 0 1 1.589 1.589 1.59 1.59 0 0 1-1.589 1.589zm6.345 0a1.6 1.6 0 0 1-1.128-2.717c.637-.588 1.62-.588 2.256 0 .293.303.458.707.46 1.128s-.162.83-.46 1.128a1.57 1.57 0 0 1-1.128.46z" fill="#1849ca"/><g fill="#2a3d56"><path d="M104.488 77.842H12.34a1.59 1.59 0 0 1-1.376-2.384 1.59 1.59 0 0 1 1.376-.794h92.15a1.59 1.59 0 0 1 1.376 2.384 1.59 1.59 0 0 1-1.376.794z"/><path d="M58.414 82.608c-.422.001-.826-.167-1.124-.465s-.465-.703-.465-1.124v-4.767a1.59 1.59 0 0 1 1.589-1.589 1.59 1.59 0 0 1 1.589 1.589v4.766c.001.422-.167.826-.465 1.124s-.703.465-1.124.465z"/><path d="M58.414 93.73c-3.5 0-6.355-2.845-6.355-6.355s2.845-6.355 6.355-6.355 6.355 2.845 6.355 6.355c0 1.685-.67 3.302-1.86 4.494s-2.808 1.86-4.494 1.86zm0-9.533a3.18 3.18 0 0 0-2.247 5.425 3.18 3.18 0 0 0 5.425-2.247 3.18 3.18 0 0 0-3.178-3.178z"/></g></svg>