<svg xmlns="http://www.w3.org/2000/svg" width="116" height="93.505"><g fill="#f5f4f5"><circle cx="102.5" cy="32.053" r="13.5"/><ellipse cx="13.5" cy="46.553" rx="13.5" ry="14"/></g><rect width="88" height="65" rx="32.5" fill="#9e9ea2" opacity=".2" x="18" y="9.553"/><path d="M79.85 86.654l-8.758-17.52H44.03l-8.76 17.52z" fill="#c4ccff"/><path d="M21.716 1.558h71.687a7.79 7.79 0 0 1 7.792 7.792v52.986a7.79 7.79 0 0 1-7.792 7.792H21.716a7.79 7.79 0 0 1-7.792-7.792V9.35a7.79 7.79 0 0 1 7.792-7.792z" fill="#fff"/><path d="M93.403 70.128H21.716c-4.303 0-7.792-3.5-7.792-7.792V57.66h87.27v4.675c0 4.303-3.5 7.792-7.792 7.792zM26.4 85.712h62.336c.827 0 1.62.328 2.204.913a3.12 3.12 0 0 1 .913 2.204h0c0 .827-.328 1.62-.913 2.204a3.12 3.12 0 0 1-2.204.913H26.4c-.827 0-1.62-.328-2.204-.913a3.12 3.12 0 0 1-.913-2.204h0c0-.827.328-1.62.913-2.204a3.12 3.12 0 0 1 2.204-.913z" fill="#c4ccff"/><path d="M45.985 57.66l.815-2.507 6.084-2.467v-5.78l-6.078-2.47-1.474-4.537 3.472-5.57-3.4-4.675-6.377 1.586-3.86-2.805-.46-6.536-5.5-1.787-4.21 5.024h-4.772l-4.22-5.02-2.08.676V57.66z" fill="#f8b732"/><path d="M33.124 57.66c4.008-5.4 3.302-12.936-1.635-17.5s-12.515-4.65-17.565-.22v17.71z" fill="#fff"/><path d="M58.728 14.026H94.96v3.117H58.728zm0 6.234H85.22v3.117H58.728zm0 12.467H85.22v3.117H58.728zm0 12.467H85.22v3.117H58.728zm0-18.7H85.22V29.6H58.728zm0 12.467H85.22v3.117H58.728zm6.234-31.168h29.6v3.117h-29.6zm-6.234 0h3.117v3.117h-3.117z" fill="#1849ca"/><path d="M56 62.336h3.117v3.117H56z" fill="#e6f4fe"/><path d="M34.64 16.686l2.2-2.2-2.015-2.015 2.015-2.015-2.2-2.2-3.117 3.117a1.56 1.56 0 0 0 0 2.2zm11.555 0l3.117-3.117a1.56 1.56 0 0 0 0-2.2l-3.117-3.117-2.2 2.2L46 12.467l-2.015 2.015zm-8.817-.038l3.12-9.35 2.955.986-3.12 9.35z" fill="#cee9fb"/><path d="M12.366 57.66v4.675a9.36 9.36 0 0 0 9.35 9.35h19.3L34.78 84.154h-8.387c-2.582 0-4.675 2.093-4.675 4.675s2.093 4.675 4.675 4.675h62.336c2.582 0 4.675-2.093 4.675-4.675s-2.093-4.675-4.675-4.675H80.34l-6.234-12.467h19.3a9.36 9.36 0 0 0 9.35-9.35V9.35A9.36 9.36 0 0 0 93.403 0H21.716a9.36 9.36 0 0 0-9.35 9.35zm31.48-17.272l1.476 4.537a1.56 1.56 0 0 0 .9.963l5.104 2.07v3.678l-5.112 2.07a1.55 1.55 0 0 0-.9.965L44.85 56.1h-8.978c2.754-5.765 1.46-12.65-3.198-17.023s-11.612-5.227-17.192-2.113V21.927l3.542 4.217a1.56 1.56 0 0 0 1.194.556h4.77a1.56 1.56 0 0 0 1.194-.557l3.544-4.217 3.5 1.136.386 5.5a1.56 1.56 0 0 0 .637 1.152l3.86 2.805c.373.27.846.36 1.293.25l5.35-1.33 2.162 2.975L44 39.08a1.56 1.56 0 0 0-.153 1.308zM15.483 56.1V40.674A11.58 11.58 0 0 1 32.314 56.1zm74.8 32.727a1.56 1.56 0 0 1-1.558 1.558H26.392a1.56 1.56 0 0 1-1.559-1.558 1.56 1.56 0 0 1 1.559-1.559h62.336a1.56 1.56 0 0 1 1.558 1.561zm-13.427-4.673h-38.6L44.5 71.687h26.122zM93.403 68.57H21.716c-1.653 0-3.24-.657-4.408-1.826s-1.826-2.755-1.826-4.408V59.22h84.155v3.117c-.001 3.443-2.79 6.233-6.234 6.233zM21.716 3.117h71.687c3.443 0 6.233 2.8 6.234 6.233V56.1h-51.03l4.86-1.97a1.56 1.56 0 0 0 .972-1.443v-5.78a1.56 1.56 0 0 0-.972-1.445l-5.417-2.19-1.025-3.156 3.09-4.956a1.56 1.56 0 0 0-.062-1.739l-3.4-4.675a1.56 1.56 0 0 0-1.636-.6l-5.666 1.4-2.677-1.945-.406-5.807a1.56 1.56 0 0 0-1.074-1.373L29.7 18.635a1.57 1.57 0 0 0-1.675.482l-3.75 4.465H20.95l-3.753-4.465a1.57 1.57 0 0 0-1.677-.482l-.037.014v-9.3c.001-3.442 2.79-6.232 6.233-6.233z" fill="#2a3d56"/><circle cx="6" cy="57.553" r="2" fill="#aad89f"/><ellipse cx="8.5" cy="10.553" rx="1.5" ry="2" fill="#46b8e0"/><path d="M111.227 60.194c.45.14.89.317 1.3.53a7.92 7.92 0 0 1 .54 1.32 7.54 7.54 0 0 1-.472 1.28 5.66 5.66 0 0 1-1.378.57c-.476-.11-.938-.272-1.38-.48a5.82 5.82 0 0 1-.47-1.37 4.79 4.79 0 0 1 .47-1.24 6.93 6.93 0 0 1 1.38-.61z" fill="#e0f6fc"/></svg>