<svg xmlns="http://www.w3.org/2000/svg" width="116" height="84.486"><circle cx="13" cy="57.642" r="13" fill="#f5f4f5"/><circle cx="4" cy="66.642" r="2" fill="#aad89f"/><circle cx="4" cy="21.642" r="2" fill="#46b8e0"/><path d="M111.46 68.205c.43.132.845.3 1.246.5.21.404.382.825.515 1.26-.113.418-.264.826-.45 1.217-.41.238-.852.42-1.31.544a6.57 6.57 0 0 1-1.313-.457c-.203-.414-.353-.852-.447-1.304.094-.412.244-.81.447-1.18a6.59 6.59 0 0 1 1.313-.58z" fill="#e0f6fc"/><circle cx="103" cy="40.642" r="13" fill="#f5f4f5"/><rect width="89" height="58" rx="29" fill="#ececec" x="16" y="19.642"/><path d="M98.878 22.61v53.563l-84.37-.375V22.61c0-3.73 3.024-6.755 6.755-6.755h70.86a6.76 6.76 0 0 1 6.755 6.754z" fill="#bec8f9"/><path d="M98.878 68.095v8.08l-84.37-.377v-7.7z" fill="#242c35"/><path d="M102.73 71.665c-.001 6.302-5.11 11.41-11.41 11.412H22.067c-6.302-.001-11.4-5.108-11.412-11.4z" fill="#b2b3d9"/><path d="M102.732 71.665c.004 3.136-1.286 6.134-3.566 8.287-.544.08-1.094.12-1.644.118H28.267c-5.144-.003-9.652-3.444-11.01-8.405z" fill="#bec8f9"/><path fill="#fff" d="M20.52 21.87h72.345v43.783H20.52z"/><path d="M75.502 28.27h.8a7.58 7.58 0 1 1 0 15.16h-1.04M38.86 28.27h-.8a7.58 7.58 0 1 0 0 15.16h1.044" fill="#f9572b"/><path d="M81.666 65.652h-48.97a25.94 25.94 0 0 1 48.968 0z" fill="#f8b933"/><path d="M57.18 57.636h0A18.61 18.61 0 0 1 38.574 39.03v-7.492A18.61 18.61 0 0 1 57.18 12.932h0a18.61 18.61 0 0 1 18.606 18.606v7.492A18.61 18.61 0 0 1 57.18 57.636z" fill="#ffe2c5"/><path d="M57.18 57.636c-10.272 0-18.6-8.328-18.6-18.6v-7.493c-.001-4.935 1.958-9.668 5.446-13.158s8.22-5.452 13.155-5.453c-5.215 0-9.443 8.33-9.443 18.607v7.492c0 10.275 4.23 18.605 9.442 18.605z" fill="#e5c4a5"/><path d="M75.43 27.898a14.09 14.09 0 0 1-20.964-6.775c-2.417 6.4-9.095 10.152-15.824 8.87v-.02a18.61 18.61 0 0 1 36.79-2.074z" fill="#424c59"/><path d="M57.18 12.932c-4.7 0-8.615 6.8-9.326 15.686a14.1 14.1 0 0 1-9.211 1.375v-.02c.815-9.633 8.87-17.037 18.537-17.04z" fill="#242c35"/><path d="M102.73 70.256H10.654a1.41 1.41 0 0 0-1.409 1.409c.008 7.078 5.743 12.813 12.82 12.82h6.75a1.41 1.41 0 0 0 1.41-1.409 1.41 1.41 0 0 0-1.41-1.409h-6.75a10.02 10.02 0 0 1-9.9-8.593h89.055a10.02 10.02 0 0 1-9.9 8.593h-57.8a1.41 1.41 0 0 0-1.41 1.41 1.41 1.41 0 0 0 1.41 1.409h57.8a12.84 12.84 0 0 0 12.821-12.82 1.41 1.41 0 0 0-1.409-1.409zm-16.5-53h5.9c2.95.003 5.343 2.395 5.346 5.346v44.356a1.41 1.41 0 0 0 1.41 1.41 1.41 1.41 0 0 0 1.409-1.41V22.612c-.004-4.508-3.657-8.16-8.165-8.165h-5.9a1.41 1.41 0 0 0-1.409 1.41 1.41 1.41 0 0 0 1.409 1.409zm-71.72 51.1a1.41 1.41 0 0 0 1.409-1.409V22.612c.003-2.95 2.395-5.343 5.346-5.346H27.6a1.41 1.41 0 0 0 1.41-1.41 1.41 1.41 0 0 0-1.41-1.409h-6.337c-4.508.004-8.16 3.657-8.165 8.165v44.356a1.41 1.41 0 0 0 1.413 1.408zM38.024 44.84a19.99 19.99 0 0 0 3.656 6.841 27.57 27.57 0 0 0-7.893 8.372 1.41 1.41 0 0 0 .476 1.935 1.41 1.41 0 0 0 1.935-.475c1.882-3.1 4.423-5.746 7.443-7.753a19.98 19.98 0 0 0 27.078 0 24.65 24.65 0 0 1 3.8 3.106 24.38 24.38 0 0 1 3.639 4.645 1.41 1.41 0 0 0 1.934.48 1.41 1.41 0 0 0 .48-1.934c-1.14-1.886-2.502-3.626-4.06-5.183a27.47 27.47 0 0 0-3.832-3.192 20 20 0 0 0 3.654-6.841 8.96 8.96 0 0 0 6.14-2.46v2.4a3.8 3.8 0 0 1-3.8 3.8 1.41 1.41 0 0 0-1.41 1.409 1.41 1.41 0 0 0 1.41 1.409c3.653-.004 6.613-2.964 6.617-6.617v-16.67C85.3 12.587 72.703 0 57.177 0S29.064 12.587 29.064 28.113v7.737a8.99 8.99 0 0 0 8.96 8.989zm-4.333-4.625a6.17 6.17 0 0 1 3.554-10.479c-.053.594-.082 1.2-.082 1.8v7.492a20.1 20.1 0 0 0 .218 2.952 6.12 6.12 0 0 1-3.69-1.765zm23.49-25.873a17.23 17.23 0 0 1 16.649 12.882 12.61 12.61 0 0 1-6.182 1.609 12.74 12.74 0 0 1-11.862-8.209 1.41 1.41 0 0 0-2.637 0 12.74 12.74 0 0 1-11.862 8.205c-.362 0-.723-.02-1.08-.048 1.363-8.32 8.546-14.43 16.976-14.44zm0 41.885a17.22 17.22 0 0 1-17.2-17.2v-7.434a15.26 15.26 0 0 0 1.3.058c5.367-.02 10.346-2.798 13.18-7.356a15.59 15.59 0 0 0 13.179 7.356 15.58 15.58 0 0 0 6.674-1.5q.056.7.057 1.4v7.492a17.22 17.22 0 0 1-17.2 17.2zm19.8-14.243c.145-.978.218-1.965.218-2.953v-7.493a20.14 20.14 0 0 0-.082-1.8 6.17 6.17 0 0 1-.136 12.25zM57.18 2.82c13.963.016 25.278 11.33 25.294 25.294v1.2c-1.58-1.5-3.653-2.37-5.83-2.447a20.02 20.02 0 0 0-38.929 0c-2.177.08-4.25.953-5.83 2.453v-1.2c.018-13.962 11.333-25.275 25.295-25.3zm7.507 32.852c-1.288-.004-2.525.5-3.433 1.422a1.41 1.41 0 0 0 .632 2.358 1.41 1.41 0 0 0 1.361-.365 2.04 2.04 0 0 1 2.88 0 1.41 1.41 0 0 0 2.358-.632 1.41 1.41 0 0 0-.365-1.361c-.908-.913-2.145-1.426-3.433-1.422zm-11.58 3.415a1.41 1.41 0 0 0 0-1.993 4.86 4.86 0 0 0-6.866 0 1.41 1.41 0 0 0 0 1.993 1.41 1.41 0 0 0 1.993 0 2.04 2.04 0 0 1 2.88 0 1.41 1.41 0 0 0 1.993 0zm7.09 6.853c-1.67 1.665-4.37 1.665-6.04 0a1.41 1.41 0 0 0-1.993 1.994 7.1 7.1 0 0 0 10.027 0 1.41 1.41 0 0 0 0-1.993 1.41 1.41 0 0 0-1.993 0zm-34.01-22.66a1.41 1.41 0 0 0 1.409-1.409 1.41 1.41 0 0 0-1.409-1.409H20.52a1.41 1.41 0 0 0-1.409 1.409v43.783a1.41 1.41 0 0 0 1.409 1.409h72.345a1.41 1.41 0 0 0 1.409-1.409V21.87a1.41 1.41 0 0 0-1.409-1.409H87.63a1.41 1.41 0 0 0-1.409 1.41 1.41 1.41 0 0 0 1.409 1.409h3.826v40.964H21.93V23.28z" fill="#2a3d56"/></svg>