<svg xmlns="http://www.w3.org/2000/svg" xmlns:xlink="http://www.w3.org/1999/xlink" width="116" height="92.613"><g fill="#f5f4f5"><circle cx="102.5" cy="28.113" r="13.5"/><circle cx="13.5" cy="64.113" r="13.5"/></g><rect width="86" height="84" rx="16" fill="#9e9ea2" opacity=".2" x="20" y="8.613"/><path d="M23.51 88.113h-4.48a4.48 4.48 0 0 1-4.48-4.48h0V5.973a4.48 4.48 0 0 1 4.481-4.48h77.66a4.48 4.48 0 0 1 4.48 4.481v77.66a4.48 4.48 0 0 1-4.481 4.48z" fill="#fff"/><path d="M19.028 1.493h77.66a4.48 4.48 0 0 1 4.48 4.481v7.467h-86.62V5.973a4.48 4.48 0 0 1 4.481-4.48z" fill="#e6f4fe"/><path d="M53.975 23.15L39.34 48.538a4.48 4.48 0 0 0 3.883 6.721h29.28a4.48 4.48 0 0 0 3.883-6.721L61.74 23.15a4.48 4.48 0 0 0-7.766 0z" fill="#f8b732"/><path d="M96.687 0h-77.66c-3.3 0-5.974 2.675-5.974 5.974v77.66c0 1.584.63 3.104 1.75 4.224s2.64 1.75 4.224 1.75h77.66c1.584 0 3.104-.63 4.224-1.75s1.75-2.64 1.75-4.224V5.974c0-1.585-.63-3.104-1.75-4.225S98.272 0 96.687 0zm-77.66 2.987h77.66a2.99 2.99 0 0 1 2.986 2.987v5.974H16.04V5.974a2.99 2.99 0 0 1 2.987-2.987zm77.66 83.633h-77.66a2.99 2.99 0 0 1-2.987-2.987v-68.7h83.633v68.7a2.99 2.99 0 0 1-2.987 2.987z" fill="#2a3d56"/><path d="M19.028 5.974h2.987V8.96h-2.987z" fill="#dc6563"/><path d="M25.002 5.974h2.987V8.96h-2.987z" fill="#f8b732"/><path d="M30.976 5.974h2.987V8.96h-2.987z" fill="#3ab951"/><path d="M43.213 56.75h29.3c2.135 0 4.107-1.138 5.175-2.986a5.97 5.97 0 0 0 0-5.975L63.033 22.4c-1.067-1.85-3.04-3-5.175-3s-4.108 1.14-5.175 3L38.038 47.8c-1.067 1.85-1.067 4.126 0 5.975a5.97 5.97 0 0 0 5.175 2.986zm-2.587-7.467l14.645-25.4a2.99 2.99 0 0 1 5.174 0l14.65 25.4a2.99 2.99 0 0 1 0 2.987c-.533.924-1.52 1.493-2.587 1.493h-29.3a2.99 2.99 0 0 1-2.587-1.493c-.534-.923-.534-2.063 0-2.987zM56.364 28.37h2.987v16.424h-2.987zm0 19.416h2.987v2.987h-2.987z" fill="#2a3d56"/><g fill="#1849ca"><path d="M22.015 67.206h59.74v2.987h-59.74zm0 5.974h5.974v2.987h-5.974zm0 5.973h5.974v2.987h-5.974zm8.96 0h5.974v2.987h-5.974z"/><path d="M30.976 73.18h5.974v2.987h-5.974zm8.96 0H45.9v2.987h-5.974z"/></g><use xlink:href="#B" fill="#dc6563"/><path d="M30.976 61.232h50.778v2.987H30.976zm-5.974 0h2.987v2.987h-2.987z" fill="#1849ca"/><g fill="#dc6563"><use xlink:href="#B" x="11.946"/><use xlink:href="#B" x="23.894"/><use xlink:href="#B" x="35.842" y="-11.947"/></g><ellipse cx="5" cy="74.113" rx="2" ry="1.5" fill="#aad89f"/><circle cx="5" cy="16.613" r="2" fill="#46b8e0"/><path d="M110.163 79.793c.44.138.87.312 1.283.52a7.78 7.78 0 0 1 .531 1.3c-.116.43-.27.85-.46 1.253a5.56 5.56 0 0 1-1.353.561c-.467-.11-.92-.267-1.355-.472-.21-.427-.365-.88-.462-1.345a4.7 4.7 0 0 1 .462-1.218c.428-.25.883-.45 1.355-.6z" fill="#e0f6fc"/><defs ><path id="B" d="M55.31 73.617l-1.93 1.93-1.93-1.93-2.112 2.112 1.93 1.93-1.93 1.93 2.112 2.112 1.93-1.93 1.93 1.93 2.112-2.112-1.93-1.93 1.93-1.93z"/></defs></svg>