<svg xmlns="http://www.w3.org/2000/svg" xmlns:xlink="http://www.w3.org/1999/xlink" width="116" height="83.284"><circle cx="11.501" cy="39.784" r="11.5" fill="#f5f4f5"/><ellipse cx="6.001" cy="49.784" rx="2" ry="1.5" fill="#aad89f"/><circle cx="6.001" cy="13.284" r="2" fill="#46b8e0"/><g fill="#9e9ea2"><rect width="87" height="59" rx="15" opacity=".2" x="18.001" y="6.284"/><rect width="36" height="49" rx="15" opacity=".2" x="80.001" y="34.284"/></g><path fill="#c4ccff" stroke="#2a3d56" d="M48.68 61.105h15.66v7.607H48.68z"/><path fill="#b2b3ca" d="M48.878 61.9h3.75v6.612h-3.75z"/><path d="M74.77 69.1H37.107a1.02 1.02 0 0 0-1.015 1.015v5.088a1.02 1.02 0 0 0 1.015 1.015H74.77z" fill="#c4ccff" stroke="#2a3d56" stroke-width="1.5"/><path d="M40.1 74.677v-4a.89.89 0 0 1 .954-.8l-3.9-.005a.69.69 0 0 0-.774.739v4.122c-.026.203.044.407.19.552s.348.215.55.2h3.938a.89.89 0 0 1-.958-.798z" fill="#b2b3ca"/><path d="M100.28 1.5H12.74a1.02 1.02 0 0 0-1.015 1.015v57.773a1.02 1.02 0 0 0 1.015 1.015h62.03V30.91c.001-.77.624-1.392 1.393-1.393h25.13v-27a1.02 1.02 0 0 0-1.015-1.016z" fill="#c4ccff" stroke="#2a3d56" stroke-width="3"/><path d="M16.183 51.156a.61.61 0 0 0 .609.609h57.98V30.91c.001-.768.624-1.39 1.392-1.392h20.674v-18.06H16.183z" fill="#fff"/><path d="M20.13 51.156v-39.7h-3.947v39.7a.61.61 0 0 0 .609.609h3.947a.61.61 0 0 1-.609-.609z" fill="#cee9fb"/><circle cx="56.51" cy="56.515" r="2.741" fill="#2a3d56"/><path d="M74.77 34.167H64.14a.6.6 0 0 0-.6.6v11.866a.6.6 0 0 0 .6.6h10.63z" fill="#d0dff1"/><path d="M67.492 46.63V34.764a.6.6 0 0 1 .6-.6h-3.947a.6.6 0 0 0-.6.6V46.63a.6.6 0 0 0 .6.6h3.948a.6.6 0 0 1-.601-.599z" fill="#b2b3ca"/><path d="M76.164 29.516h9.276v-13.01a1 1 0 0 0-.995-.995h-55.87a1 1 0 0 0-.995.995v13.237a1 1 0 0 0 .995.995h46.208c.086-.698.678-1.222 1.38-1.223z" fill="#d0dff1"/><path d="M31.528 29.743V16.507a1 1 0 0 1 .995-.995h-3.948a1 1 0 0 0-.995.995v13.237a1 1 0 0 0 .995.995h3.948a1 1 0 0 1-.995-.996z" fill="#b2b3ca"/><path d="M96.23 6.677H16.79a.61.61 0 0 0-.608.609v4.37h80.655v-4.37a.61.61 0 0 0-.609-.609z" fill="#f8b732"/><path d="M20.74 6.677h-3.95a.61.61 0 0 0-.608.609v4.37h3.947v-4.37a.61.61 0 0 1 .61-.609z" fill="#dc6563"/><g fill="#1849ca"><use xlink:href="#B"/><path d="M45.85 42.2H29.102c-.824 0-1.492-.668-1.492-1.492s.668-1.492 1.492-1.493H45.85c.824 0 1.492.668 1.492 1.492S46.673 42.2 45.85 42.2z"/><use xlink:href="#B" y="9.743"/><use xlink:href="#C"/><use xlink:href="#C" y="4.88"/><use xlink:href="#C" y="9.743"/></g><path d="M112.007 29.317a1.6 1.6 0 0 1 1.592 1.592v48.105a1.6 1.6 0 0 1-1.592 1.592H76.164a1.6 1.6 0 0 1-1.592-1.592V30.91a1.6 1.6 0 0 1 1.592-1.592z" fill="#e6f4fe" stroke="#2a3d56" stroke-width="1.5"/><path d="M78.892 74.355a1 1 0 0 1-.995-.995V33.378a1 1 0 0 1 .995-.995h30.387a1 1 0 0 1 .995.995V73.36a1 1 0 0 1-.995.995z" fill="#fff"/><path d="M81.845 73.36V33.378a1 1 0 0 1 .995-.995h-3.948a1 1 0 0 0-.995.995V73.36a1 1 0 0 0 .995.995h3.948a1 1 0 0 1-.995-.995z" fill="#cee9fb"/><path d="M92.223 78.335a1 1 0 0 1-.995-.995v-.387a1 1 0 0 1 .995-.995h3.725a1 1 0 0 1 .995.995v.387a1 1 0 0 1-.995.995z" fill="#2a3d56"/><path d="M110.274 36.222v-2.844a1 1 0 0 0-.995-.995H78.892a1 1 0 0 0-.995.995v2.844z" fill="#f8b732"/><path d="M82.84 32.383h-3.948a1 1 0 0 0-.995.995v2.844h3.948v-2.844a1 1 0 0 1 .995-.995z" fill="#dc6563"/><g fill="#1849ca"><use xlink:href="#D"/><path d="M100.87 59.023H87.303c-.824 0-1.492-.668-1.492-1.492s.668-1.492 1.492-1.493h13.566c.824 0 1.492.668 1.492 1.492s-.668 1.492-1.492 1.493z"/><use xlink:href="#D" y="9.203"/></g><path d="M107.187 47.918a1 1 0 0 1-.995.995H81.987a1 1 0 0 1-.995-.995v-8.206a1 1 0 0 1 .995-.995h24.2a1 1 0 0 1 .995.995z" fill="#d0dff1"/><path d="M84.936 47.918v-8.206a1 1 0 0 1 .995-.995h-3.944a1 1 0 0 0-.995.995v8.206a1 1 0 0 0 .995.995h3.948a1 1 0 0 1-.999-.995z" fill="#b2b3ca"/><path d="M103.602 71.23a1 1 0 0 1-.995.995H85.564a1 1 0 0 1-.995-.995v-3.365a1 1 0 0 1 .995-.995h17.043a1 1 0 0 1 .995.995z" fill="#d0dff1"/><path d="M88.517 71.23v-3.365a1 1 0 0 1 .995-.995h-3.948a1 1 0 0 0-.995.995v3.365a1 1 0 0 0 .995.995h3.948a1 1 0 0 1-.995-.995z" fill="#b2b3ca"/><defs ><path id="B" d="M45.85 37.32H29.102c-.824 0-1.492-.668-1.492-1.492s.668-1.492 1.492-1.493H45.85c.824 0 1.492.668 1.492 1.492s-.668 1.492-1.492 1.493z"/><path id="C" d="M58.993 37.32h-8.62c-.824 0-1.492-.668-1.492-1.492s.668-1.492 1.492-1.493h8.62c.533 0 1.026.284 1.293.746s.267 1.03 0 1.493-.76.746-1.293.746z"/><path id="D" d="M100.87 54.42H87.303c-.824 0-1.492-.668-1.492-1.492s.668-1.492 1.492-1.493h13.566c.533 0 1.026.284 1.293.746s.267 1.03 0 1.493-.76.746-1.293.746z"/></defs></svg>