<svg xmlns="http://www.w3.org/2000/svg" xmlns:xlink="http://www.w3.org/1999/xlink" width="116" height="86.326"><circle cx="103.5" cy="27.825" r="12.5" fill="#f5f4f5"/><circle cx="7.5" cy="14.825" r="1.5" fill="#46b8e0"/><path d="M108.536 64.205c.416.13.82.293 1.21.5.203.4.37.798.5 1.22a6.96 6.96 0 0 1-.437 1.18c-.4.23-.827.408-1.272.527-.44-.102-.866-.25-1.274-.443-.197-.402-.343-.827-.434-1.265a4.42 4.42 0 0 1 .434-1.145 6.4 6.4 0 0 1 1.274-.563z" fill="#e0f6fc"/><circle cx="12.5" cy="50.825" r="12.5" fill="#f5f4f5"/><ellipse cx="7.5" cy="62.325" rx="1.5" ry="2" fill="#aad89f"/><rect width="82" height="66" rx="26" fill="#9e9ea2" opacity=".2" x="21" y="7.325"/><path d="M68.34 84.887H45.32L48.2 67.622v-5.755h17.265v5.755z" fill="#b2b3ca"/><path d="M17.985 1.44h77.693a2.88 2.88 0 0 1 2.878 2.878v60.427a2.88 2.88 0 0 1-2.878 2.878H17.985a2.88 2.88 0 0 1-2.878-2.878V4.317a2.88 2.88 0 0 1 2.878-2.878z" fill="#c4ccff"/><path d="M17.985 1.44h77.693a2.88 2.88 0 0 1 2.878 2.878v8.632h-83.45V4.317a2.88 2.88 0 0 1 2.878-2.878z" fill="#cee9fb"/><path d="M15.107 12.95h83.448v40.285H15.107z" fill="#fff"/><path d="M26.617 24.46h17.265v17.265H26.617z" fill="#f8b732"/><path d="M69.17 56.7l4.07-4.07 23.85 23.85a2.88 2.88 0 0 1-1.269 4.857 2.88 2.88 0 0 1-2.8-.788z" fill="#1849ca"/><path d="M62.698 50.234l4.07-4.07L78.78 58.177l-4.07 4.07zm-7.306-31.53H92.8v8.633H55.392z" fill="#f8b732"/><path d="M55.392 38.847l2.26 9.79c.486 2.108 2.114 3.764 4.212 4.29l4.72 1.18 4.07-4.07-1.18-4.72c-.525-2.098-2.18-3.726-4.29-4.212z" fill="#b2b3ca"/><path d="M99.994 64.744V4.316A4.32 4.32 0 0 0 95.677 0H17.984a4.32 4.32 0 0 0-4.316 4.316v60.428a4.32 4.32 0 0 0 4.316 4.316H46.5l-2.4 14.388h-5.973a1.44 1.44 0 0 0-1.439 1.439 1.44 1.44 0 0 0 1.439 1.439h37.408a1.44 1.44 0 0 0 1.439-1.439 1.44 1.44 0 0 0-1.439-1.439H69.56l-2.4-14.388H79.5l12.517 12.516c1.076 1.154 2.696 1.63 4.225 1.24s2.723-1.584 3.113-3.113-.084-3.15-1.24-4.225L91.7 69.06h3.968a4.32 4.32 0 0 0 4.316-4.316zM68.618 54.107l2.035-2.035 6.1 6.1-2.035 2.035zm-2.476-1.594l-3.93-.982a4.3 4.3 0 0 1-3.159-3.217l-1.742-7.548 7.548 1.742a4.3 4.3 0 0 1 3.217 3.159l.982 3.93zm5.81-3.213l-1.083-4.332a7.16 7.16 0 0 0-5.361-5.268l-9.79-2.26a1.44 1.44 0 0 0-1.725 1.725l2.26 9.79c.236 1.037.7 2.008 1.356 2.844h-41.06V14.388h80.57V51.8h-22.67zM17.984 2.878h77.693a1.44 1.44 0 0 1 1.439 1.439V11.5h-80.57V4.316a1.44 1.44 0 0 1 1.438-1.438zm48.658 80.57H47.02l2.4-14.388h14.826zM17.984 66.183a1.44 1.44 0 0 1-1.439-1.439v-10.07h46.37l2.933.733 10.776 10.777zm78.1 13.358a1.44 1.44 0 0 1-2.035 0L76.757 62.246l2.035-2.034 17.294 17.295a1.44 1.44 0 0 1 0 2.034zM77.322 54.673h19.794v10.07a1.44 1.44 0 0 1-1.439 1.439h-6.845z" fill="#2a3d56"/><path d="M59.71 57.55h-5.755a1.44 1.44 0 0 0-1.246 2.159 1.44 1.44 0 0 0 1.246.719h5.755a1.44 1.44 0 0 0 1.246-2.159 1.44 1.44 0 0 0-1.246-.719z" fill="#e6f4fe"/><ellipse cx="21" cy="7.325" rx="2" ry="1" fill="#dc6563"/><ellipse cx="26.5" cy="7.325" rx="1.5" ry="1" fill="#f8b732"/><ellipse cx="32.5" cy="7.325" rx="1.5" ry="1" fill="#3ab951"/><g fill="#1849ca"><use xlink:href="#B"/><use xlink:href="#B" x="8.632"/><path d="M23.74 46.04H22.3V44.6a1.44 1.44 0 0 0-1.439-1.439 1.44 1.44 0 0 0-1.439 1.439v2.878a1.44 1.44 0 0 0 1.439 1.439h2.878a1.44 1.44 0 0 0 1.439-1.439 1.44 1.44 0 0 0-1.439-1.439zm8.632 0h-2.877a1.44 1.44 0 0 0-1.246 2.159 1.44 1.44 0 0 0 1.246.719h2.878a1.44 1.44 0 0 0 1.246-2.159 1.44 1.44 0 0 0-1.246-.719zm8.632 0h-2.878a1.44 1.44 0 0 0-1.439 1.439 1.44 1.44 0 0 0 1.439 1.439h2.878a1.44 1.44 0 0 0 1.439-1.439 1.44 1.44 0 0 0-1.439-1.439zm8.633-28.775H46.76a1.44 1.44 0 0 0-1.439 1.439 1.44 1.44 0 0 0 1.439 1.439h1.44v1.44a1.44 1.44 0 0 0 1.439 1.439 1.44 1.44 0 0 0 1.439-1.439v-2.878a1.44 1.44 0 0 0-1.439-1.439zm0 8.633a1.44 1.44 0 0 0-1.439 1.439v2.878a1.44 1.44 0 0 0 1.439 1.439 1.44 1.44 0 0 0 1.439-1.439v-2.878a1.44 1.44 0 0 0-1.439-1.439zm0 8.632a1.44 1.44 0 0 0-1.439 1.439v2.878a1.44 1.44 0 0 0 1.439 1.439 1.44 1.44 0 0 0 1.439-1.439V35.97a1.44 1.44 0 0 0-1.439-1.439zm0 8.633a1.44 1.44 0 0 0-1.439 1.439v1.44h-1.44a1.44 1.44 0 0 0-1.439 1.439 1.44 1.44 0 0 0 1.439 1.439h2.878a1.44 1.44 0 0 0 1.439-1.439v-2.878a1.44 1.44 0 0 0-1.439-1.439zM20.862 23.02a1.44 1.44 0 0 0 1.439-1.439v-1.44h1.44a1.44 1.44 0 0 0 1.439-1.439 1.44 1.44 0 0 0-1.439-1.439h-2.878a1.44 1.44 0 0 0-1.439 1.44v2.878a1.44 1.44 0 0 0 1.439 1.438z"/><use xlink:href="#C"/><use xlink:href="#C" y="8.632"/><path d="M64.024 31.653H55.4a1.44 1.44 0 0 0-1.246 2.159 1.44 1.44 0 0 0 1.246.719h8.633a1.44 1.44 0 0 0 1.439-1.439 1.44 1.44 0 0 0-1.439-1.439zm28.776 0H69.78a1.44 1.44 0 0 0-1.439 1.439 1.44 1.44 0 0 0 1.439 1.439H92.8a1.44 1.44 0 0 0 1.439-1.439 1.44 1.44 0 0 0-1.439-1.439zm0 5.755H72.658a1.44 1.44 0 0 0-1.246 2.159 1.44 1.44 0 0 0 1.246.719H92.8a1.44 1.44 0 0 0 1.246-2.159 1.44 1.44 0 0 0-1.246-.719z"/></g><path d="M92.8 17.265H55.392a1.44 1.44 0 0 0-1.439 1.439v8.633a1.44 1.44 0 0 0 1.439 1.439H92.8a1.44 1.44 0 0 0 1.439-1.439v-8.633a1.44 1.44 0 0 0-1.439-1.439zm-1.44 8.633H56.83v-5.755h34.53zM45.32 24.46a1.44 1.44 0 0 0-1.443-1.439h-17.26a1.44 1.44 0 0 0-1.439 1.439v17.26a1.44 1.44 0 0 0 1.439 1.439h17.26a1.44 1.44 0 0 0 1.439-1.439zm-2.878 15.826H28.056V25.898h14.387z" fill="#3ab951"/><defs ><path id="B" d="M29.495 20.143h2.878a1.44 1.44 0 0 0 1.439-1.439 1.44 1.44 0 0 0-1.439-1.439h-2.878a1.44 1.44 0 0 0-1.439 1.439 1.44 1.44 0 0 0 1.439 1.439z"/><path id="C" d="M20.862 31.653a1.44 1.44 0 0 0 1.439-1.439v-2.878a1.44 1.44 0 0 0-1.439-1.439 1.44 1.44 0 0 0-1.439 1.439v2.878a1.44 1.44 0 0 0 1.439 1.439z"/></defs></svg>