<svg xmlns="http://www.w3.org/2000/svg" width="116" height="102.129"><ellipse cx="15" cy="32.629" rx="15" ry="14.5" fill="#f5f4f5"/><ellipse cx="111" cy="28.629" rx="2" ry="1.5" fill="#46b8e0"/><path d="M7.075 68.725c-.492.153-.97.346-1.43.58a8.65 8.65 0 0 0-.59 1.442c.13.48.303.95.517 1.4a6.18 6.18 0 0 0 1.5.624c.52-.12 1.025-.297 1.507-.525.233-.477.406-.98.514-1.5a5.23 5.23 0 0 0-.51-1.354 7.57 7.57 0 0 0-1.507-.666z" fill="#e0f6fc"/><ellipse cx="101.5" cy="77.629" rx="14.5" ry="15.5" fill="#f5f4f5"/><circle cx="111" cy="89.129" fill="#aad89f" r="2"/><rect width="78" height="52" rx="23" fill="#9e9ea2" opacity=".2" x="15" y="8.129"/><path d="M13.762 100.428h89.806a3.4 3.4 0 0 0 3.285-4.306L97.815 62.98h-78.3l-9.038 33.14a3.4 3.4 0 0 0 3.285 4.306z" fill="#b2b3ca"/><path d="M13.762 100.428h6.81a3.4 3.4 0 0 1-3.285-4.306l9.038-33.142h-6.81l-9.038 33.14a3.4 3.4 0 0 0 3.285 4.306z" fill="#d0dff1"/><path d="M22.915 11.915c-1.874.008-3.392 1.526-3.4 3.4V62.98h78.3V15.315c-.008-1.874-1.526-3.392-3.4-3.4z" fill="#fff"/><path d="M19.515 15.315V62.98h6.81V15.315c.008-1.874 1.526-3.392 3.4-3.4h-6.81c-1.874.008-3.392 1.526-3.4 3.4z" fill="#e6f4fe"/><path d="M45.045 86.8l-1.7 6.81h30.64l-1.702-6.81z" fill="#b2b3ca"/><path d="M43.345 93.62h6.81l1.702-6.81h-6.81z" fill="#d0dff1"/><path d="M34.835 25.532c-.016 11.785 8.574 21.817 20.22 23.616s22.863-5.174 26.403-16.414S79.804 9.35 69.228 4.15s-23.364-1.902-30.104 7.765c-2.786 3.995-4.282 8.747-4.29 13.617z" fill="#f8b732"/><path d="M8.842 95.678l8.97-32.92V15.32c.008-2.817 2.3-5.098 5.106-5.107H38.3a25.43 25.43 0 0 1 40.749 0H94.4a5.13 5.13 0 0 1 5.106 5.106v47.44l8.97 32.92a5.09 5.09 0 0 1-4.918 6.451H13.76a5.09 5.09 0 0 1-4.919-6.451zM58.665 3.404c-12.22 0-22.128 9.907-22.128 22.128S46.444 47.66 58.665 47.66s22.128-9.907 22.128-22.128A22.13 22.13 0 0 0 58.665 3.404zM96.112 15.32a1.7 1.7 0 0 0-1.7-1.7H81.235c5.682 10.743 3.004 24.002-6.4 31.698s-22.933 7.696-32.338 0-12.083-20.955-6.4-31.698H22.92a1.7 1.7 0 0 0-1.7 1.7v45.958h74.9zM12.4 98.06a1.69 1.69 0 0 0 1.362.664h89.807c.534.007 1.04-.24 1.362-.664a1.74 1.74 0 0 0 .29-1.5l-8.7-31.882h-75.7l-8.7 31.884c-.14.517-.033 1.07.3 1.498zm30.996-11.662a1.7 1.7 0 0 1 1.651-1.29h27.235a1.7 1.7 0 0 1 1.651 1.29l1.7 6.8a1.7 1.7 0 0 1-1.651 2.114H43.34a1.7 1.7 0 0 1-1.647-2.113zm28.407 5.518l-.85-3.4H46.378l-.85 3.4z" fill="#2a3d56"/><path d="M67.176 54.47H50.154v3.4h17.022z" fill="#1849ca"/><path d="M92.7 68.086h-6.8v3.4h6.8zm-10.214 0h-6.8v3.4h6.8zm-10.213 0h-6.8v3.4h6.8zm-20.426 0h-6.8v3.4h6.8zm-10.213 0h-6.8v3.4h6.8zm-10.214 0h-6.8v3.4h6.8zm30.64 0h-6.8v3.4h6.8zm30.64 6.81h-6.8v3.4h6.8zm-10.214 0h-6.8v3.4h6.8zm-10.213 0h-6.8v3.4h6.8zm-20.426 0h-6.8v3.4h6.8zm-10.213 0h-6.8v3.4h6.8zm-10.214 0h-6.8v3.4h6.8zm30.64 0h-6.8v3.4h6.8zm14.56-47.947l-10.213 6.8-1.887-2.833 8.094-5.392-8.094-5.393 1.9-2.832 10.2 6.8a1.7 1.7 0 0 1 0 2.832zm-25.718 6.81l-10.216-6.8a1.7 1.7 0 0 1 0-2.832l10.213-6.8 1.89 2.835-8.094 5.392 8.1 5.393zm11.128-.077l-3.402-17.03-3.34.667 3.402 17.03z" fill="#2a3d56"/></svg>