<svg xmlns="http://www.w3.org/2000/svg" width="116" height="91.326"><circle cx="13.5" cy="62.826" r="13.5" fill="#f5f4f5"/><circle cx="5" cy="73.326" r="2" fill="#aad89f"/><circle cx="5" cy="28.326" r="2" fill="#46b8e0"/><path d="M108.294 72.3a8.27 8.27 0 0 1 1.279.518c.214.413.39.844.528 1.29-.116.43-.27.847-.462 1.25-.422.245-.874.432-1.345.558-.465-.11-.917-.266-1.348-.47-.208-.425-.362-.874-.46-1.337.096-.422.25-.828.46-1.207.426-.25.878-.45 1.348-.6z" fill="#e0f6fc"/><circle cx="102.5" cy="44.826" r="13.5" fill="#f5f4f5"/><rect width="11" height="65" rx="5.5" fill="#9e9ea2" opacity=".2" x="93" y="24.326"/><path d="M98.634 85.028V22.044c0-1.254-.498-2.456-1.385-3.342s-2.1-1.383-3.344-1.382H18.33c-1.253 0-2.454.498-3.34 1.384s-1.384 2.087-1.384 3.34v62.984z" fill="#d0dff1"/><path d="M19.904 23.62h72.43v47.238h-72.43z" fill="#e6f4fe"/><path d="M101.782 80.304v4.724c0 2.61-2.115 4.724-4.724 4.724H15.18c-2.61 0-4.724-2.115-4.724-4.724h0v-4.724h31.492l3.15 3.15H67.14l3.15-3.15z" fill="#c4ccff"/><path d="M38.8 9.448h-4.724c-2.61 0-4.724 2.115-4.724 4.724v25.193c0 1.253.498 2.454 1.384 3.34s2.087 1.384 3.34 1.384h6.3l4.724 6.3 4.724-6.3h11.022c2.61 0 4.724-2.115 4.724-4.724h0v-3.15z" fill="#dc6563"/><path d="M81.313 36.216h-3.148l-4.724 6.3-4.724-6.3H43.523c-2.61 0-4.724-2.115-4.724-4.724V6.3c0-2.61 2.115-4.724 4.724-4.724h37.8c2.61 0 4.724 2.115 4.724 4.724v25.193c0 2.61-2.115 4.724-4.724 4.724z" fill="#f8b732"/><ellipse cx="76.5" cy="56.326" rx="4.5" ry="5" fill="#f2c09a"/><path d="M76.59 61.41a6.3 6.3 0 0 1 6.3 6.3v3.15h-12.6v-3.15a6.3 6.3 0 0 1 6.3-6.3z" fill="#1849ca"/><circle cx="36" cy="56.326" r="5" fill="#f2c09a"/><path d="M35.65 61.41a6.3 6.3 0 0 1 6.3 6.3v3.15h-12.6v-3.15a6.3 6.3 0 0 1 6.3-6.3z" fill="#1849ca"/><path d="M54.545 75.58h3.15v3.15h-3.15z" fill="#e6f4fe"/><path d="M101.782 78.73h-1.574V22.044a6.3 6.3 0 0 0-6.3-6.3h-6.3V6.3a6.3 6.3 0 0 0-6.3-6.3H43.523a6.3 6.3 0 0 0-6.3 6.3v1.575h-3.15a6.3 6.3 0 0 0-6.3 6.3v1.575H18.33a6.3 6.3 0 0 0-6.3 6.3v56.68h-1.573c-.868 0-1.572.702-1.575 1.57v4.724a6.3 6.3 0 0 0 6.3 6.3h81.88a6.3 6.3 0 0 0 6.3-6.3V80.3c-.001-.418-.17-.818-.465-1.112s-.697-.46-1.115-.458zM40.374 6.3a3.15 3.15 0 0 1 3.149-3.149h37.8A3.15 3.15 0 0 1 84.462 6.3v25.192a3.15 3.15 0 0 1-3.149 3.149h-3.15c-.496 0-.963.233-1.26.63L73.44 39.89l-3.465-4.618c-.297-.397-.764-.63-1.26-.63H43.523a3.15 3.15 0 0 1-3.149-3.149zm-9.448 7.874a3.15 3.15 0 0 1 3.149-3.149h3.15v20.47a6.3 6.3 0 0 0 6.3 6.3h20.47v1.576a3.15 3.15 0 0 1-3.149 3.148H49.82c-.496 0-.963.233-1.26.63l-3.464 4.618-3.464-4.618c-.297-.397-.764-.63-1.26-.63h-6.3a3.15 3.15 0 0 1-3.15-3.149zm3.15 31.492h5.507l4.25 5.67c.297.396.764.63 1.26.63s.962-.233 1.26-.63l4.25-5.67h10.24a6.3 6.3 0 0 0 6.3-6.3V37.79h.787l4.252 5.668c.297.396.764.63 1.26.63s.962-.233 1.26-.63l4.25-5.67h2.363a6.3 6.3 0 0 0 6.3-6.3v-6.3h3.15v44.082h-6.3v-1.574C84.463 65.1 83.16 62.645 81 61.182a6.3 6.3 0 0 0-4.323-10.809 6.3 6.3 0 0 0-4.584 10.701l.108.108c-2.17 1.463-3.473 3.908-3.474 6.526v1.575H43.523v-1.575c-.001-2.618-1.303-5.063-3.474-6.526a6.3 6.3 0 0 0-4.323-10.809 6.3 6.3 0 0 0-4.584 10.701l.108.108c-2.168 1.464-3.468 3.91-3.468 6.525v1.575h-6.3V25.194h6.3v14.172a6.3 6.3 0 0 0 6.3 6.3zM76.6 62.984c1.253 0 2.454.498 3.34 1.384s1.384 2.087 1.384 3.34v1.574h-9.448v-1.574c0-2.61 2.115-4.724 4.724-4.724zm-3.15-6.3a3.15 3.15 0 0 1 3.149-3.149 3.15 3.15 0 0 1 3.149 3.149 3.15 3.15 0 0 1-5.376 2.227 3.15 3.15 0 0 1-.922-2.227zm-37.8 6.3c1.253 0 2.454.498 3.34 1.384s1.384 2.087 1.384 3.34v1.574h-9.45v-1.574c0-1.253.498-2.454 1.384-3.34s2.087-1.384 3.34-1.384zm-3.15-6.3a3.15 3.15 0 0 1 3.149-3.149 3.15 3.15 0 0 1 3.149 3.149 3.15 3.15 0 0 1-5.376 2.227 3.15 3.15 0 0 1-.922-2.227zm-17.32-34.64A3.15 3.15 0 0 1 18.33 18.9h9.452v3.15h-7.878c-.87 0-1.575.705-1.575 1.575v47.233c0 .418.166.818.46 1.114s.696.46 1.114.46h72.432c.418 0 .818-.166 1.114-.46s.46-.696.46-1.114V23.62c0-.418-.166-.818-.46-1.114s-.696-.46-1.114-.46h-4.724V18.9h6.3a3.15 3.15 0 0 1 3.149 3.149v56.68H70.29c-.417 0-.818.166-1.113.46L66.5 81.88H45.75l-2.688-2.688c-.295-.295-.696-.46-1.113-.46H15.182zm85.026 62.985a3.15 3.15 0 0 1-3.149 3.149H15.182a3.15 3.15 0 0 1-3.148-3.149v-3.15h29.263l2.685 2.688c.295.295.696.46 1.113.46h22.047c.417 0 .818-.166 1.113-.46l2.688-2.688h29.265z" fill="#2a3d56"/><path d="M54.545 7.873H79.74v3.15H54.545zm-9.448 6.297h34.64v3.15h-34.64zm0 6.3h34.64v3.15h-34.64zm0 6.298H73.44v3.15H45.097zm3.15-18.895h3.15v3.15h-3.15z" fill="#b2b3ca"/></svg>