<svg xmlns="http://www.w3.org/2000/svg" xmlns:xlink="http://www.w3.org/1999/xlink" width="587.288" height="490.755"><style><![CDATA[.B{fill:#243762}.C{fill:#ecf1f7}.D{opacity:.3}.E{fill:#fff}.F{fill:#af9cda}.G{fill:#f7a9b4}.H{fill:#c5d9ff}.I{fill:#fe5e8b}]]></style><g fill="#6961e5"><path d="M587 313.215a168.59 168.59 0 0 0-.773-28.768c-5.077-44.83-28.076-87.1-61.926-116.926-12.077-10.64-25.817-20.173-33.676-34.22-13.237-23.654-12.234-50.84-28.66-74.194C445.328 35.52 421.758 17.7 394.53 8.125c-80.583-27.922-193.4 17.542-183.244 114.63.037.347.077.854.12 1.5a35.34 35.34 0 0 1-34.622 37.6c-74.35 1.763-138.347 59.086-152.04 131.7-8.807 46.7 5.614 97.88 39.773 130.914 25.5 24.657 59.707 38.2 93.935 47.512 68.628 18.665 140.846 22.577 211.606 15.44 66.236-6.682 136.1-25.723 178.94-76.683 22.85-27.192 35.942-62.052 38.003-97.524z" opacity=".4"/><path d="M525.866 317.79c.44-7.516.236-15.055-.607-22.536-3.978-35.118-22-68.234-48.512-91.6-9.462-8.336-20.225-15.8-26.382-26.808-10.37-18.53-9.583-39.827-22.45-58.123a108.84 108.84 0 0 0-52.828-39.939c-63.128-21.872-151.508 13.742-143.55 89.8.028.273.06.67.092 1.17.485 7.548-2.138 14.965-7.262 20.53s-12.3 8.79-19.86 8.927c-58.243 1.383-108.378 46.288-119.1 103.17-6.9 36.58 4.4 76.677 31.157 102.555 19.974 19.318 46.775 29.93 73.588 37.22 53.76 14.622 110.336 17.685 165.768 12.1 51.89-5.232 106.622-20.15 140.18-60.07 17.893-21.3 28.15-48.607 29.768-76.396z" opacity=".88"/><circle cx="18.183" cy="18.183" transform="matrix(.231 -.973 .973 .231 530.976 85.918)" r="18.183" class="D"/><circle cx="21.085" cy="21.085" r="21.085" transform="matrix(.707107 -.707107 .707107 .707107 123.687 51.337)" class="D"/><circle cx="27.231" cy="456.35" r="27.231" class="D"/></g><circle cx="242.1" cy="144.97" fill="#8aa3f8" r="96.515"/><path d="M309.116 214.476c-.373-.001-.708-.226-.85-.57s-.064-.74.2-1.005c37.332-37.332 37.332-97.858 0-135.2s-97.858-37.332-135.2 0a.92.92 0 0 1-1.252-.048.92.92 0 0 1-.048-1.252 97.44 97.44 0 0 1 163.019 43.681 97.44 97.44 0 0 1-25.219 94.119.92.92 0 0 1-.659.265z" class="B"/><circle cx="242.1" cy="144.97" r="73.445" class="E"/><path d="M242.1 219.338c-41.072 0-74.368-33.296-74.368-74.368s33.296-74.368 74.368-74.368a.92.92 0 0 1 .798 1.383.92.92 0 0 1-.798.461c-39.948.148-72.255 32.575-72.255 72.524s32.306 72.375 72.255 72.523a.92.92 0 0 1 .798 1.383.92.92 0 0 1-.798.461z" class="B"/><path d="M261.128 159.007h-19.98c-4.103-.005-7.428-3.33-7.433-7.433v-27.7c0-3.565 2.9-6.455 6.455-6.455s6.455 2.9 6.455 6.455v22.223h14.5c2.306 0 4.437 1.23 5.6 3.227s1.153 4.458 0 6.455-3.284 3.228-5.6 3.227z" fill="#012ca8"/><path d="M92.255 178.494l103.97 103.968c9.766 9.767 23.013 15.254 36.825 15.254s27.058-5.487 36.825-15.254l12.43-12.43c2.255-2.254 3.522-5.312 3.522-8.5s-1.267-6.246-3.522-8.5l-42.426-42.427a12.02 12.02 0 0 0-17 0l-21.214 21.214a4.25 4.25 0 0 1-6.009 0l-51.45-51.45a4.19 4.19 0 0 1 0-5.93l20.924-20.915c2.255-2.254 3.522-5.312 3.522-8.5s-1.267-6.246-3.522-8.5l-43.576-43.573a12.02 12.02 0 0 0-16.846-.148l-11.8 11.4a52.08 52.08 0 0 0-.653 74.29z" fill="#012ba3"/><path d="M95.5 106.302l58.422 58.422 2-2 9.194-9.2c2.255-2.254 3.522-5.312 3.522-8.5s-1.267-6.246-3.522-8.5l-43.572-43.572a12.02 12.02 0 0 0-16.844-.145l-11.8 11.4z" class="C"/><path d="M153.932 166.026L94.894 107l-3.384-2.72 12.562-12.13c5.1-4.872 13.134-4.802 18.14.157l43.573 43.575a12.96 12.96 0 0 1 0 18.3zm-59.635-61.884l1.866 1.507 57.77 57.767 10.54-10.542c2.082-2.08 3.252-4.904 3.252-7.847s-1.17-5.766-3.252-7.847L120.9 93.605a11.15 11.15 0 0 0-15.555-.135z" class="B"/><path d="M214.355 223.142l58.42 58.42 11.2-11.194c2.255-2.254 3.522-5.312 3.522-8.5s-1.267-6.246-3.522-8.5L240.4 209.793a12.02 12.02 0 0 0-16.846-.148l-11.806 11.4z" class="C"/><path d="M272.78 282.867l-59.042-59.035-3.383-2.717 12.558-12.128a13.01 13.01 0 0 1 18.139.159l43.573 43.576c2.427 2.426 3.79 5.718 3.79 9.15s-1.364 6.724-3.79 9.15zm-59.633-61.884l1.865 1.507 57.768 57.77 10.546-10.546c2.08-2.08 3.25-4.903 3.25-7.845s-1.17-5.764-3.25-7.845l-43.575-43.577a11.15 11.15 0 0 0-15.553-.135z" class="B"/><path d="M99.986 99.414l35.597 35.597" class="C"/><path d="M135.582 135.933a.92.92 0 0 1-.653-.271l-35.6-35.6a.92.92 0 0 1 .048-1.252.92.92 0 0 1 1.252-.048l35.6 35.6c.263.264.342.66.2 1.005s-.478.57-.85.57z" class="B"/><path d="M241.58 241.01l35.597 35.597" class="C"/><path d="M277.176 277.527c-.244 0-.48-.097-.65-.27l-35.6-35.6a.92.92 0 0 1 .048-1.252.92.92 0 0 1 1.252-.048l35.6 35.6c.264.264.342.66.2 1.006s-.48.57-.852.57z" class="B"/><path d="M433.384 459.493L297.1 439.334c-15.41-2.28-26.057-16.622-23.777-32.033l48.88-330.474c2.28-15.41 16.622-26.057 32.033-23.777L490.52 73.21c15.41 2.28 26.057 16.622 23.777 32.033l-48.88 330.473c-2.28 15.41-16.62 26.057-32.03 23.778z"/><path d="M286.68 395.982l46.06-312.004 169.175 24.974-46.06 312.004z" class="C"/><path d="M329.377 107.32l3.456-23.412 169.175 24.974-3.456 23.412z" class="F"/><path d="M368.43 438.917c-4.616.003-8.748-2.864-10.36-7.2s-.362-9.198 3.13-12.215 8.496-3.544 12.54-1.32a11.05 11.05 0 0 1 5.606 11.296c-.792 5.42-5.442 9.435-10.92 9.43zm-.03-20.247a9.23 9.23 0 1 0 1.368.1c-.453-.067-.9-.1-1.368-.1zm24.48-337.748a3.37 3.37 0 0 1-.522-.04 3.55 3.55 0 1 1 4.029-2.994h0a3.56 3.56 0 0 1-3.507 3.033zm-.007-5.258c-.9.003-1.655.718-1.698 1.625s.633 1.7 1.537 1.78 1.72-.546 1.854-1.445h0a1.7 1.7 0 0 0-.397-1.368 1.71 1.71 0 0 0-1.296-.59zm54.974 13.386a3.64 3.64 0 0 1-.527-.039l-43.17-6.385a3.55 3.55 0 0 1-2.305-5.741 3.55 3.55 0 0 1 3.343-1.286l43.17 6.385a3.55 3.55 0 0 1 3.025 3.77c-.135 1.855-1.676 3.292-3.536 3.296zm-43.18-11.65a1.71 1.71 0 0 0-1.72 1.583 1.71 1.71 0 0 0 1.471 1.817l43.17 6.385a1.71 1.71 0 0 0 1.921-1.442 1.71 1.71 0 0 0-1.421-1.937l-43.17-6.385a1.94 1.94 0 0 0-.251-.021z" class="C"/><path d="M456.594 325.525l-118.046-17.46c-.923-.137-1.862.098-2.612.654s-1.247 1.387-1.383 2.3l-4.53 30.625a3.52 3.52 0 0 0 2.966 3.995l100.92 14.926 10.4 14.34 1.854-12.53 4.87.72c.923.137 1.863-.1 2.612-.655s1.247-1.388 1.383-2.31l4.53-30.624a3.52 3.52 0 0 0-2.966-3.993z" class="H"/><path d="M433.915 361.5a.83.83 0 0 1-.135-.011l-100.92-14.93c-1.165-.17-2.215-.798-2.917-1.744s-1-2.132-.825-3.297l4.53-30.624c.168-1.167.795-2.218 1.742-2.92s2.134-.998 3.3-.822l27.28 4.037a.92.92 0 0 1 .599 1.489.92.92 0 0 1-.868.333l-27.28-4.037a2.61 2.61 0 0 0-2.947 2.191l-4.53 30.622c-.1.68.073 1.374.483 1.927s1.023.92 1.704 1.02l100.92 14.93a.92.92 0 0 1 .778.979.92.92 0 0 1-.913.854z" class="B"/><path d="M475.365 198.633l-118.042-17.46c-.923-.137-1.863.1-2.612.655s-1.247 1.388-1.383 2.31l-4.53 30.624c-.137.923.1 1.863.655 2.612s1.388 1.247 2.31 1.383l100.92 14.926 10.4 14.34 1.854-12.527 4.873.72c.923.137 1.862-.1 2.61-.655s1.246-1.387 1.382-2.31l4.53-30.625c.136-.923-.1-1.863-.656-2.612s-1.388-1.246-2.312-1.38z" class="H"/><path d="M463.66 250.397l-11.5-15.858-100.533-14.87a4.45 4.45 0 0 1-3.742-5.042c.043-.33.26-.613.57-.738s.662-.073.923.136.388.542.333.87c-.1.68.073 1.374.483 1.927s1.023.92 1.704 1.02l101.3 14.983 9.3 12.824 1.658-11.2 5.784.856a2.6 2.6 0 0 0 2.947-2.189l3.012-20.37c.043-.33.26-.613.57-.738s.662-.073.923.136.388.542.333.87l-3.014 20.373c-.172 1.165-.8 2.214-1.745 2.916s-2.13 1-3.296.826l-3.96-.586z" class="B"/><path d="M325.95 238.1l118.042 17.46c.923.136 1.754.634 2.3 1.383s.79 1.69.654 2.612l-4.53 30.624a3.52 3.52 0 0 1-3.995 2.966l-100.92-14.93-14.1 10.717 1.854-12.53-4.87-.72c-.923-.136-1.755-.633-2.31-1.383s-.792-1.69-.655-2.612l4.53-30.624a3.52 3.52 0 0 1 3.991-2.964z" class="F"/><path d="M438.957 294.095c-.22 0-.442-.017-.66-.05l-63-9.318a.92.92 0 1 1 .271-1.822l63 9.316c.68.1 1.374-.073 1.927-.483s.92-1.023 1.02-1.704l4.53-30.625a2.6 2.6 0 0 0-2.189-2.947.92.92 0 0 1-.587-1.485.92.92 0 0 1 .858-.339c2.424.362 4.097 2.617 3.742 5.042l-4.53 30.624c-.322 2.173-2.185 3.785-4.382 3.792z" class="B"/><path d="M286.68 395.982l4.238-28.707 169.175 24.974-4.238 28.707z" class="E"/><path d="M315.9 385.376c-.832 5.623-6.065 9.506-11.687 8.675s-9.507-6.064-8.675-11.687 6.064-9.507 11.686-8.676a10.29 10.29 0 0 1 8.676 11.688z" class="H"/><path d="M440.698 413.27c-.45 0-.902-.033-1.348-.1l-109.664-16.22c-3.264-.457-6.03-2.63-7.252-5.7s-.706-6.54 1.348-9.118 5.332-3.855 8.588-3.348l109.665 16.22a9.18 9.18 0 0 1-1.339 18.255zm-1.077-1.924c2.934.434 5.84-.942 7.364-3.487s1.365-5.757-.403-8.138a7.27 7.27 0 0 0-4.816-2.883l-109.663-16.222c-2.6-.4-5.216.62-6.854 2.68s-2.05 4.836-1.076 7.28 3.18 4.18 5.786 4.548z" opacity=".33" class="F"/><path d="M343.368 100.735a3.72 3.72 0 0 1-.531-.039 3.61 3.61 0 0 1-1.623-6.472 3.56 3.56 0 0 1 2.68-.67c1.972.293 3.334 2.128 3.045 4.1h0a3.62 3.62 0 0 1-3.571 3.082zm-.007-5.378c-.925.002-1.7.717-1.758 1.64s.6 1.74 1.504 1.875a1.77 1.77 0 0 0 2.007-1.49h0c.14-.963-.525-1.858-1.488-2a1.81 1.81 0 0 0-.265-.025zm9.995 6.856a3.75 3.75 0 0 1-.537-.039 3.61 3.61 0 1 1 .537.039zm-.01-5.378c-.925 0-1.693.714-1.76 1.637s.588 1.74 1.503 1.876c.963.14 1.858-.525 2-1.488h0a1.76 1.76 0 0 0-1.747-2.025zm9.794 6.825c-.177 0-.354-.013-.53-.04a3.61 3.61 0 1 1 .529.039zm-.005-5.378a1.77 1.77 0 0 0-1.76 1.64c-.068.923.6 1.74 1.504 1.876a1.77 1.77 0 0 0 2.008-1.492 1.77 1.77 0 0 0-1.492-2.008 2.07 2.07 0 0 0-.26-.014z" class="E"/><path d="M500.887 133.6c-.045 0-.1-.003-.135-.01l-156.637-23.17a.92.92 0 0 1-.601-1.491.92.92 0 0 1 .87-.333l156.637 23.17a.92.92 0 0 1 .778.979.92.92 0 0 1-.913.854z" class="B"/><path d="M435.588 332.58a.87.87 0 0 1-.137-.011l-83.575-12.36a.92.92 0 0 1-.776-1.046.86.86 0 0 1 .36-.6c.198-.136.446-.206.7-.166l83.575 12.36a.92.92 0 0 1 .778.979.92.92 0 0 1-.913.854zm-49.478 2.87a1.04 1.04 0 0 1-.137-.01l-35.57-5.262a.92.92 0 0 1-.599-1.489.92.92 0 0 1 .868-.333l35.572 5.262a.92.92 0 0 1 .778.979.92.92 0 0 1-.913.854zm-11.987 7.764c-.045 0-.1-.004-.135-.01l-24.967-3.692a.921.921 0 0 1 .271-1.822l24.965 3.692a.92.92 0 0 1 .778.979.92.92 0 0 1-.913.854zm59.99-.664a.86.86 0 0 1-.136-.011l-36.762-5.437a.92.92 0 0 1-.599-1.489.92.92 0 0 1 .868-.333l36.762 5.435a.92.92 0 0 1 .791.98.92.92 0 0 1-.924.855zm-8.73-79.324a.85.85 0 0 1-.135-.011l-83.577-12.36a.92.92 0 0 1-.777-1.048.91.91 0 0 1 1.048-.775l83.575 12.36a.92.92 0 0 1 .778.979.92.92 0 0 1-.913.854zm-49.48 2.868a.78.78 0 0 1-.136-.01l-35.57-5.26a.92.92 0 0 1-.599-1.489.92.92 0 0 1 .868-.333l35.572 5.26a.92.92 0 0 1 .778.979.92.92 0 0 1-.913.854zm36.96 15.006c-.048 0-.095-.004-.142-.01l-72.13-11.2a.92.92 0 0 1-.754-1.049.92.92 0 0 1 1.036-.773l72.13 11.2a.92.92 0 0 1 .777.981.92.92 0 0 1-.917.852zm11.035-7.904a.85.85 0 0 1-.137-.011l-36.76-5.44a.92.92 0 0 1-.599-1.489.92.92 0 0 1 .868-.333l36.762 5.437a.92.92 0 0 1 .79.979.92.92 0 0 1-.923.854z" class="E"/><path d="M341.11 122.965l118.042 17.46a3.52 3.52 0 0 1 2.966 3.995l-4.53 30.624c-.136.923-.634 1.755-1.383 2.31s-1.69.792-2.612.655l-100.92-14.924-14.1 10.716 1.848-12.53-4.87-.72a3.52 3.52 0 0 1-2.966-3.995l4.53-30.625a3.52 3.52 0 0 1 3.997-2.967z" class="F"/><path d="M457.588 175.966a1.1 1.1 0 0 1-.135-.009c-.504-.076-.85-.544-.778-1.048l4.53-30.624c.1-.68-.073-1.374-.483-1.927s-1.023-.92-1.704-1.02l-73.29-10.84a.92.92 0 0 1-.776-1.046c.08-.5.546-.845 1.048-.778l73.287 10.84c1.165.172 2.214.8 2.916 1.745s1 2.13.826 3.296l-4.53 30.625a.92.92 0 0 1-.91.787z" class="B"/><path d="M440.544 148.102c-.046 0-.092-.003-.137-.01L356.83 135.73a.92.92 0 1 1 .271-1.824l83.575 12.363a.92.92 0 0 1 .79.979.92.92 0 0 1-.923.854zm-49.48 2.87a.79.79 0 0 1-.135-.01l-35.572-5.262a.92.92 0 1 1 .271-1.824l35.57 5.26a.92.92 0 0 1 .791.981.92.92 0 0 1-.926.854zm36.96 15.003a.94.94 0 0 1-.142-.011l-72.13-11.2a.92.92 0 0 1-.769-1.053.93.93 0 0 1 1.053-.769l72.13 11.2a.92.92 0 0 1 .777.982.92.92 0 0 1-.919.851zm11.044-7.902c-.046 0-.1-.004-.136-.01l-36.762-5.437a.92.92 0 0 1-.762-1.044.92.92 0 0 1 1.031-.78l36.764 5.44c.475.074.814.5.78.98a.92.92 0 0 1-.914.855zm15.366 48.787a.85.85 0 0 1-.137-.011l-83.575-12.36a.92.92 0 0 1-.762-1.045.92.92 0 0 1 1.03-.78l83.577 12.363c.475.074.814.5.78.98a.92.92 0 0 1-.914.855zm-49.48 2.87a1.13 1.13 0 0 1-.136-.009l-35.572-5.262a.922.922 0 1 1 .271-1.824l35.57 5.262a.92.92 0 0 1 .79.979.92.92 0 0 1-.923.854zm-11.987 7.763a.85.85 0 0 1-.136-.011l-24.965-3.7c-.33-.043-.613-.26-.738-.57s-.073-.662.136-.923a.92.92 0 0 1 .87-.333l24.965 3.692a.92.92 0 0 1 .791.98.92.92 0 0 1-.924.855zm60-.663a.9.9 0 0 1-.136-.01l-36.762-5.44a.922.922 0 0 1 .271-1.824l36.762 5.437c.475.074.814.5.78.98a.92.92 0 0 1-.914.855z" class="E"/><path d="M284.488 431.15L95.156 452.48c-1.746.197-3.5-.307-4.873-1.403s-2.256-2.692-2.453-4.438L74.164 325.347a.35.35 0 0 1 .308-.385l201.758-22.734a.35.35 0 0 1 .387.308l13.675 121.333c.196 1.735-.306 3.477-1.394 4.843s-2.675 2.243-4.4 2.438z" class="I"/><g class="B"><path d="M94.407 453.446a7.56 7.56 0 0 1-7.5-6.7l-13.66-121.3c-.077-.697.424-1.326 1.12-1.407l201.763-22.732c.335-.04.672.057.936.268s.433.518.47.853l13.67 121.342c.223 1.978-.348 3.964-1.59 5.52s-3.05 2.556-5.028 2.78L95.26 453.398a7.33 7.33 0 0 1-.852.048zM75.144 325.81l13.6 120.722a5.7 5.7 0 0 0 6.306 5.031l189.332-21.334.1.918-.1-.918c1.492-.167 2.856-.92 3.792-2.094s1.367-2.67 1.2-4.162L275.77 303.21z"/><path d="M275.617 431.15l-171.2 21.33c-3.635.41 53.053-72.3 52.643-75.94l-82.894-51.194a.35.35 0 0 1 .308-.385l201.756-22.734a.35.35 0 0 1 .387.308l-69.023 68.31c.413 3.613 71.636 59.897 68.023 60.305z" class="D"/></g><use xlink:href="#B" class="G"/><path d="M74.228 325.917l-.153-1.355-.25-.254.2-.2v-.024h.03l83.208-82.29a16.03 16.03 0 0 1 19.777-2.258l99.173 61.592a1.13 1.13 0 0 1-.465 2.086zm94.347-86.955a14.2 14.2 0 0 0-10.015 4.141l-81.544 80.644 196.48-22.136-97.428-60.51c-2.25-1.397-4.845-2.138-7.494-2.14z" class="B"/><use xlink:href="#B" class="D I"/><use xlink:href="#C" class="G"/><use xlink:href="#D" class="B"/><path d="M84.658 265.182l131.87-14.858c8.644-.974 16.337 4.32 17.182 11.824l8.477 75.225-36.67 33.706-48.46 5.46-47.866-29.938-8.21-72.883z" class="E"/><g class="B"><path d="M156.84 377.494l-48.516-30.345-8.207-72.837-12.553-10.384 128.865-14.52c4.263-.53 8.573.496 12.14 2.888a13.66 13.66 0 0 1 6.062 9.747l8.526 75.7-37.237 34.227zm-46.782-31.437l47.215 29.532 47.84-5.39 36.105-33.185-8.423-74.763a11.83 11.83 0 0 0-5.271-8.432c-3.203-2.14-7.07-3.053-10.89-2.575l-128.877 14.52 14.087 7.366z"/><path d="M167.134 356.293l-62.72 94.8 171.2-19.288-80.563-78.647c-4.013-3.542-9.338-5.22-14.657-4.622s-10.137 3.42-13.26 7.767z" class="D"/></g><use xlink:href="#C" class="I"/><use xlink:href="#D" class="B"/><path d="M173.21 383.136l-46.06 64.086 125.73-14.164-59.165-52.23a13.91 13.91 0 0 0-20.503 2.308z" opacity=".35" class="C"/><path d="M74.547 325.126l82.51 51.415" class="G"/><path d="M74.06 325.9l.977-1.567 82.54 51.43-.977 1.567z" class="B"/><path d="M276.602 302.36L207.6 370.846" class="G"/><path d="M206.96 370.202l69.025-68.54 1.3 1.31-69.025 68.54z" class="B"/><path d="M104.632 307.308L81.617 309.9l-3.7-32.83a11.05 11.05 0 0 1 9.746-12.221l1.046-.118c2.913-.328 5.838.514 8.13 2.342s3.765 4.49 4.093 7.404z" class="C"/><path d="M80.803 310.92l-3.8-33.753a11.97 11.97 0 0 1 2.538-8.806c1.98-2.482 4.866-4.077 8.02-4.433l1.048-.118a11.98 11.98 0 0 1 8.808 2.538c2.483 1.98 4.078 4.867 4.433 8.023l3.8 33.75zm9.166-45.342a10.63 10.63 0 0 0-1.155.065l-1.048.118a10.13 10.13 0 0 0-6.787 3.75c-1.675 2.1-2.447 4.78-2.145 7.45l3.595 31.92 21.182-2.387-3.6-31.92a10.13 10.13 0 0 0-10.046-9zm30.288 24.636a.92.92 0 0 1-.925-.872.92.92 0 0 1 .825-.967l95.547-10.766c.506-.057.963.307 1.02.813s-.307.963-.813 1.02l-95.654 10.772zm3.66 32.48a.92.92 0 0 1-.925-.872.92.92 0 0 1 .825-.967l95.547-10.764c.506-.057.963.307 1.02.813s-.307.963-.813 1.02l-95.547 10.764a1 1 0 0 1-.107.006zm-1.85-16.428a.92.92 0 0 1-.925-.872.92.92 0 0 1 .825-.967l41.3-4.653c.506-.057.963.307 1.02.813s-.307.963-.813 1.02l-41.3 4.653a1.01 1.01 0 0 1-.107.006zm52.1-5.872a.92.92 0 0 1-.925-.872.92.92 0 0 1 .825-.967l43.447-4.893c.334-.05.67.086.873.355s.245.628.106.936-.434.516-.77.542l-43.45 4.893a1.01 1.01 0 0 1-.106.006zm-48.173 40.72a.92.92 0 0 1-.925-.872.92.92 0 0 1 .825-.967l41.3-4.65c.506-.057.963.307 1.02.813s-.307.963-.813 1.02l-41.3 4.65a1 1 0 0 1-.107.006z" class="B"/><defs ><path id="B" d="M74.472 324.962l83.435-82.514c4.975-4.935 12.685-5.816 18.645-2.13l99.17 61.592a.21.21 0 0 1-.089.387l-201.508 22.7"/><path id="C" d="M167.134 363.822l-62.72 87.262 171.2-19.288-80.56-71.12c-4.013-3.543-9.338-5.222-14.658-4.623s-10.138 3.42-13.262 7.768z"/><path id="D" d="M102.454 452.236l63.928-88.95.75.54-.75-.54a19.87 19.87 0 0 1 29.279-3.3l82.12 72.494zm80.054-95.375a18 18 0 0 0-14.626 7.5l-61.505 85.575 167.07-18.823-79-69.742a18.06 18.06 0 0 0-11.94-4.513z"/></defs></svg>