<svg xmlns="http://www.w3.org/2000/svg" width="696.633" height="628.751"><defs><clipPath id="A"><path d="M255.958 386.285L246.67 443.1H369.6c.306-7.756-4.855-14.778-11.557-18.693s-14.513-5.363-22.1-7-15.373-3.644-21.5-8.412a28.44 28.44 0 0 1-10.8-21.837" transform="translate(-246.67 -386.285)" fill="none"/></clipPath><clipPath id="B"><path d="M478.63 349.123l-54.556 18.393L481.62 476.14c7-3.36 10.786-11.206 11.11-18.964s-2.055-15.333-4.16-22.806-3.976-15.3-2.63-22.934c1.54-8.392 6.77-15.648 14.24-19.766" transform="translate(-424.075 -349.123)" fill="none"/></clipPath><clipPath id="C"><path d="M310.67 363.8l49.586-8.5-3.306-70.365 12.055-16.075-.25 26.937c67.53 9.445 99.644-6.14 99.644-6.14l7.556-27.863c28.807 4.722 75.087-1.417 75.087-1.417l-4.25-59.975-99.357-4.65c-13.7 21.25-44.593-6.066-44.593-6.066s-36.883 2.2-46.838 5.992c-9.917 3.778-58.394 48.188-63.28 75.56C288 297.69 310.67 363.8 310.67 363.8z" transform="translate(-292.078 -189.692)" fill="none"/></clipPath><clipPath id="D"><path d="M437.208 346.164l22.2 116.173-94.922 12.75-12.75-67.06c-123.26-36.836-176.152-112.395-150.65-221.957 23.607-101.426 141.2-129.4 255.486-75.56l-23.14 72.726c-87.838-32.113-132.23-4.722-140.258 45.336-7.786 48.552 22.668 107.2 144.035 117.6z" transform="translate(-194.828 -83.636)" fill="none"/></clipPath><clipPath id="E"><circle cx="48.169" cy="48.169" fill="none" r="48.169"/></clipPath></defs><path d="M87.555 628.52c-14.385-21.236-26.97-39.535-32.434-64.6s-3.2-52.574 10.444-74.3 39.784-36.26 65.1-32.192c22.347 3.59 40.73 20.56 51.717 40.347s15.747 42.33 20.363 64.488c8.744-19.882 30.75-32.878 52.435-31.6s41.77 16.33 49.71 36.548 3.687 44.53-10.1 61.315" fill="#050b8d"/><path d="M548.457 628.52c-2.868-57.845-26.735-112.66-61.247-140.412s-78.573-27.725-113.066.076-67.067 82.488-69.9 140.337" fill="#3b56ca"/><g fill="#fd1453"><path d="M448.884 628.75l2.316-.46c-4.53-20.052-11.703-39.414-21.327-57.58-9.078-16.757-19.65-30.118-31.427-39.712-14.785-12.048-31.5-18.157-49.68-18.157s-34.873 6.11-49.61 18.157c-11.736 9.6-22.254 22.957-31.265 39.714a231.4 231.4 0 0 0-21.093 57.584l2.318.452a228.82 228.82 0 0 1 20.882-56.965c8.86-16.472 19.183-29.584 30.675-38.974 14.3-11.684 30.48-17.607 48.094-17.607s33.82 5.924 48.167 17.607c11.532 9.392 21.91 22.505 30.838 38.977a229.89 229.89 0 0 1 21.113 56.965z"/><path d="M328.677 628.704l2.33-.366c-.066-.43-6.97-43.547-25.156-86.1-10.7-25.046-23.17-45.018-37.054-59.358-17.458-18.036-37.213-27.18-58.713-27.18s-41.227 9.145-58.627 27.18c-13.837 14.34-26.24 34.312-36.862 59.36-18.047 42.553-24.812 85.67-24.878 86.1l2.335.36c.066-.427 6.793-43.292 24.733-85.577 10.5-24.772 22.75-44.493 36.386-58.62 16.935-17.547 36.084-26.444 56.913-26.444s40 8.9 57 26.446c13.68 14.126 25.985 33.85 36.577 58.62 18.08 42.288 24.947 85.153 25.015 85.58zM497.342 477.8h172.055v150.72H497.342z"/></g><path fill="#fc5d87" d="M439.256 477.8h58.086V628.52h-58.086z"/><path d="M584.357 506.1h60.808v38.06h-60.808zm-8.377 71.333l2.065-1.147a58.94 58.94 0 0 0-11.258-14.483c-3.432-3.213-6.6-4.146-9.162-2.7-2.4 1.354-3.026 4.046-3.633 6.65-.467 2-.9 3.9-2.084 5.017-1.14 1.088-3.064 1.368-5.15.748a22.8 22.8 0 0 1-3.4-1.436l-2.675-1.207c-7.2-2.606-15.243-.346-20.03 5.62l1.834 1.485a15.49 15.49 0 0 1 17.348-4.9c.83.32 1.636.7 2.5 1.126 1.207.627 2.464 1.154 3.757 1.575 2.9.865 5.7.378 7.454-1.3 1.683-1.608 2.225-3.937 2.75-6.188.514-2.2 1-4.286 2.493-5.13 2.093-1.18 4.9.977 6.4 2.367 4.307 4.042 7.955 8.733 10.8 13.903zm-45.36 8.937h46.393v2.36H530.62zm13.67 12.688h32.723v2.36H544.3z" fill="#d6d1f7"/><path d="M669.398 477.8l27.233-58.956H527.564L497.342 477.8" fill="#3f59cc"/><path d="M655.22 443.656l5.728 8.212 20.434-.014 15.25-33h-10.308z" fill="#324fc5"/><path d="M226.174 220.823l-23.66 13.712-29.47-18.565 17.653-65.763 33.958 26.414-2.82 29.783z" fill="#fd5e89"/><path d="M212.93 167.5l11.727 9.122-1.76 18.62c-9.4-4.818-16.422-13.267-19.44-23.388l9.474-4.354z"/><path d="M297.567 571.702l-9.288 56.815h122.93c.306-7.756-4.855-14.778-11.557-18.693s-14.513-5.363-22.1-7-15.373-3.644-21.5-8.412a28.44 28.44 0 0 1-10.8-21.837" fill="#414773"/><g clip-path="url(#A)" transform="translate(288.279 571.702)"><path d="M31.42 66.1l2.3-.49C29.245 44.437 12.242 26.244-8.58 20.34l-.644 2.272C10.78 28.287 27.113 45.76 31.42 66.1z" fill="#fff"/></g><path d="M54.556 501.503L0 519.896 57.546 628.52c7-3.36 10.786-11.206 11.11-18.964s-2.055-15.333-4.16-22.806-3.976-15.3-2.63-22.934c1.54-8.392 6.77-15.648 14.24-19.766" fill="#414773"/><g clip-path="url(#B)" transform="translate(0 501.503)"><path d="M12.336 54.242c15.594-15 22.033-39.064 16.024-59.857l-2.267.655c5.77 19.972-.416 43.08-15.4 57.5z" fill="#fff"/></g><path d="M214.94 368.784s.444 76.17-13.223 105.783c-14.167 30.7-119.48 88.3-119.48 88.3l-44.39-66.583 71.782-58.56s14.64-81.7 33.53-131.285l99.644-6.14s131.757 68.948 134.59 109.56-5.667 164.814-5.667 164.814h-92.09L290.974 443.4l-107.676-74.615" fill="#012ca8"/><path d="M137.08 323.862l6.225 48.017-20.2 2.577m91.833-5.67l40.33 49.875-40.8-28.15z" fill="#164cce"/><g fill="#fd5e89"><path d="M124.496 389.548c1.17 6.874 4.44 10.16 7.9 9.046 2.84-.916.474-11.243-2.852-19.695-1.538-4.1-2.835-8.267-3.882-12.51"/><path d="M125.663 366.394l-35 3.512s9.568 37.28 14.2 38.817c2.777.922 3.53-1.256 3.53-1.256s.514 3.89 2.726 4.654a3.12 3.12 0 0 0 3.529-1.256s.935 3.292 3.884 2.184c3.223-1.213 5-12.388 5.977-23.5"/></g><path d="M115.77 411.202a56.58 56.58 0 0 0 1.89-16.453l-2.36.072a55.14 55.14 0 0 1-1.789 15.7zm-6.2-3.6a91.9 91.9 0 0 0 .518-13.327l-2.357.113c.138 4.318-.03 8.64-.5 12.934z"/><path d="M85.07 374.447l49.586-8.5-3.306-70.365 12.055-16.075-.25 26.937c67.53 9.445 99.644-6.14 99.644-6.14l7.556-27.863c28.807 4.722 75.087-1.417 75.087-1.417l-4.25-59.975-99.357-4.65c-13.7 21.25-44.593-6.066-44.593-6.066s-36.883 2.2-46.838 5.992c-9.917 3.778-58.394 48.188-63.28 75.56-4.723 26.45 17.948 92.56 17.948 92.56z" fill="#d9e2ff"/><path d="M143.255 295.935l13.6-34.35-13.448 17.927z" fill="#aad6b1"/><path d="M48.06 511.418l81.82-66.37.4-.666 29.6-135.87-2.307-.5-29.512 135.46-81.5 66.108zm250.135 63.4l14.167-134.57-.47-1.072-96.25-71.33-1.406 1.9 95.7 70.928-14.1 133.9z" fill="#fff"/><g clip-path="url(#C)" transform="translate(66.478 200.339)"><path d="M141.33 25.557a23.56 23.56 0 0 0 4.381-.4 21.6 21.6 0 0 0 13.255-8.181 19.5 19.5 0 0 0 3.617-14.645l-2.33.38a17.12 17.12 0 0 1-3.183 12.858c-2.893 3.806-7.1 6.397-11.8 7.27-6.073 1.147-13.05-.442-20.735-4.722C112.562 11.5 103.01 1.243 97.26-11.17l-2.15.975c5.957 12.872 15.86 23.51 28.274 30.373 6.43 3.57 12.446 5.378 17.945 5.378z"/></g><g fill="#050b8d"><path d="M236.663 116.603c23.607-101.426 141.2-129.4 255.486-75.56l-15.34 48.214 6.368 10.346-14.167 14.167c-87.838-32.113-132.23-4.722-140.258 45.336-7.786 48.55 22.668 107.2 144.035 117.6l18.23 95.41 18.134 6.594-14.17 14.167-94.922 12.75-12.75-67.06C264.053 301.725 211.16 226.165 236.663 116.603z"/><circle cx="460.507" cy="468.428" r="48.169"/></g><path d="M486.953 262.528l22.2 116.173-94.922 12.75-12.75-67.06c-123.26-36.836-176.152-112.395-150.65-221.957C274.437 1 392.03-26.964 506.316 26.876l-23.14 72.726c-87.838-32.113-132.23-4.722-140.258 45.336-7.786 48.552 22.668 107.2 144.035 117.6z" fill="#4f2ad3"/><circle cx="474.674" cy="454.261" fill="#502bd4" r="48.169"/><g clip-path="url(#D)" transform="translate(244.573)" fill="#fd1453"><path d="M141.732 278.6a42.07 42.07 0 0 0 6.78-.535c11.76-1.912 21.975-9.522 28.03-20.88 8.332-15.63 9.3-39.724 2.456-61.375-6.3-19.976-17.768-35.736-28.014-48.942a639.01 639.01 0 0 0-83.261-88.909C43.228 36.4 16.8 17.15-11.256.46a62.54 62.54 0 0 1 24.837-15.618c17.307-5.712 35.02-3.364 50.062-.314C86.2-10.805 108.1-3.315 128.796 6.82a332.84 332.84 0 0 1 61.411 38.962c39.94 31.733 74.906 72.764 103.932 121.953l2.034-1.2c-29.174-49.44-64.33-90.688-104.5-122.6-19.12-15.298-39.86-28.455-61.846-39.235-20.874-10.223-42.952-17.777-65.714-22.483-27.508-5.578-41.85-2.724-51.27.385A65 65 0 0 0-13.353-.768q-5.95-3.48-11.942-6.75l-1.134 2.07q5.726 3.125 11.417 6.443c-5.944 6.607-10.7 14.2-14.02 22.44-7.926 19.4-9.662 45.1-4.762 70.5 3.916 20.28 11.623 40.226 24.256 62.773 32.12 57.325 77.016 98.745 126.415 116.634 7.44 2.692 15.98 5.276 24.855 5.276zM-12.93 2.216c28.093 16.678 54.572 35.937 79.092 57.527a636.35 636.35 0 0 1 82.95 88.582c10.12 13.044 21.438 28.6 27.628 48.2 6.66 21.077 5.76 44.456-2.288 59.556-5.7 10.7-15.3 17.866-26.323 19.66-10.74 1.747-21.417-1.36-30.45-4.632-48.865-17.7-93.3-58.733-125.158-115.563-12.505-22.32-20.13-42.04-24-62.067-4.815-24.95-3.128-50.153 4.628-69.15 3.3-8.14 8.003-15.626 13.92-22.112zM151.127 398.98a111.85 111.85 0 0 1 137.581-84.054l.606-2.282a114.21 114.21 0 0 0-140.5 85.836z"/></g><g transform="translate(426.505 406.092)" clip-path="url(#E)"><path d="M-30.157 133.91C-8.68 67.772 60.867 30.073 128.007 48.177l.616-2.28C60.268 27.465-10.538 65.845-32.403 133.18z" fill="#fd1453"/></g><path d="M347.435 220.586s-2.027 1.1-3.455-1.45c-1.4-2.5 5.95-20.875 9.71-22.543 5.278-2.342 19.655 14.107 17.724 21.616-1.534 5.967-17.056 14.61-20.254 13.332-2.924-1.167-1.394-4.23-1.394-4.23a3.12 3.12 0 0 1-3.455-1.449c-1.123-2.058 1.125-5.278 1.125-5.278z" fill="#fd5e89"/><path d="M350.368 228.324a56.52 56.52 0 0 0 12.482-10.884l-1.8-1.538a55.11 55.11 0 0 1-11.9 10.4zm-2.165-6.846a92.02 92.02 0 0 0 9.366-9.5l-1.82-1.506c-2.8 3.283-5.846 6.362-9.1 9.216z"/><path d="M190.056 135.13l.136.514.4 1.492.453 1.744.383 1.44 9.222 34.45s16.572 20.962 37.364 6.124c11.725-8.372 17.24-33.458 13.582-53.538l-.227-1.186c-.353-1.732-.765-3.438-1.256-5.072l-.293-.944a.8.8 0 0 0-.053-.132 42.44 42.44 0 0 0-2.214-5.548l-.246-.5c-.038-.076-.07-.15-.113-.227-.017-.04-.036-.077-.057-.113a33.77 33.77 0 0 0-.661-1.218c-.327-.572-.655-1.12-1-1.653-.762-1.18-1.6-2.305-2.537-3.362a21.43 21.43 0 0 0-14.256-7.5c-12.448-1.256-20.945 2.924-26.7 8.808-7.17 7.314-10.134 17.256-11.264 22.615l-.066.308-.17.86-.26 1.515c-.05.308-.08.548-.1.733l-.02.113c-.014.183-.03.278-.03.278z" fill="#fd5e89"/><path d="M231.366 159.858a4.36 4.36 0 0 0 4.362-4.265l.317-14.65-2.36-.05-.317 14.65a2 2 0 0 1-2.2 1.946l-.238 2.35.435.02zm-7.5-18.646c-.1 1.1-.84 1.932-1.628 1.853s-1.337-1.04-1.224-2.142.84-1.932 1.628-1.853 1.34 1.042 1.224 2.142zm21.692 2.2c-.113 1.1-.842 1.932-1.63 1.853s-1.336-1.04-1.224-2.142.84-1.934 1.628-1.853 1.338 1.04 1.226 2.142zm-25.73-12.688a4.5 4.5 0 0 0-1.759.7 1.85 1.85 0 0 0-.809 1.594c.106 1.014 1.24 1.6 2.257 1.866a12.87 12.87 0 0 0 6.7-.036 2.56 2.56 0 0 0 1.866-1.313c.612-1.7-1.677-2.592-2.616-2.813-1.858-.4-3.782-.408-5.64.002zm23 1.84c-.56-.003-1.114.115-1.625.344s-.86.708-.935 1.26c-.06.894.837 1.564 1.677 1.95a11.32 11.32 0 0 0 5.807.96c.705.013 1.375-.306 1.8-.86.78-1.38-1.07-2.5-1.847-2.82-1.55-.63-3.217-.913-4.887-.832zm-14.967 32.34a5.4 5.4 0 0 0 1.014-.1l-.452-2.318a3.04 3.04 0 0 1-2.54-.66c-.703-.593-1.098-1.474-1.075-2.394l-2.36-.06a5.39 5.39 0 0 0 5.41 5.529zm-37.814-29.775l.136.514.28.025a38.48 38.48 0 0 0 15.188-22.23c14.948 3.164 31.476 4.1 39.763 1.2.627-.22 1.223-.52 1.776-.888a5.53 5.53 0 0 0 2.216-7.061c-5.714-13.312-35.9-11.806-47.438 2.017-7.17 7.314-10.134 17.256-11.264 22.615l-.066.308-.17.86-.26 1.515c-.05.308-.08.548-.1.733l-.02.113c-.017.187-.032.28-.032.28z"/><path d="M198.673 134.8a7.28 7.28 0 0 0-6.281-3.827c-2.605-.002-5.114.986-7.02 2.764-4.573 4.076-5.656 10.802-2.594 16.108s9.43 7.732 15.246 5.8" fill="#fd5e89"/><path d="M189.49 148.078l2.26-.688a11.06 11.06 0 0 1 1.094-8.8l-1.3-1.753-5.563 1.41.58 2.29 3.147-.8c-.954 2.688-1.03 5.61-.217 8.343z"/><path d="M684.08 628.713l2.33-.383a140.1 140.1 0 0 0-9.333-30.388c-9.052-20.144-21.5-30.792-35.99-30.792s-26.9 10.65-35.887 30.794c-4.22 9.746-7.318 19.94-9.23 30.388l2.33.378c1.88-10.26 4.925-20.273 9.075-29.844 5.98-13.39 16.68-29.355 33.71-29.355 32.836-.001 42.89 58.61 42.99 59.202z" fill="#d6d1f7"/></svg>