<svg xmlns="http://www.w3.org/2000/svg" width="796.61" height="760.922" fill="#fbecf3"><path d="M532.845 0v3C496.8 3 460.713 4.475 425.587 7.384c-34.075 2.822-67.66 7.027-99.82 12.497-31.416 5.343-61.777 11.945-90.24 19.62-28.04 7.562-54.456 16.225-78.5 25.747-23.92 9.468-45.66 19.848-64.617 30.85-19.017 11.036-35.354 22.77-48.556 34.87-13.326 12.216-23.55 24.895-30.39 37.685-3.445 6.443-6.072 13.005-7.81 19.505C3.9 194.726 3 201.4 3 207.97c0 9.982 2.066 20.07 6.14 29.988 4.046 9.845 10.104 19.607 18.007 29.015 7.917 9.424 17.737 18.555 29.186 27.138 11.557 8.664 24.853 16.83 39.518 24.268 14.922 7.57 31.385 14.446 48.93 20.442 17.988 6.147 37.302 11.43 57.406 15.7 20.74 4.407 42.592 7.794 64.947 10.067 23.172 2.356 47.247 3.55 71.557 3.55 29.218 0 59.3-1.724 89.396-5.126 3.625-3.562 12.028-10.763 13.284-11.836l53.82-59.898c27.33-30.787 65.095-73.962 89.8-104.814 20.23-25.262 50.926-60.47 73.116-85.557l43.71-48.84 25.25-29.047-68.823-9.6c-24.018-3.028-46.035-5.44-65.44-7.17C568.59 4.094 548.418 3 532.845 3V0m0 0c68.664 0 200.05 20.9 200.05 20.9L704.06 54.06s-77.64 85.467-116.727 134.28c-47.9 59.82-143.87 164.996-143.87 164.996s-10.904 9.304-13.986 12.538c-31.378 3.586-61.728 5.264-90.784 5.264C139.09 371.137 0 291.968 0 207.97 0 97.236 238.15 0 532.845 0z" transform="matrix(.75471 -.656059 .656059 .75471 0 480.821)"/><circle cx="146.708" cy="647.632" r="9"/><circle cx="170.708" cy="554.632" r="15"/></svg>